<svg fill="#7d8187" viewBox="0 0 35 35" data-name="Layer 2" id="Layer_2" xmlns="http://www.w3.org/2000/svg" stroke="#7d8187"><g id="SVGRepo_bgCarrier" stroke-width="0"></g><g id="SVGRepo_tracerCarrier" stroke-linecap="round" stroke-linejoin="round"></g><g id="SVGRepo_iconCarrier"><path d="M12.72,26.43H9.18a8.93,8.93,0,0,1,0-17.86h3.54a1.25,1.25,0,0,1,0,2.5H9.18a6.43,6.43,0,0,0,0,12.86h3.54a6.44,6.44,0,0,0,6.43-6.43,1.25,1.25,0,0,1,2.5,0A8.94,8.94,0,0,1,12.72,26.43Z"></path><path d="M25.82,26.43H22.28a1.25,1.25,0,0,1,0-2.5h3.54a6.43,6.43,0,0,0,0-12.86H22.28a6.44,6.44,0,0,0-6.43,6.43,1.25,1.25,0,0,1-2.5,0,8.94,8.94,0,0,1,8.93-8.93h3.54a8.93,8.93,0,0,1,0,17.86Z"></path></g></svg>