<svg t="1741657490042" class="icon" viewBox="0 0 1024 1024" version="1.1"
  xmlns="http://www.w3.org/2000/svg" p-id="23247" width="48" height="48">
  <path
    d="M213.333333 309.12c0-96.554667 102.4-157.482667 186.624-113.792l6.272 3.456 344.874667 202.88c81.664 48.042667 84.053333 164.096 7.210667 216.106667l-7.210667 4.565333-344.874667 202.88c-83.242667 48.938667-187.648-8.405333-192.725333-103.168L213.333333 714.88v-405.76z m64 0v405.76a64 64 0 0 0 96.426667 55.168l344.917333-202.88a64 64 0 0 0 0-110.336L373.76 253.952A64 64 0 0 0 277.333333 309.12z"
    fill="#000000" p-id="23248"></path>
</svg>