<svg t="1743166239452" class="icon" viewBox="0 0 1024 1024" version="1.1" xmlns="http://www.w3.org/2000/svg" p-id="3958" data-darkreader-inline-fill="" width="32" height="32"><path d="M638.72 970.666667h-256c-118.186667 0-198.272-25.002667-251.946667-78.72S52.053333 758.186667 52.053333 640V384c0-118.186667 25.002667-198.272 78.72-251.946667S264.533333 53.333333 382.72 53.333333h256c118.186667 0 198.272 25.002667 251.946667 78.72S969.386667 265.813333 969.386667 384v256c0 118.186667-25.002667 198.272-78.72 251.946667S756.906667 970.666667 638.72 970.666667z m-256-853.333334c-100.096 0-165.802667 19.2-206.72 59.946667S116.053333 283.904 116.053333 384v256c0 100.096 19.072 165.802667 59.946667 206.72S282.624 906.666667 382.72 906.666667h256c100.096 0 165.802667-19.072 206.72-59.946667S905.386667 740.096 905.386667 640V384c0-100.096-19.072-165.802667-59.946667-206.72S738.816 117.333333 638.72 117.333333z" p-id="3959" fill="#7d8187" data-darkreader-inline-fill="" style="--darkreader-inline-fill: var(--darkreader-background-7d8187, #5f666a);"></path><path d="M340.053333 970.666667a32 32 0 0 1-32-32V85.333333a32 32 0 0 1 32-32 32 32 0 0 1 32 32v853.333334a32 32 0 0 1-32 32zM638.72 653.226667a31.914667 31.914667 0 0 1-22.613333-9.386667l-109.226667-109.226667a32 32 0 0 1 0-45.269333l109.226667-109.184a32 32 0 0 1 45.269333 0 32 32 0 0 1-0.042667 45.226667L574.762667 512l86.570666 86.613333a32 32 0 0 1-22.613333 54.613334z" p-id="3960" fill="#7d8187" data-darkreader-inline-fill="" style="--darkreader-inline-fill: var(--darkreader-background-7d8187, #5f666a);"></path></svg>