<svg t="1743166282433" class="icon" viewBox="0 0 1024 1024" version="1.1" xmlns="http://www.w3.org/2000/svg" p-id="4235" data-darkreader-inline-fill="" width="32" height="32"><path d="M85.333333 690.816a262.101333 262.101333 0 0 0 44.8 157.013333 181.930667 181.930667 0 0 0 46.08 46.08 246.570667 246.570667 0 0 0 131.84 43.946667V86.656C168.106667 95.616 85.333333 186.496 85.333333 333.269333z" p-id="4236" fill="#7d8187" data-darkreader-inline-fill="" style="--darkreader-inline-fill: var(--darkreader-background-7d8187, #5f666a);"></path><path d="M690.816 938.666667h-318.72V85.333333h318.72a261.589333 261.589333 0 0 1 157.013333 44.8 182.144 182.144 0 0 1 46.08 46.08 261.461333 261.461333 0 0 1 44.8 157.013334v357.546666c0 155.221333-92.672 247.893333-247.893333 247.893334z m-52.053333-567.765334a31.701333 31.701333 0 0 0-22.613334 9.258667l-109.226666 109.226667a32.426667 32.426667 0 0 0 0 45.226666l109.226666 109.226667a32 32 0 0 0 45.226667-45.226667L575.189333 512l86.186667-86.613333a31.872 31.872 0 0 0-22.613333-54.528z" p-id="4237" fill="#7d8187" data-darkreader-inline-fill="" style="--darkreader-inline-fill: var(--darkreader-background-7d8187, #5f666a);"></path></svg>