<?xml version="1.0" encoding="UTF-8"?>
<svg xmlns="http://www.w3.org/2000/svg" xmlns:xlink="http://www.w3.org/1999/xlink" width="64px" height="64px" viewBox="0 0 64 64" version="1.1">
<g id="surface1">
<path style=" stroke:none;fill-rule:nonzero;fill:rgb(1.176471%,1.176471%,0%);fill-opacity:1;" d="M 31.914062 4.414062 C 32.773438 4.632812 33.382812 5.675781 33.867188 6.375 C 33.964844 6.511719 33.964844 6.511719 34.0625 6.65625 C 36.25 9.84375 36.25 9.84375 36.25 11.375 C 36.808594 10.921875 37.332031 10.453125 37.8125 9.914062 C 38.921875 8.722656 40.359375 7.808594 41.78125 7.023438 C 41.894531 6.960938 41.894531 6.960938 42.011719 6.894531 C 42.34375 6.71875 42.589844 6.625 42.96875 6.625 C 43.355469 6.796875 43.429688 7 43.625 7.375 C 43.738281 7.734375 43.738281 7.734375 43.824219 8.121094 C 43.875 8.328125 43.875 8.328125 43.925781 8.539062 C 43.972656 8.757812 43.972656 8.757812 44.023438 8.976562 C 44.074219 9.195312 44.074219 9.195312 44.125 9.417969 C 44.210938 9.78125 44.292969 10.140625 44.375 10.5 C 44.480469 10.386719 44.585938 10.277344 44.695312 10.160156 C 46.855469 7.917969 49.386719 6.398438 52.375 5.5 C 52.46875 5.472656 52.558594 5.445312 52.65625 5.414062 C 54.796875 4.777344 56.914062 4.46875 59.148438 4.460938 C 59.292969 4.460938 59.433594 4.460938 59.582031 4.457031 C 60.59375 4.46875 60.59375 4.46875 60.875 4.75 C 60.921875 5.582031 60.820312 6.355469 60.664062 7.171875 C 60.640625 7.292969 60.621094 7.410156 60.597656 7.53125 C 60.371094 8.703125 60.09375 9.855469 59.75 11 C 59.726562 11.085938 59.699219 11.171875 59.671875 11.257812 C 59.363281 12.261719 59.363281 12.261719 59.125 12.625 C 58.730469 12.730469 58.730469 12.730469 58.375 12.75 C 58.394531 12.835938 58.417969 12.921875 58.4375 13.007812 C 58.597656 13.945312 58.445312 14.507812 57.972656 15.328125 C 57.652344 15.757812 57.378906 15.835938 56.875 16 C 56.675781 16.203125 56.675781 16.203125 56.625 16.5 C 56.644531 16.648438 56.660156 16.792969 56.679688 16.945312 C 56.707031 17.761719 56.015625 18.3125 55.5 18.875 C 55.363281 19.035156 55.230469 19.199219 55.09375 19.359375 C 54.789062 19.71875 54.457031 20.042969 54.125 20.375 C 54.269531 20.394531 54.414062 20.417969 54.558594 20.4375 C 57.019531 20.816406 57.019531 20.816406 58 21.25 C 58.25 21.625 58.25 21.625 58.222656 21.921875 C 57.535156 24.234375 55.410156 26.359375 53.625 27.875 C 53.699219 27.902344 53.769531 27.929688 53.84375 27.960938 C 56.152344 28.859375 58.46875 29.84375 60.25 31.625 C 60.246094 32.175781 60.199219 32.421875 59.8125 32.824219 C 59.679688 32.925781 59.542969 33.023438 59.40625 33.117188 C 59.332031 33.171875 59.257812 33.222656 59.183594 33.277344 C 58.957031 33.4375 58.730469 33.59375 58.5 33.75 C 58.371094 33.835938 58.246094 33.921875 58.113281 34.011719 C 57.324219 34.523438 56.503906 34.945312 55.65625 35.351562 C 55.511719 35.421875 55.511719 35.421875 55.359375 35.492188 C 54.710938 35.796875 54.058594 36.039062 53.375 36.25 C 53.675781 36.550781 53.976562 36.851562 54.285156 37.148438 C 55.601562 38.417969 57.816406 40.621094 58.046875 42.507812 C 58 42.875 58 42.875 57.820312 43.066406 C 57.347656 43.339844 56.851562 43.449219 56.320312 43.578125 C 56.210938 43.605469 56.097656 43.632812 55.984375 43.660156 C 54.179688 44.082031 54.179688 44.082031 53.375 44 C 53.167969 43.820312 53.167969 43.820312 53 43.625 C 52.875 43.582031 52.753906 43.542969 52.625 43.5 C 52.585938 43.578125 52.546875 43.660156 52.507812 43.742188 C 52.375 44 52.375 44 52.25 44.125 C 51.960938 44.136719 51.671875 44.140625 51.382812 44.140625 C 51.222656 44.140625 51.066406 44.140625 50.902344 44.140625 C 50.5 44.125 50.5 44.125 50.25 44 C 50.316406 44.136719 50.378906 44.277344 50.445312 44.417969 C 51.261719 46.175781 51.824219 47.871094 52.117188 49.789062 C 52.136719 49.902344 52.152344 50.015625 52.171875 50.128906 C 52.183594 50.238281 52.199219 50.34375 52.214844 50.453125 C 52.226562 50.546875 52.242188 50.640625 52.253906 50.734375 C 52.25 51.058594 52.175781 51.234375 52 51.5 C 51.421875 51.675781 50.863281 51.613281 50.273438 51.539062 C 50.132812 51.519531 50.132812 51.519531 49.992188 51.503906 C 47.871094 51.21875 45.78125 50.605469 43.875 49.625 C 43.917969 49.707031 43.957031 49.789062 44 49.875 C 44.183594 51.96875 44.179688 55.519531 42.90625 57.308594 C 42.625 57.5 42.625 57.5 42.277344 57.5 C 41.785156 57.347656 41.367188 57.132812 40.921875 56.875 C 40.835938 56.824219 40.746094 56.773438 40.65625 56.722656 C 38.996094 55.75 37.597656 54.484375 36.25 53.125 C 36.203125 53.234375 36.203125 53.234375 36.15625 53.347656 C 35.480469 54.914062 34.785156 56.390625 33.75 57.75 C 33.691406 57.828125 33.632812 57.90625 33.574219 57.984375 C 33.394531 58.214844 33.214844 58.445312 33.03125 58.671875 C 32.976562 58.742188 32.921875 58.808594 32.867188 58.882812 C 32.59375 59.203125 32.390625 59.367188 31.992188 59.511719 C 31.625 59.5 31.625 59.5 31.351562 59.308594 C 29.707031 57.375 28.550781 55.101562 27.625 52.75 C 27.546875 52.832031 27.46875 52.917969 27.386719 53.003906 C 25.929688 54.5 23.414062 57.015625 21.242188 57.28125 C 21 57.28125 21 57.28125 20.625 57.25 C 20.316406 56.6875 20.128906 56.132812 19.992188 55.507812 C 19.960938 55.367188 19.960938 55.367188 19.929688 55.21875 C 19.664062 53.953125 19.585938 52.664062 19.5 51.375 C 19.429688 51.441406 19.359375 51.507812 19.289062 51.578125 C 17.222656 53.496094 14.886719 54.785156 12.25 55.75 C 12.164062 55.78125 12.082031 55.8125 11.992188 55.84375 C 9.230469 56.835938 6.230469 57.242188 3.304688 57.289062 C 3.21875 57.292969 3.128906 57.292969 3.039062 57.296875 C 2.671875 57.296875 2.402344 57.261719 2.066406 57.105469 C 1.875 56.875 1.875 56.875 1.832031 56.566406 C 2.171875 52.804688 2.171875 52.804688 2.875 51.375 C 3.203125 51.273438 3.203125 51.273438 3.5 51.25 C 3.457031 51.164062 3.417969 51.078125 3.375 50.992188 C 3.097656 50.175781 3.289062 49.546875 3.578125 48.765625 C 3.796875 48.425781 4.003906 48.386719 4.375 48.25 C 4.546875 47.871094 4.546875 47.871094 4.625 47.5 C 4.582031 47.457031 4.542969 47.417969 4.5 47.375 C 4.402344 46.554688 4.683594 46.039062 5.078125 45.335938 C 5.164062 45.179688 5.164062 45.179688 5.25 45.019531 C 5.648438 44.292969 6.058594 43.574219 6.5 42.875 C 6.378906 42.824219 6.257812 42.773438 6.132812 42.71875 C 5.75 42.5 5.75 42.5 5.644531 42.273438 C 5.5625 41.164062 6.964844 39.640625 7.667969 38.800781 C 8.054688 38.351562 8.460938 37.925781 8.875 37.5 C 8.984375 37.386719 9.09375 37.277344 9.203125 37.160156 C 9.953125 36.398438 9.953125 36.398438 10.25 36.25 C 10.039062 36.15625 10.039062 36.15625 9.820312 36.0625 C 9.664062 35.992188 9.664062 35.992188 9.507812 35.921875 C 9.304688 35.832031 9.101562 35.742188 8.898438 35.652344 C 7.8125 35.179688 6.792969 34.652344 5.804688 33.992188 C 5.714844 33.933594 5.625 33.871094 5.53125 33.808594 C 5.070312 33.492188 4.625 33.160156 4.191406 32.804688 C 4.109375 32.738281 4.027344 32.671875 3.945312 32.601562 C 3.699219 32.316406 3.648438 32.121094 3.625 31.75 C 3.890625 31.429688 3.890625 31.429688 4.25 31.125 C 4.398438 30.996094 4.398438 30.996094 4.546875 30.867188 C 6.359375 29.449219 8.472656 28.519531 10.625 27.75 C 10.523438 27.660156 10.417969 27.566406 10.3125 27.476562 C 8.628906 25.964844 6.546875 23.859375 5.875 21.625 C 5.882812 21.300781 5.882812 21.300781 6 21 C 6.511719 20.5625 7.152344 20.484375 7.796875 20.359375 C 7.898438 20.339844 8.003906 20.316406 8.109375 20.296875 C 8.988281 20.117188 9.855469 19.988281 10.753906 19.960938 C 10.914062 19.957031 11.074219 19.949219 11.242188 19.945312 C 11.40625 19.941406 11.574219 19.933594 11.742188 19.929688 C 11.914062 19.925781 12.082031 19.917969 12.253906 19.914062 C 12.667969 19.898438 13.085938 19.886719 13.5 19.875 C 13.445312 19.757812 13.390625 19.636719 13.335938 19.515625 C 13.265625 19.355469 13.195312 19.199219 13.125 19.039062 C 13.089844 18.960938 13.054688 18.882812 13.015625 18.800781 C 12.820312 18.351562 12.679688 17.992188 12.75 17.5 C 12.875 17.3125 12.875 17.3125 13 17.125 C 13.007812 16.867188 13.007812 16.867188 12.875 16.625 C 12.773438 16.574219 12.671875 16.519531 12.570312 16.46875 C 12.054688 16.117188 12.058594 15.679688 11.945312 15.097656 C 11.621094 12.941406 11.621094 12.941406 12 12.375 C 14.402344 11.816406 17.769531 13.324219 19.875 14.375 C 19.871094 14.246094 19.871094 14.246094 19.867188 14.113281 C 19.816406 11.425781 20.035156 9.140625 21 6.625 C 21.125 6.5 21.125 6.5 21.449219 6.460938 C 21.984375 6.511719 22.367188 6.714844 22.820312 6.984375 C 22.90625 7.035156 22.996094 7.085938 23.085938 7.136719 C 24.839844 8.175781 26.320312 9.558594 27.75 11 C 27.839844 10.777344 27.839844 10.777344 27.929688 10.550781 C 30.210938 4.917969 30.210938 4.917969 31.914062 4.414062 Z M 31.914062 4.414062 "/>
<path style=" stroke:none;fill-rule:nonzero;fill:rgb(1.176471%,0.392157%,0%);fill-opacity:1;" d="M 27.875 20.25 C 28 20.3125 28 20.3125 28.125 20.375 C 27.972656 20.476562 27.972656 20.476562 27.8125 20.582031 C 26.121094 21.71875 24.570312 23.027344 23.625 24.875 C 23.6875 24.808594 23.75 24.738281 23.8125 24.667969 C 25.734375 22.652344 28.257812 21.308594 31.0625 21.210938 C 32.324219 21.191406 33.519531 21.203125 34.75 21.5 C 34.847656 21.523438 34.949219 21.546875 35.050781 21.570312 C 37.519531 22.15625 39.710938 23.964844 41.085938 26.039062 C 42.59375 28.53125 43.148438 31.082031 42.472656 33.9375 C 41.957031 35.945312 41.082031 37.519531 39.625 39 C 39.53125 39.097656 39.433594 39.195312 39.335938 39.292969 C 38.148438 40.429688 36.671875 41.207031 35.125 41.75 C 35.011719 41.789062 34.898438 41.828125 34.78125 41.871094 C 32.730469 42.460938 30.457031 42.269531 28.445312 41.636719 C 28.019531 41.480469 28.019531 41.480469 27.625 41.5 C 28.84375 42.183594 30.007812 42.789062 31.375 43.125 C 31.476562 43.152344 31.578125 43.179688 31.6875 43.203125 C 32.328125 43.359375 32.96875 43.4375 33.625 43.5 C 33.625 43.542969 33.625 43.582031 33.625 43.625 C 29.675781 43.710938 26.390625 43.085938 23.375 40.375 C 23.289062 40.296875 23.203125 40.222656 23.113281 40.144531 C 21.171875 38.328125 19.734375 35.550781 19.609375 32.882812 C 19.507812 29.453125 19.507812 29.453125 20.125 27.875 C 20.15625 27.796875 20.183594 27.714844 20.214844 27.632812 C 21.367188 24.550781 23.722656 22.097656 26.707031 20.722656 C 27.09375 20.550781 27.472656 20.386719 27.875 20.25 Z M 27.875 20.25 "/>
<path style=" stroke:none;fill-rule:nonzero;fill:rgb(0%,68.235296%,29.803923%);fill-opacity:1;" d="M 59.625 5.625 C 59.476562 7.335938 59.054688 8.945312 58.542969 10.578125 C 58.339844 11.234375 58.171875 11.808594 58.25 12.5 C 58.332031 12.582031 58.414062 12.664062 58.5 12.75 C 58.445312 13.007812 58.445312 13.007812 58.375 13.25 C 58.417969 13.292969 58.457031 13.332031 58.5 13.375 C 58.617188 14.144531 58.355469 14.664062 57.972656 15.328125 C 57.652344 15.757812 57.375 15.828125 56.875 16 C 56.8125 16.109375 56.75 16.214844 56.6875 16.328125 C 56.625 16.425781 56.5625 16.523438 56.5 16.625 C 56.363281 16.636719 56.226562 16.648438 56.085938 16.660156 C 55.589844 16.757812 55.464844 16.859375 55.179688 17.269531 C 55.132812 17.339844 55.085938 17.410156 55.039062 17.484375 C 54.414062 18.367188 53.703125 19.058594 52.875 19.75 C 52.792969 19.824219 52.710938 19.898438 52.625 19.972656 C 51.863281 20.5625 50.910156 20.429688 50 20.375 C 50.035156 20.289062 50.070312 20.203125 50.109375 20.113281 C 50.273438 19.710938 50.4375 19.308594 50.601562 18.90625 C 50.65625 18.769531 50.714844 18.632812 50.773438 18.492188 C 51.191406 17.460938 51.535156 16.429688 51.679688 15.320312 C 51.878906 14.007812 52.476562 13.351562 53.414062 12.492188 C 53.542969 12.367188 53.675781 12.242188 53.804688 12.117188 C 54.285156 11.65625 54.769531 11.210938 55.289062 10.800781 C 55.667969 10.527344 55.667969 10.527344 55.671875 10.085938 C 55.648438 9.917969 55.648438 9.917969 55.625 9.75 C 55.152344 9.699219 54.945312 9.695312 54.5625 9.992188 C 54.464844 10.101562 54.367188 10.207031 54.265625 10.320312 C 53.808594 10.804688 53.351562 11.253906 52.839844 11.683594 C 52.597656 11.890625 52.597656 11.890625 52.328125 12.242188 C 51.953125 12.535156 51.886719 12.523438 51.433594 12.503906 C 50.765625 12.492188 50.152344 12.574219 49.5 12.703125 C 49.386719 12.726562 49.273438 12.746094 49.160156 12.769531 C 47.621094 13.085938 46.175781 13.601562 44.75 14.25 C 44.625 14.25 44.503906 14.25 44.375 14.25 C 44.269531 13.335938 44.265625 12.660156 44.820312 11.898438 C 45 11.679688 45.1875 11.464844 45.375 11.25 C 45.472656 11.121094 45.472656 11.121094 45.574219 10.992188 C 48.34375 7.5 53.3125 6.179688 57.515625 5.660156 C 58.21875 5.589844 58.917969 5.578125 59.625 5.625 Z M 59.625 5.625 "/>
<path style=" stroke:none;fill-rule:nonzero;fill:rgb(0%,68.235296%,29.803923%);fill-opacity:1;" d="M 7.875 43.125 C 7.980469 43.152344 8.089844 43.175781 8.199219 43.203125 C 10.113281 43.601562 12.054688 43.59375 14 43.625 C 13.433594 44.949219 12.84375 45.871094 11.726562 46.800781 C 11.171875 47.289062 10.660156 47.832031 10.140625 48.363281 C 9.574219 48.9375 8.988281 49.476562 8.375 50 C 7.878906 50.402344 7.878906 50.402344 7.710938 50.976562 C 7.730469 51.113281 7.730469 51.113281 7.75 51.25 C 8.039062 51.34375 8.039062 51.34375 8.375 51.375 C 8.625 51.246094 8.625 51.246094 8.835938 51.023438 C 8.921875 50.941406 9.007812 50.863281 9.09375 50.777344 C 9.503906 50.371094 9.914062 49.964844 10.320312 49.554688 C 10.96875 48.910156 11.671875 48.332031 12.375 47.75 C 12.347656 47.875 12.324219 48 12.296875 48.128906 C 12.082031 49.210938 11.929688 50.273438 11.875 51.375 C 14.019531 51.527344 16.128906 51 18.117188 50.222656 C 18.328125 50.144531 18.539062 50.070312 18.75 50 C 18.832031 50.042969 18.914062 50.082031 19 50.125 C 15.566406 53.835938 10.097656 55.75 5.125 56 C 4.5 56.011719 3.875 56.007812 3.25 56 C 3.222656 55.160156 3.316406 54.425781 3.5 53.609375 C 3.660156 52.890625 3.78125 52.238281 3.75 51.5 C 3.667969 51.457031 3.585938 51.417969 3.5 51.375 C 3.09375 50.425781 3.234375 49.699219 3.578125 48.765625 C 3.796875 48.425781 4.003906 48.386719 4.375 48.25 C 4.433594 48.125 4.492188 48.003906 4.554688 47.875 C 4.617188 47.75 4.683594 47.628906 4.75 47.5 C 4.917969 47.46875 4.917969 47.46875 5.089844 47.4375 C 5.757812 47.132812 5.9375 46.515625 6.242188 45.875 C 6.71875 44.894531 7.222656 44 7.875 43.125 Z M 7.875 43.125 "/>
<path style=" stroke:none;fill-rule:nonzero;fill:rgb(99.215686%,92.941177%,0%);fill-opacity:1;" d="M 27.625 44.125 C 27.851562 44.179688 27.851562 44.179688 28.082031 44.234375 C 30.527344 44.78125 33.03125 44.898438 35.464844 44.234375 C 35.875 44.125 35.875 44.125 36.25 44.125 C 36.296875 45.894531 36.230469 47.589844 35.925781 49.335938 C 35.878906 49.59375 35.839844 49.855469 35.800781 50.113281 C 35.304688 53.09375 33.84375 55.664062 32 58 C 31.492188 57.53125 31.125 57.039062 30.765625 56.453125 C 30.710938 56.363281 30.65625 56.277344 30.601562 56.1875 C 28.429688 52.59375 27.5 48.296875 27.625 44.125 Z M 27.625 44.125 "/>
<path style=" stroke:none;fill-rule:nonzero;fill:rgb(99.215686%,92.54902%,0%);fill-opacity:1;" d="M 43.875 37.75 C 45.121094 38.808594 46.144531 39.945312 47.125 41.25 C 47.203125 41.355469 47.28125 41.457031 47.363281 41.566406 C 49.085938 43.941406 51.003906 47.214844 50.875 50.25 C 50.035156 50.28125 49.308594 50.214844 48.5 50 C 48.363281 49.96875 48.226562 49.9375 48.082031 49.902344 C 46.863281 49.605469 45.753906 49.171875 44.625 48.625 C 44.507812 48.570312 44.507812 48.570312 44.390625 48.511719 C 42.039062 47.367188 39.550781 45.65625 37.875 43.625 C 37.875 43.542969 37.875 43.460938 37.875 43.375 C 38.042969 43.285156 38.042969 43.285156 38.214844 43.191406 C 40.078125 42.253906 40.078125 42.253906 41.25 40.695312 C 41.292969 40.546875 41.332031 40.402344 41.375 40.25 C 41.457031 40.125 41.539062 40.003906 41.625 39.875 C 41.757812 39.867188 41.894531 39.859375 42.03125 39.851562 C 42.625 39.722656 42.742188 39.519531 43.066406 39.027344 C 43.152344 38.886719 43.152344 38.886719 43.242188 38.742188 C 43.304688 38.648438 43.367188 38.550781 43.429688 38.453125 C 43.582031 38.222656 43.730469 37.988281 43.875 37.75 Z M 43.875 37.75 "/>
<path style=" stroke:none;fill-rule:nonzero;fill:rgb(99.215686%,92.941177%,0%);fill-opacity:1;" d="M 19.875 37.75 C 20.238281 38.078125 20.480469 38.460938 20.75 38.867188 C 22.160156 40.9375 23.933594 42.324219 26.125 43.5 C 24.148438 45.941406 21.328125 47.703125 18.5 49 C 18.421875 49.035156 18.347656 49.070312 18.265625 49.109375 C 16.605469 49.855469 14.824219 50.292969 13 50.375 C 13.117188 45.601562 16.550781 40.921875 19.875 37.75 Z M 19.875 37.75 "/>
<path style=" stroke:none;fill-rule:nonzero;fill:rgb(99.215686%,92.941177%,0%);fill-opacity:1;" d="M 44.875 27.875 C 49.734375 27.785156 54.828125 28.832031 58.75 31.875 C 57.339844 33.359375 55.507812 34.15625 53.625 34.875 C 53.5 34.925781 53.5 34.925781 53.371094 34.972656 C 50.59375 36.03125 47.566406 36.242188 44.625 36.125 C 44.660156 35.988281 44.695312 35.851562 44.730469 35.710938 C 44.777344 35.527344 44.820312 35.347656 44.867188 35.164062 C 44.902344 35.027344 44.902344 35.027344 44.9375 34.890625 C 44.957031 34.800781 44.980469 34.714844 45.003906 34.625 C 45.023438 34.542969 45.042969 34.460938 45.066406 34.378906 C 45.550781 32.328125 45.414062 29.910156 44.875 27.875 Z M 44.875 27.875 "/>
<path style=" stroke:none;fill-rule:nonzero;fill:rgb(99.215686%,92.54902%,0%);fill-opacity:1;" d="M 19 27.875 C 18.960938 28.03125 18.960938 28.03125 18.917969 28.191406 C 18.652344 29.316406 18.570312 30.355469 18.585938 31.515625 C 18.585938 31.753906 18.585938 31.753906 18.585938 31.996094 C 18.589844 33.628906 18.589844 33.628906 19.007812 35.191406 C 19.132812 35.523438 19.144531 35.773438 19.125 36.125 C 17.210938 36.171875 15.382812 36.125 13.5 35.75 C 13.410156 35.734375 13.320312 35.714844 13.226562 35.695312 C 10.355469 35.132812 7.539062 33.964844 5.25 32.125 C 5.671875 30.980469 7.8125 30.234375 8.871094 29.738281 C 12.035156 28.300781 15.550781 27.78125 19 27.875 Z M 19 27.875 "/>
<path style=" stroke:none;fill-rule:nonzero;fill:rgb(99.215686%,92.941177%,0%);fill-opacity:1;" d="M 13 13.625 C 16.933594 13.773438 20.886719 15.917969 23.875 18.375 C 23.953125 18.441406 24.035156 18.503906 24.117188 18.574219 C 24.363281 18.777344 24.605469 18.980469 24.851562 19.1875 C 24.96875 19.285156 24.96875 19.285156 25.085938 19.382812 C 25.269531 19.542969 25.449219 19.707031 25.625 19.875 C 25.625 19.957031 25.625 20.039062 25.625 20.125 C 25.410156 20.261719 25.1875 20.386719 24.960938 20.507812 C 22.636719 21.828125 21.113281 23.757812 19.75 26 C 17.28125 24.035156 15.460938 21.261719 14.1875 18.40625 C 14.019531 18.042969 13.851562 17.703125 13.625 17.375 C 13.515625 17.335938 13.410156 17.296875 13.296875 17.257812 C 13.148438 17.191406 13.148438 17.191406 13 17.125 C 12.898438 16.734375 12.898438 16.734375 12.875 16.375 C 13 16.292969 13.121094 16.210938 13.25 16.125 C 13.238281 16.011719 13.238281 16.011719 13.226562 15.894531 C 13.152344 15.140625 13.074219 14.382812 13 13.625 Z M 13 13.625 "/>
<path style=" stroke:none;fill-rule:nonzero;fill:rgb(99.215686%,92.941177%,0%);fill-opacity:1;" d="M 50.875 13.625 C 51.039062 17.570312 48.335938 21.65625 45.773438 24.445312 C 45.277344 24.972656 44.769531 25.492188 44.25 26 C 43.921875 25.703125 43.710938 25.378906 43.484375 25 C 42.15625 22.882812 40.417969 21.328125 38.25 20.125 C 38.25 20.042969 38.25 19.960938 38.25 19.875 C 38.445312 19.699219 38.644531 19.53125 38.851562 19.367188 C 39.410156 18.921875 39.410156 18.921875 39.957031 18.46875 C 42.777344 16.085938 47.035156 13.472656 50.875 13.625 Z M 50.875 13.625 "/>
<path style=" stroke:none;fill-rule:nonzero;fill:rgb(99.215686%,92.941177%,0%);fill-opacity:1;" d="M 31.875 6 C 34.761719 8.8125 36.207031 13.339844 36.265625 17.304688 C 36.269531 17.914062 36.261719 18.519531 36.25 19.125 C 35.570312 19.058594 34.921875 18.960938 34.257812 18.804688 C 32.320312 18.394531 30.429688 18.664062 28.5 19 C 28.25 19.042969 28 19.082031 27.75 19.125 C 27.707031 17.453125 27.765625 15.886719 28.125 14.25 C 28.15625 14.097656 28.15625 14.097656 28.191406 13.941406 C 28.832031 11.046875 29.976562 8.296875 31.875 6 Z M 31.875 6 "/>
<path style=" stroke:none;fill-rule:nonzero;fill:rgb(34.117648%,14.901961%,4.313726%);fill-opacity:1;" d="M 39.75 22.304688 C 41.03125 23.398438 42.042969 24.53125 42.875 26 C 42.945312 26.125 43.019531 26.25 43.09375 26.378906 C 43.957031 27.980469 44.273438 29.703125 44.273438 31.507812 C 44.273438 31.640625 44.277344 31.773438 44.277344 31.914062 C 44.28125 34.328125 43.546875 36.832031 41.96875 38.710938 C 41.703125 38.996094 41.703125 38.996094 41.757812 39.4375 C 41.75 39.875 41.75 39.875 41.476562 40.25 C 41.359375 40.332031 41.246094 40.414062 41.125 40.5 C 41.03125 40.472656 40.9375 40.445312 40.839844 40.414062 C 40.472656 40.335938 40.472656 40.335938 40.125 40.628906 C 39.988281 40.75 39.847656 40.871094 39.710938 40.992188 C 38.800781 41.757812 37.832031 42.269531 36.75 42.75 C 36.601562 42.816406 36.453125 42.882812 36.300781 42.953125 C 34.265625 43.78125 32.078125 43.683594 30.0625 42.875 C 29.078125 42.449219 28.128906 41.992188 27.25 41.375 C 27.800781 41.199219 28.210938 41.363281 28.742188 41.546875 C 28.917969 41.605469 29.09375 41.664062 29.269531 41.722656 C 29.347656 41.746094 29.421875 41.773438 29.503906 41.800781 C 31.957031 42.53125 34.785156 41.992188 37.007812 40.835938 C 37.824219 40.386719 38.5625 39.878906 39.25 39.25 C 39.34375 39.167969 39.4375 39.085938 39.535156 39 C 41.480469 37.191406 42.453125 34.621094 42.664062 32.011719 C 42.75 29.171875 41.65625 26.578125 39.75 24.5 C 37.921875 22.609375 35.402344 21.429688 32.777344 21.34375 C 29.363281 21.289062 26.738281 22.042969 24.203125 24.398438 C 24.007812 24.59375 23.816406 24.796875 23.625 25 C 23.625 23.949219 24.933594 22.839844 25.625 22.125 C 29.476562 18.328125 35.722656 19.132812 39.75 22.304688 Z M 39.75 22.304688 "/>
<path style=" stroke:none;fill-rule:nonzero;fill:rgb(99.215686%,75.294119%,19.215687%);fill-opacity:1;" d="M 52.1875 36.960938 C 53.980469 38.464844 55.484375 40.070312 56.625 42.125 C 56.195312 42.371094 55.773438 42.464844 55.289062 42.5625 C 55.136719 42.59375 54.980469 42.625 54.820312 42.660156 C 54.675781 42.6875 54.527344 42.71875 54.375 42.75 C 54.152344 42.800781 53.925781 42.847656 53.703125 42.898438 C 53.554688 42.933594 53.402344 42.964844 53.25 43 C 53.207031 43.164062 53.167969 43.328125 53.125 43.5 C 52.828125 43.460938 52.828125 43.460938 52.5 43.375 C 52.417969 43.25 52.335938 43.128906 52.25 43 C 51.878906 42.957031 51.527344 42.9375 51.15625 42.929688 C 49.792969 42.898438 49.792969 42.898438 49.25 42.625 C 49.042969 42.363281 48.886719 42.128906 48.726562 41.84375 C 47.875 40.4375 46.855469 39.199219 45.722656 38.011719 C 45.261719 37.523438 45.261719 37.523438 45.125 37.25 C 45.222656 37.246094 45.320312 37.238281 45.417969 37.234375 C 47.964844 37.085938 47.964844 37.085938 50.488281 36.734375 C 51.171875 36.617188 51.605469 36.570312 52.1875 36.960938 Z M 52.1875 36.960938 "/>
<path style=" stroke:none;fill-rule:nonzero;fill:rgb(98.823529%,75.294119%,19.215687%);fill-opacity:1;" d="M 21.875 8 C 22.476562 8.167969 22.945312 8.433594 23.445312 8.796875 C 23.519531 8.851562 23.597656 8.90625 23.671875 8.960938 C 24.507812 9.578125 25.257812 10.277344 26 11 C 26.09375 11.089844 26.183594 11.175781 26.277344 11.265625 C 26.480469 11.46875 26.683594 11.664062 26.875 11.875 C 26.964844 11.972656 27.058594 12.070312 27.152344 12.167969 C 27.375 12.5 27.375 12.5 27.382812 12.824219 C 27.355469 12.945312 27.332031 13.0625 27.304688 13.1875 C 27.277344 13.332031 27.25 13.472656 27.222656 13.621094 C 27.199219 13.738281 27.199219 13.738281 27.175781 13.863281 C 27.078125 14.367188 27.011719 14.878906 26.9375 15.390625 C 26.921875 15.5 26.90625 15.613281 26.890625 15.726562 C 26.730469 16.855469 26.609375 17.988281 26.5 19.125 C 26.050781 18.835938 25.644531 18.546875 25.257812 18.179688 C 24.148438 17.179688 22.90625 16.320312 21.632812 15.542969 C 21.375 15.375 21.375 15.375 21.125 15.125 C 21.03125 14.628906 21.023438 14.125 21 13.625 C 20.992188 13.472656 20.980469 13.320312 20.96875 13.164062 C 20.914062 11.589844 20.984375 9.332031 21.875 8 Z M 21.875 8 "/>
<path style=" stroke:none;fill-rule:nonzero;fill:rgb(98.823529%,75.294119%,19.215687%);fill-opacity:1;" d="M 42.375 8.125 C 42.753906 8.597656 42.882812 9.039062 43 9.625 C 43.023438 9.722656 43.046875 9.820312 43.070312 9.917969 C 43.261719 10.832031 43.273438 11.734375 43.273438 12.664062 C 43.273438 12.792969 43.273438 12.921875 43.273438 13.058594 C 43.273438 13.304688 43.265625 13.550781 43.257812 13.800781 C 43.25 14.066406 43.253906 14.332031 43.261719 14.601562 C 43.035156 15.261719 42.484375 15.5 41.90625 15.851562 C 41.664062 16.003906 41.421875 16.160156 41.183594 16.3125 C 41.066406 16.386719 40.949219 16.460938 40.828125 16.539062 C 39.714844 17.257812 38.71875 18.117188 37.757812 19.019531 C 37.5 19.25 37.5 19.25 37.375 19.25 C 37.371094 19.144531 37.371094 19.144531 37.371094 19.039062 C 37.324219 17.496094 37.207031 15.988281 36.964844 14.460938 C 36.941406 14.316406 36.941406 14.316406 36.921875 14.167969 C 36.890625 13.96875 36.855469 13.773438 36.8125 13.578125 C 36.710938 13.019531 36.703125 12.828125 37.015625 12.328125 C 37.144531 12.199219 37.273438 12.070312 37.40625 11.945312 C 37.476562 11.875 37.542969 11.808594 37.613281 11.738281 C 37.824219 11.53125 38.035156 11.328125 38.25 11.125 C 38.363281 11.011719 38.480469 10.898438 38.597656 10.78125 C 39.726562 9.714844 40.992188 8.835938 42.375 8.125 Z M 42.375 8.125 "/>
<path style=" stroke:none;fill-rule:nonzero;fill:rgb(99.215686%,75.294119%,19.215687%);fill-opacity:1;" d="M 26.5 44.875 C 26.507812 44.980469 26.519531 45.082031 26.527344 45.191406 C 26.738281 47.6875 26.738281 47.6875 27.179688 50.148438 C 27.257812 50.542969 27.300781 50.847656 27.25 51.25 C 27.054688 51.523438 26.882812 51.734375 26.648438 51.96875 C 26.585938 52.035156 26.523438 52.097656 26.460938 52.164062 C 26.265625 52.363281 26.070312 52.558594 25.875 52.75 C 25.707031 52.917969 25.707031 52.917969 25.535156 53.085938 C 24.289062 54.261719 22.929688 55.160156 21.375 55.875 C 20.753906 54.222656 20.648438 52.273438 20.738281 50.519531 C 20.746094 50.324219 20.75 50.128906 20.746094 49.929688 C 20.765625 49.125 20.765625 49.125 21.058594 48.792969 C 21.3125 48.609375 21.566406 48.460938 21.84375 48.3125 C 22.039062 48.199219 22.234375 48.082031 22.429688 47.964844 C 22.523438 47.910156 22.621094 47.851562 22.722656 47.792969 C 23.773438 47.15625 24.710938 46.324219 25.609375 45.488281 C 26.292969 44.875 26.292969 44.875 26.5 44.875 Z M 26.5 44.875 "/>
<path style=" stroke:none;fill-rule:nonzero;fill:rgb(99.607843%,75.686276%,19.215687%);fill-opacity:1;" d="M 50.511719 21.484375 C 50.660156 21.484375 50.8125 21.484375 50.964844 21.484375 C 51.199219 21.484375 51.199219 21.484375 51.4375 21.484375 C 51.589844 21.484375 51.742188 21.484375 51.898438 21.484375 C 53.242188 21.484375 54.542969 21.523438 55.84375 21.882812 C 55.933594 21.90625 56.019531 21.929688 56.113281 21.953125 C 56.324219 22.007812 56.539062 22.066406 56.75 22.125 C 55.886719 24.035156 54.382812 25.578125 52.875 27 C 52.777344 27.09375 52.679688 27.1875 52.578125 27.285156 C 51.914062 27.71875 51.167969 27.476562 50.429688 27.328125 C 50.25 27.292969 50.074219 27.257812 49.894531 27.226562 C 49.808594 27.207031 49.71875 27.191406 49.628906 27.171875 C 48.132812 26.890625 46.644531 26.808594 45.125 26.75 C 45.535156 26.265625 45.949219 25.792969 46.390625 25.335938 C 47.480469 24.203125 48.378906 22.929688 49.25 21.625 C 49.660156 21.464844 50.078125 21.484375 50.511719 21.484375 Z M 50.511719 21.484375 "/>
<path style=" stroke:none;fill-rule:nonzero;fill:rgb(99.215686%,75.294119%,19.215687%);fill-opacity:1;" d="M 12.304688 21.085938 C 12.4375 21.085938 12.570312 21.085938 12.707031 21.082031 C 14 21.097656 14 21.097656 14.5 21.375 C 14.773438 21.679688 14.988281 22.007812 15.210938 22.351562 C 15.875 23.335938 16.589844 24.238281 17.375 25.125 C 17.484375 25.25 17.589844 25.371094 17.703125 25.5 C 18.167969 26.070312 18.167969 26.070312 18.75 26.5 C 18.75 26.582031 18.75 26.664062 18.75 26.75 C 18.597656 26.753906 18.445312 26.757812 18.289062 26.757812 C 16.375 26.816406 14.40625 26.980469 12.542969 27.460938 C 12.25 27.5 12.25 27.5 11.878906 27.253906 C 11.742188 27.136719 11.609375 27.019531 11.476562 26.898438 C 11.40625 26.835938 11.335938 26.773438 11.261719 26.707031 C 11.046875 26.515625 10.835938 26.320312 10.625 26.125 C 10.457031 25.972656 10.457031 25.972656 10.289062 25.820312 C 9.082031 24.675781 8.03125 23.285156 7.375 21.75 C 8.839844 21.066406 10.722656 21.089844 12.304688 21.085938 Z M 12.304688 21.085938 "/>
<path style=" stroke:none;fill-rule:nonzero;fill:rgb(99.215686%,75.686276%,19.215687%);fill-opacity:1;" d="M 12.078125 36.492188 C 12.199219 36.519531 12.320312 36.542969 12.445312 36.570312 C 12.589844 36.597656 12.734375 36.625 12.878906 36.652344 C 12.960938 36.667969 13.039062 36.683594 13.121094 36.699219 C 14.988281 37.066406 16.847656 37.203125 18.75 37.25 C 18.320312 37.84375 17.878906 38.394531 17.367188 38.921875 C 16.539062 39.796875 15.859375 40.777344 15.171875 41.761719 C 15.085938 41.878906 15.085938 41.878906 15 42 C 14.949219 42.089844 14.898438 42.183594 14.847656 42.277344 C 14.625 42.5 14.625 42.5 14.226562 42.5625 C 14.0625 42.5625 13.902344 42.5625 13.734375 42.5625 C 13.644531 42.5625 13.558594 42.5625 13.464844 42.5625 C 13.179688 42.5625 12.894531 42.558594 12.609375 42.554688 C 12.464844 42.554688 12.464844 42.554688 12.316406 42.550781 C 10.933594 42.542969 9.597656 42.484375 8.25 42.125 C 8.089844 42.085938 7.929688 42.050781 7.765625 42.011719 C 7.636719 41.964844 7.507812 41.921875 7.375 41.875 C 7.3125 41.6875 7.3125 41.6875 7.25 41.5 C 8.109375 39.78125 9.65625 38.210938 11.125 37 C 11.277344 36.859375 11.277344 36.859375 11.429688 36.714844 C 11.75 36.5 11.75 36.5 12.078125 36.492188 Z M 12.078125 36.492188 "/>
<path style=" stroke:none;fill-rule:nonzero;fill:rgb(99.607843%,75.686276%,19.215687%);fill-opacity:1;" d="M 37.375 44.75 C 37.789062 45.105469 38.207031 45.460938 38.617188 45.820312 C 39.773438 46.824219 41.007812 47.855469 42.367188 48.566406 C 42.625 48.75 42.625 48.75 42.703125 49.023438 C 42.789062 49.65625 42.773438 50.296875 42.773438 50.933594 C 42.773438 51.183594 42.777344 51.429688 42.777344 51.679688 C 42.78125 53.179688 42.605469 54.578125 42.125 56 C 40.738281 55.59375 39.566406 54.574219 38.5 53.625 C 38.417969 53.554688 38.339844 53.484375 38.253906 53.410156 C 37.988281 53.171875 37.730469 52.929688 37.46875 52.6875 C 37.382812 52.613281 37.296875 52.535156 37.210938 52.457031 C 36.644531 51.914062 36.644531 51.914062 36.59375 51.492188 C 36.621094 51.195312 36.679688 50.917969 36.75 50.625 C 36.789062 50.394531 36.828125 50.160156 36.867188 49.929688 C 36.890625 49.804688 36.910156 49.679688 36.933594 49.554688 C 37.210938 47.949219 37.34375 46.375 37.375 44.75 Z M 37.375 44.75 "/>
<path style=" stroke:none;fill-rule:nonzero;fill:rgb(29.019609%,12.156863%,3.921569%);fill-opacity:1;" d="M 27.875 20.25 C 28 20.3125 28 20.3125 28.125 20.375 C 27.972656 20.476562 27.972656 20.476562 27.8125 20.582031 C 25.15625 22.355469 25.15625 22.355469 23.574219 24.984375 C 23.480469 25.320312 23.3125 25.53125 23.101562 25.8125 C 22.195312 27.085938 21.71875 28.367188 21.375 29.875 C 21.339844 30.023438 21.339844 30.023438 21.300781 30.171875 C 20.839844 33.085938 21.84375 35.769531 23.5 38.125 C 24.515625 39.511719 25.988281 40.367188 27.5 41.125 C 27.457031 41.207031 27.417969 41.289062 27.375 41.375 C 28.675781 42.097656 29.917969 42.777344 31.375 43.125 C 31.527344 43.164062 31.527344 43.164062 31.683594 43.203125 C 32.328125 43.359375 32.96875 43.4375 33.625 43.5 C 33.625 43.542969 33.625 43.582031 33.625 43.625 C 29.675781 43.710938 26.390625 43.085938 23.375 40.375 C 23.289062 40.296875 23.203125 40.222656 23.113281 40.144531 C 21.171875 38.328125 19.734375 35.550781 19.609375 32.882812 C 19.507812 29.453125 19.507812 29.453125 20.125 27.875 C 20.15625 27.796875 20.183594 27.714844 20.214844 27.632812 C 21.367188 24.550781 23.722656 22.097656 26.707031 20.722656 C 27.09375 20.550781 27.472656 20.386719 27.875 20.25 Z M 27.875 20.25 "/>
<path style=" stroke:none;fill-rule:nonzero;fill:rgb(0%,49.019608%,19.607843%);fill-opacity:1;" d="M 7.875 43.125 C 7.980469 43.152344 8.089844 43.175781 8.199219 43.203125 C 10.113281 43.601562 12.054688 43.59375 14 43.625 C 13.84375 43.953125 13.683594 44.28125 13.523438 44.609375 C 13.480469 44.703125 13.433594 44.796875 13.386719 44.890625 C 13.34375 44.980469 13.300781 45.070312 13.253906 45.164062 C 13.195312 45.285156 13.195312 45.285156 13.132812 45.414062 C 13 45.625 13 45.625 12.625 45.875 C 12.296875 45.855469 12.296875 45.855469 11.902344 45.792969 C 10.394531 45.546875 10.394531 45.546875 8.96875 45.917969 C 8.476562 46.410156 8.191406 47.019531 7.910156 47.652344 C 7.742188 48.015625 7.554688 48.359375 7.359375 48.710938 C 6.101562 50.980469 5.289062 53.214844 4.75 55.75 C 4.875 55.832031 4.996094 55.914062 5.125 56 C 4.507812 56 3.886719 56 3.25 56 C 3.222656 55.160156 3.316406 54.425781 3.5 53.609375 C 3.660156 52.890625 3.78125 52.238281 3.75 51.5 C 3.667969 51.457031 3.585938 51.417969 3.5 51.375 C 3.09375 50.425781 3.234375 49.699219 3.578125 48.765625 C 3.796875 48.425781 4.003906 48.386719 4.375 48.25 C 4.433594 48.125 4.492188 48.003906 4.554688 47.875 C 4.617188 47.75 4.683594 47.628906 4.75 47.5 C 4.917969 47.46875 4.917969 47.46875 5.089844 47.4375 C 5.757812 47.132812 5.9375 46.515625 6.242188 45.875 C 6.71875 44.894531 7.222656 44 7.875 43.125 Z M 7.875 43.125 "/>
<path style=" stroke:none;fill-rule:nonzero;fill:rgb(0%,49.019608%,19.607843%);fill-opacity:1;" d="M 59.625 5.625 C 59.625 5.832031 59.625 6.039062 59.625 6.25 C 59.484375 6.246094 59.339844 6.238281 59.195312 6.234375 C 58.71875 6.234375 58.296875 6.300781 57.835938 6.414062 C 57.585938 6.480469 57.332031 6.535156 57.078125 6.589844 C 54.375 7.1875 51.496094 8.472656 49.535156 10.472656 C 49.25 10.75 49.25 10.75 49 10.75 C 48.96875 10.824219 48.933594 10.894531 48.902344 10.96875 C 48.742188 11.269531 48.558594 11.480469 48.328125 11.726562 C 48.039062 12.046875 47.804688 12.351562 47.601562 12.734375 C 47.359375 13.148438 47.292969 13.195312 46.875 13.375 C 46.792969 13.410156 46.710938 13.445312 46.628906 13.484375 C 46.355469 13.597656 46.078125 13.714844 45.804688 13.828125 C 45.660156 13.890625 45.660156 13.890625 45.515625 13.949219 C 45.421875 13.988281 45.328125 14.027344 45.234375 14.066406 C 45.109375 14.121094 45.109375 14.121094 44.980469 14.171875 C 44.75 14.25 44.75 14.25 44.375 14.25 C 44.269531 13.335938 44.265625 12.660156 44.820312 11.898438 C 45 11.679688 45.1875 11.464844 45.375 11.25 C 45.472656 11.121094 45.472656 11.121094 45.574219 10.992188 C 48.34375 7.5 53.3125 6.179688 57.515625 5.660156 C 58.21875 5.589844 58.917969 5.578125 59.625 5.625 Z M 59.625 5.625 "/>
<path style=" stroke:none;fill-rule:nonzero;fill:rgb(55.29412%,31.37255%,13.333334%);fill-opacity:1;" d="M 34.625 20 C 37.085938 20.277344 39.15625 21.675781 40.875 23.375 C 40.957031 23.449219 41.039062 23.519531 41.121094 23.59375 C 42.875 25.1875 44.140625 27.980469 44.269531 30.335938 C 44.269531 30.726562 44.273438 31.117188 44.273438 31.507812 C 44.273438 31.640625 44.277344 31.773438 44.277344 31.914062 C 44.28125 34.328125 43.546875 36.832031 41.96875 38.710938 C 41.703125 38.996094 41.703125 38.996094 41.757812 39.4375 C 41.75 39.875 41.75 39.875 41.476562 40.25 C 41.300781 40.375 41.300781 40.375 41.125 40.5 C 41.03125 40.472656 40.9375 40.445312 40.839844 40.414062 C 40.472656 40.335938 40.472656 40.335938 40.125 40.628906 C 39.988281 40.75 39.847656 40.871094 39.710938 40.992188 C 39.0625 41.535156 38.414062 41.96875 37.65625 42.34375 C 37.527344 42.410156 37.527344 42.410156 37.394531 42.476562 C 37.183594 42.574219 36.96875 42.664062 36.75 42.75 C 36.667969 42.707031 36.585938 42.667969 36.5 42.625 C 36.582031 42.578125 36.660156 42.53125 36.742188 42.480469 C 39.824219 40.605469 41.816406 37.871094 42.679688 34.367188 C 43.285156 31.277344 42.8125 28.34375 41.25 25.625 C 41.183594 25.503906 41.113281 25.378906 41.042969 25.253906 C 39.621094 22.84375 37.242188 21.054688 34.625 20.125 C 34.625 20.082031 34.625 20.042969 34.625 20 Z M 34.625 20 "/>
<path style=" stroke:none;fill-rule:nonzero;fill:rgb(97.254902%,69.01961%,0.784314%);fill-opacity:1;" d="M 19 27.875 C 18.957031 28 18.917969 28.121094 18.875 28.25 C 18.789062 28.261719 18.707031 28.273438 18.621094 28.285156 C 14.871094 28.796875 10.675781 29.691406 7.5625 32 C 7.375 32.125 7.375 32.125 7.125 32.125 C 7.125 32.207031 7.125 32.289062 7.125 32.375 C 7.25 32.421875 7.25 32.421875 7.378906 32.46875 C 7.734375 32.621094 8.078125 32.789062 8.421875 32.964844 C 11.230469 34.410156 14 35.074219 17.125 35.5 C 17.234375 35.515625 17.339844 35.53125 17.453125 35.546875 C 17.96875 35.617188 18.484375 35.683594 19 35.75 C 19.0625 35.625 19.0625 35.625 19.125 35.5 C 19.125 35.707031 19.125 35.914062 19.125 36.125 C 17.210938 36.171875 15.382812 36.125 13.5 35.75 C 13.410156 35.734375 13.320312 35.714844 13.226562 35.695312 C 10.355469 35.132812 7.539062 33.964844 5.25 32.125 C 5.671875 30.980469 7.8125 30.234375 8.871094 29.738281 C 12.035156 28.300781 15.550781 27.78125 19 27.875 Z M 19 27.875 "/>
<path style=" stroke:none;fill-rule:nonzero;fill:rgb(2.352941%,88.235295%,37.254903%);fill-opacity:1;" d="M 58.125 11.5 C 58.148438 11.753906 58.171875 12.003906 58.199219 12.257812 C 58.234375 12.527344 58.234375 12.527344 58.5 12.75 C 58.445312 13.007812 58.445312 13.007812 58.375 13.25 C 58.4375 13.3125 58.4375 13.3125 58.5 13.375 C 58.617188 14.144531 58.355469 14.664062 57.972656 15.328125 C 57.652344 15.757812 57.375 15.828125 56.875 16 C 56.8125 16.109375 56.75 16.214844 56.6875 16.328125 C 56.625 16.425781 56.5625 16.523438 56.5 16.625 C 56.363281 16.636719 56.226562 16.648438 56.085938 16.660156 C 55.589844 16.757812 55.464844 16.859375 55.179688 17.269531 C 55.132812 17.339844 55.085938 17.410156 55.039062 17.484375 C 54.414062 18.367188 53.703125 19.058594 52.875 19.75 C 52.792969 19.824219 52.710938 19.898438 52.625 19.972656 C 51.863281 20.5625 50.910156 20.429688 50 20.375 C 50.367188 19.46875 50.839844 19.0625 51.625 18.5 C 52.636719 17.703125 53.417969 16.730469 54.164062 15.6875 C 54.234375 15.589844 54.304688 15.496094 54.375 15.394531 C 54.890625 14.671875 55.371094 13.933594 55.8125 13.164062 C 56.324219 12.296875 57.070312 11.5 58.125 11.5 Z M 58.125 11.5 "/>
<path style=" stroke:none;fill-rule:nonzero;fill:rgb(98.039216%,69.411767%,0.784314%);fill-opacity:1;" d="M 31.875 6 C 32.167969 6.292969 32.457031 6.582031 32.75 6.875 C 32.707031 7.34375 32.441406 7.683594 32.1875 8.070312 C 30.160156 11.289062 29.125 15.074219 29.125 18.875 C 28.445312 19 28.445312 19 27.75 19.125 C 27.707031 17.453125 27.765625 15.886719 28.125 14.25 C 28.15625 14.097656 28.15625 14.097656 28.191406 13.941406 C 28.832031 11.046875 29.976562 8.296875 31.875 6 Z M 31.875 6 "/>
<path style=" stroke:none;fill-rule:nonzero;fill:rgb(92.54902%,55.29412%,1.176471%);fill-opacity:1;" d="M 26.5 44.875 C 26.507812 44.980469 26.519531 45.082031 26.527344 45.191406 C 26.738281 47.6875 26.738281 47.6875 27.179688 50.148438 C 27.257812 50.539062 27.296875 50.851562 27.25 51.25 C 27.007812 51.597656 27.007812 51.597656 26.695312 51.921875 C 26.59375 52.03125 26.488281 52.140625 26.382812 52.253906 C 26.125 52.5 26.125 52.5 26 52.5 C 25.980469 52.355469 25.980469 52.355469 25.960938 52.207031 C 25.820312 51.222656 25.667969 50.398438 24.929688 49.695312 C 24.226562 49.246094 23.433594 49.277344 22.625 49.375 C 22.199219 49.539062 21.816406 49.734375 21.421875 49.960938 C 21.125 50.125 21.125 50.125 20.875 50.125 C 20.816406 49.734375 20.796875 49.386719 20.875 49 C 21.144531 48.6875 21.476562 48.515625 21.835938 48.320312 C 22.03125 48.203125 22.226562 48.085938 22.421875 47.96875 C 22.523438 47.914062 22.621094 47.855469 22.71875 47.796875 C 23.773438 47.152344 24.710938 46.324219 25.609375 45.488281 C 26.292969 44.875 26.292969 44.875 26.5 44.875 Z M 26.5 44.875 "/>
<path style=" stroke:none;fill-rule:nonzero;fill:rgb(97.647059%,69.411767%,0.784314%);fill-opacity:1;" d="M 19.875 37.75 C 20.234375 38.085938 20.417969 38.429688 20.625 38.875 C 20.582031 38.925781 20.535156 38.972656 20.492188 39.023438 C 17.8125 42.03125 14.507812 45.941406 14.125 50.125 C 14.207031 50.167969 14.289062 50.207031 14.375 50.25 C 13.695312 50.3125 13.695312 50.3125 13 50.375 C 13.207031 45.5625 16.503906 40.96875 19.875 37.75 Z M 19.875 37.75 "/>
<path style=" stroke:none;fill-rule:nonzero;fill:rgb(92.941177%,55.29412%,1.176471%);fill-opacity:1;" d="M 26.5 11.625 C 26.792969 11.917969 27.082031 12.207031 27.375 12.5 C 27.359375 12.789062 27.359375 12.789062 27.289062 13.164062 C 27.265625 13.308594 27.238281 13.457031 27.214844 13.605469 C 27.199219 13.6875 27.183594 13.769531 27.171875 13.855469 C 27.085938 14.367188 27.011719 14.878906 26.9375 15.390625 C 26.914062 15.558594 26.914062 15.558594 26.890625 15.726562 C 26.730469 16.855469 26.609375 17.988281 26.5 19.125 C 26.050781 18.835938 25.644531 18.546875 25.257812 18.179688 C 24.148438 17.179688 22.90625 16.320312 21.632812 15.542969 C 21.375 15.375 21.375 15.375 21.125 15.125 C 21.101562 14.800781 21.101562 14.800781 21.109375 14.421875 C 21.113281 14.296875 21.113281 14.171875 21.117188 14.042969 C 21.117188 13.945312 21.121094 13.847656 21.125 13.75 C 21.390625 13.878906 21.652344 14.015625 21.910156 14.160156 C 22.867188 14.664062 23.800781 14.800781 24.875 14.625 C 25.613281 14.222656 25.945312 13.765625 26.25 13 C 26.363281 12.542969 26.441406 12.089844 26.5 11.625 Z M 26.5 11.625 "/>
<path style=" stroke:none;fill-rule:nonzero;fill:rgb(98.431373%,69.803923%,0.784314%);fill-opacity:1;" d="M 39 42.75 C 39.082031 42.832031 39.164062 42.914062 39.25 43 C 39.339844 43.085938 39.339844 43.085938 39.429688 43.175781 C 39.558594 43.308594 39.6875 43.445312 39.8125 43.582031 C 42.570312 46.511719 46.867188 48.875 50.875 49.375 C 50.875 49.664062 50.875 49.953125 50.875 50.25 C 50.035156 50.28125 49.308594 50.214844 48.5 50 C 48.292969 49.953125 48.292969 49.953125 48.082031 49.902344 C 46.863281 49.605469 45.753906 49.171875 44.625 48.625 C 44.546875 48.585938 44.46875 48.550781 44.390625 48.511719 C 42.039062 47.367188 39.550781 45.65625 37.875 43.625 C 37.875 43.542969 37.875 43.460938 37.875 43.375 C 38.246094 43.167969 38.617188 42.960938 39 42.75 Z M 39 42.75 "/>
<path style=" stroke:none;fill-rule:nonzero;fill:rgb(98.039216%,69.803923%,0.784314%);fill-opacity:1;" d="M 13 13.625 C 13.496094 13.667969 13.988281 13.707031 14.5 13.75 C 14.417969 13.832031 14.335938 13.914062 14.25 14 C 14.515625 18.085938 17.535156 22.242188 20.375 25 C 20.167969 25.328125 19.960938 25.660156 19.75 26 C 17.28125 24.035156 15.460938 21.261719 14.1875 18.40625 C 14.019531 18.042969 13.851562 17.703125 13.625 17.375 C 13.515625 17.335938 13.410156 17.296875 13.296875 17.257812 C 13.148438 17.191406 13.148438 17.191406 13 17.125 C 12.898438 16.734375 12.898438 16.734375 12.875 16.375 C 13 16.292969 13.121094 16.210938 13.25 16.125 C 13.238281 16.011719 13.238281 16.011719 13.226562 15.894531 C 13.152344 15.140625 13.074219 14.382812 13 13.625 Z M 13 13.625 "/>
<path style=" stroke:none;fill-rule:nonzero;fill:rgb(92.941177%,55.29412%,1.176471%);fill-opacity:1;" d="M 11.75 36.5 C 11.972656 36.523438 12.195312 36.558594 12.414062 36.59375 C 12.636719 36.628906 12.636719 36.628906 12.863281 36.664062 C 13.125 36.707031 13.386719 36.753906 13.652344 36.796875 C 15.351562 37.085938 17.027344 37.207031 18.75 37.25 C 18.320312 37.84375 17.878906 38.394531 17.367188 38.921875 C 16.539062 39.796875 15.859375 40.777344 15.171875 41.761719 C 15.085938 41.878906 15.085938 41.878906 15 42 C 14.9375 42.089844 14.875 42.183594 14.808594 42.277344 C 14.625 42.5 14.625 42.5 14.34375 42.546875 C 14.242188 42.542969 14.140625 42.539062 14.039062 42.53125 C 13.9375 42.527344 13.835938 42.523438 13.734375 42.515625 C 13.65625 42.511719 13.578125 42.507812 13.5 42.5 C 13.535156 42.421875 13.566406 42.339844 13.601562 42.257812 C 13.652344 42.132812 13.699219 42.003906 13.75 41.875 C 13.78125 41.800781 13.816406 41.726562 13.851562 41.648438 C 14.203125 40.765625 14.257812 39.8125 14.125 38.875 C 13.734375 38.191406 13.34375 37.75 12.59375 37.476562 C 12.0625 37.363281 11.539062 37.296875 11 37.25 C 11.25 37 11.5 36.75 11.75 36.5 Z M 11.75 36.5 "/>
<path style=" stroke:none;fill-rule:nonzero;fill:rgb(92.54902%,55.29412%,1.176471%);fill-opacity:1;" d="M 37.5 12 C 37.53125 12.121094 37.53125 12.121094 37.5625 12.246094 C 37.855469 13.289062 38.226562 13.976562 39.125 14.625 C 39.941406 15.03125 40.945312 15.019531 41.796875 14.734375 C 42.058594 14.625 42.316406 14.507812 42.574219 14.386719 C 42.875 14.25 42.875 14.25 43.125 14.25 C 43.199219 14.570312 43.199219 14.570312 43.125 15 C 42.761719 15.339844 42.339844 15.585938 41.914062 15.84375 C 41.671875 16 41.429688 16.152344 41.1875 16.308594 C 41.070312 16.382812 40.949219 16.460938 40.828125 16.535156 C 39.71875 17.257812 38.71875 18.113281 37.757812 19.019531 C 37.5 19.25 37.5 19.25 37.375 19.25 C 37.371094 19.144531 37.371094 19.144531 37.371094 19.039062 C 37.324219 17.496094 37.207031 15.988281 36.964844 14.460938 C 36.933594 14.265625 36.90625 14.070312 36.875 13.875 C 36.859375 13.773438 36.84375 13.671875 36.824219 13.566406 C 36.8125 13.464844 36.796875 13.367188 36.78125 13.265625 C 36.769531 13.175781 36.753906 13.089844 36.742188 12.996094 C 36.753906 12.679688 36.847656 12.546875 37.046875 12.304688 C 37.375 12 37.375 12 37.5 12 Z M 37.5 12 "/>
<path style=" stroke:none;fill-rule:nonzero;fill:rgb(98.039216%,69.411767%,0.784314%);fill-opacity:1;" d="M 50.875 13.625 C 50.910156 14.554688 50.910156 14.554688 50.625 15 C 50.503906 14.996094 50.382812 14.988281 50.257812 14.984375 C 49.6875 14.984375 49.171875 15.117188 48.625 15.265625 C 48.519531 15.292969 48.414062 15.324219 48.308594 15.351562 C 45.214844 16.214844 42.550781 17.824219 40.152344 19.933594 C 39.488281 20.511719 39.488281 20.511719 39.125 20.625 C 38.792969 20.507812 38.546875 20.320312 38.25 20.125 C 38.25 20.042969 38.25 19.960938 38.25 19.875 C 38.445312 19.699219 38.644531 19.53125 38.851562 19.367188 C 39.410156 18.921875 39.410156 18.921875 39.957031 18.46875 C 42.777344 16.085938 47.035156 13.472656 50.875 13.625 Z M 50.875 13.625 "/>
<path style=" stroke:none;fill-rule:nonzero;fill:rgb(91.764706%,55.29412%,1.568628%);fill-opacity:1;" d="M 10.625 21.125 C 11.128906 21.117188 11.636719 21.113281 12.140625 21.109375 C 12.355469 21.105469 12.355469 21.105469 12.574219 21.101562 C 12.710938 21.101562 12.851562 21.101562 12.992188 21.101562 C 13.183594 21.097656 13.183594 21.097656 13.378906 21.097656 C 13.886719 21.136719 14.328125 21.207031 14.699219 21.574219 C 14.75 21.648438 14.800781 21.726562 14.851562 21.808594 C 14.910156 21.894531 14.96875 21.980469 15.03125 22.070312 C 15.089844 22.164062 15.148438 22.253906 15.210938 22.351562 C 15.875 23.335938 16.589844 24.238281 17.375 25.125 C 17.484375 25.25 17.589844 25.371094 17.703125 25.5 C 18.167969 26.070312 18.167969 26.070312 18.75 26.5 C 18.75 26.582031 18.75 26.664062 18.75 26.75 C 18.597656 26.753906 18.445312 26.757812 18.289062 26.757812 C 16.378906 26.816406 14.394531 26.96875 12.542969 27.464844 C 12.445312 27.476562 12.347656 27.488281 12.25 27.5 C 11.898438 27.195312 11.898438 27.195312 11.625 26.875 C 11.707031 26.855469 11.785156 26.839844 11.867188 26.820312 C 12.835938 26.570312 13.507812 26.1875 14.054688 25.335938 C 14.289062 24.8125 14.308594 24.269531 14.320312 23.703125 C 14.324219 23.574219 14.324219 23.574219 14.332031 23.441406 C 14.324219 22.558594 14.070312 22.261719 13.625 21.375 C 12.636719 21.332031 11.644531 21.292969 10.625 21.25 C 10.625 21.207031 10.625 21.167969 10.625 21.125 Z M 10.625 21.125 "/>
<path style=" stroke:none;fill-rule:nonzero;fill:rgb(97.647059%,69.411767%,0.784314%);fill-opacity:1;" d="M 27.625 44.125 C 28.078125 44.207031 28.53125 44.289062 29 44.375 C 28.996094 44.550781 28.996094 44.730469 28.992188 44.910156 C 28.976562 46.300781 29.003906 47.628906 29.25 49 C 29.265625 49.09375 29.28125 49.1875 29.296875 49.28125 C 29.753906 52.007812 30.613281 55.238281 32.625 57.25 C 32.417969 57.496094 32.210938 57.746094 32 58 C 31.492188 57.53125 31.125 57.039062 30.765625 56.453125 C 30.710938 56.363281 30.65625 56.277344 30.601562 56.1875 C 28.429688 52.59375 27.5 48.296875 27.625 44.125 Z M 27.625 44.125 "/>
<path style=" stroke:none;fill-rule:nonzero;fill:rgb(92.54902%,54.901963%,1.176471%);fill-opacity:1;" d="M 37.375 44.75 C 37.789062 45.105469 38.207031 45.460938 38.617188 45.820312 C 39.777344 46.828125 41.011719 47.84375 42.367188 48.574219 C 42.625 48.75 42.625 48.75 42.714844 49.003906 C 42.726562 49.253906 42.738281 49.5 42.75 49.75 C 42.339844 49.617188 41.949219 49.476562 41.554688 49.296875 C 40.699219 48.976562 39.652344 48.949219 38.8125 49.328125 C 38 49.820312 37.679688 50.464844 37.363281 51.328125 C 37.257812 51.605469 37.136719 51.863281 37 52.125 C 36.8125 51.96875 36.8125 51.96875 36.625 51.75 C 36.644531 51.359375 36.683594 51.007812 36.75 50.625 C 36.777344 50.457031 36.777344 50.457031 36.804688 50.285156 C 36.847656 50.042969 36.890625 49.796875 36.933594 49.554688 C 37.210938 47.949219 37.34375 46.375 37.375 44.75 Z M 37.375 44.75 "/>
<path style=" stroke:none;fill-rule:nonzero;fill:rgb(92.156863%,54.901963%,1.176471%);fill-opacity:1;" d="M 51.875 36.75 C 52.226562 37.070312 52.226562 37.070312 52.5 37.375 C 52.355469 37.40625 52.355469 37.40625 52.207031 37.433594 C 51.082031 37.6875 50.15625 38 49.5 39 C 49.109375 40.171875 49.53125 41.164062 50 42.25 C 50.082031 42.457031 50.167969 42.667969 50.25 42.875 C 49.851562 42.863281 49.851562 42.863281 49.375 42.75 C 49.132812 42.46875 48.964844 42.230469 48.78125 41.914062 C 48.675781 41.742188 48.566406 41.570312 48.457031 41.398438 C 48.402344 41.308594 48.347656 41.222656 48.292969 41.132812 C 47.558594 40 46.648438 38.988281 45.722656 38.011719 C 45.261719 37.523438 45.261719 37.523438 45.125 37.25 C 45.222656 37.246094 45.320312 37.238281 45.417969 37.234375 C 47.964844 37.085938 47.964844 37.085938 50.488281 36.734375 C 50.984375 36.648438 51.394531 36.582031 51.875 36.75 Z M 51.875 36.75 "/>
<path style=" stroke:none;fill-rule:nonzero;fill:rgb(92.156863%,54.901963%,1.176471%);fill-opacity:1;" d="M 50.625 21.5 C 50.625 21.542969 50.625 21.582031 50.625 21.625 C 50.527344 21.636719 50.429688 21.644531 50.332031 21.65625 C 49.992188 21.71875 49.992188 21.71875 49.828125 21.96875 C 49.371094 23.113281 49.242188 24.414062 49.734375 25.570312 C 50.296875 26.53125 51.363281 26.914062 52.375 27.25 C 52.3125 27.375 52.3125 27.375 52.25 27.5 C 51.617188 27.519531 51.050781 27.453125 50.429688 27.328125 C 50.25 27.292969 50.074219 27.257812 49.894531 27.226562 C 49.808594 27.207031 49.71875 27.191406 49.628906 27.171875 C 48.132812 26.890625 46.644531 26.808594 45.125 26.75 C 45.535156 26.265625 45.949219 25.792969 46.390625 25.335938 C 47.480469 24.203125 48.378906 22.929688 49.25 21.625 C 49.691406 21.445312 50.15625 21.492188 50.625 21.5 Z M 50.625 21.5 "/>
<path style=" stroke:none;fill-rule:nonzero;fill:rgb(97.647059%,69.411767%,0.784314%);fill-opacity:1;" d="M 44.875 27.875 C 49.734375 27.785156 54.828125 28.832031 58.75 31.875 C 58.625 32 58.503906 32.121094 58.375 32.25 C 58.375 32.167969 58.375 32.085938 58.375 32 C 58.289062 31.96875 58.203125 31.933594 58.117188 31.898438 C 57.78125 31.761719 57.457031 31.613281 57.128906 31.453125 C 53.28125 29.605469 49.351562 29.140625 45.125 29.25 C 45.042969 28.796875 44.960938 28.34375 44.875 27.875 Z M 44.875 27.875 "/>
<path style=" stroke:none;fill-rule:nonzero;fill:rgb(2.352941%,87.058824%,36.862746%);fill-opacity:1;" d="M 19 50.125 C 17.070312 52.210938 14.667969 53.542969 12.03125 54.519531 C 11.84375 54.589844 11.65625 54.664062 11.46875 54.734375 C 11.085938 54.886719 10.789062 55 10.375 55 C 10.3125 54.332031 10.453125 54.019531 10.875 53.5 C 11.175781 53.296875 11.492188 53.152344 11.820312 53.007812 C 12 52.921875 12.179688 52.839844 12.359375 52.753906 C 12.492188 52.691406 12.492188 52.691406 12.625 52.625 C 13.320312 52.277344 13.96875 51.835938 14.589844 51.367188 C 15.097656 51.066406 15.578125 50.945312 16.148438 50.8125 C 16.957031 50.613281 17.734375 50.390625 18.507812 50.074219 C 18.75 50 18.75 50 19 50.125 Z M 19 50.125 "/>
<path style=" stroke:none;fill-rule:nonzero;fill:rgb(97.647059%,94.901961%,58.823532%);fill-opacity:1;" d="M 45.5 31.875 C 46.425781 32.707031 46.496094 34.085938 46.625 35.25 C 49.566406 35.066406 52.46875 34.625 55.257812 33.65625 C 55.644531 33.523438 55.964844 33.460938 56.375 33.5 C 56.109375 33.792969 55.875 33.953125 55.515625 34.109375 C 55.417969 34.148438 55.324219 34.191406 55.226562 34.230469 C 55.070312 34.296875 55.070312 34.296875 54.914062 34.359375 C 54.808594 34.402344 54.699219 34.449219 54.589844 34.492188 C 54.269531 34.621094 53.945312 34.75 53.625 34.875 C 53.542969 34.90625 53.460938 34.9375 53.375 34.972656 C 50.589844 36.023438 47.574219 36.242188 44.625 36.125 C 44.65625 36.003906 44.691406 35.878906 44.726562 35.753906 C 45 34.714844 45.203125 33.695312 45.324219 32.625 C 45.375 32.25 45.375 32.25 45.5 31.875 Z M 45.5 31.875 "/>
<path style=" stroke:none;fill-rule:nonzero;fill:rgb(97.647059%,94.901961%,58.823532%);fill-opacity:1;" d="M 43.875 37.75 C 45.128906 38.796875 46.144531 39.949219 47.125 41.25 C 47.242188 41.40625 47.242188 41.40625 47.363281 41.566406 C 50 45.203125 50 45.203125 50 46.625 C 49.601562 46.589844 49.417969 46.546875 49.140625 46.25 C 48.804688 45.777344 48.554688 45.277344 48.296875 44.757812 C 47.742188 43.679688 47.117188 42.707031 46.375 41.75 C 46.285156 41.636719 46.199219 41.519531 46.109375 41.402344 C 45.296875 40.382812 44.394531 39.445312 43.5 38.5 C 43.734375 37.890625 43.734375 37.890625 43.875 37.75 Z M 43.875 37.75 "/>
<path style=" stroke:none;fill-rule:nonzero;fill:rgb(96.862745%,94.117647%,58.431375%);fill-opacity:1;" d="M 34.25 9.875 C 34.332031 9.875 34.414062 9.875 34.5 9.875 C 35.789062 12.878906 36.34375 15.855469 36.25 19.125 C 35.960938 19.082031 35.671875 19.042969 35.375 19 C 35.277344 18.5625 35.226562 18.140625 35.199219 17.695312 C 35.117188 16.34375 35.015625 15.011719 34.757812 13.679688 C 34.738281 13.578125 34.71875 13.472656 34.699219 13.367188 C 34.59375 12.867188 34.46875 12.390625 34.296875 11.90625 C 34.15625 11.492188 34.078125 11.140625 34.09375 10.695312 C 34.09375 10.59375 34.097656 10.488281 34.101562 10.382812 C 34.125 10.125 34.125 10.125 34.25 9.875 Z M 34.25 9.875 "/>
<path style=" stroke:none;fill-rule:nonzero;fill:rgb(54.901963%,30.980393%,13.333334%);fill-opacity:1;" d="M 29 24.125 C 29.363281 24.289062 29.621094 24.464844 29.90625 24.746094 C 29.976562 24.816406 30.046875 24.890625 30.121094 24.960938 C 30.195312 25.035156 30.269531 25.109375 30.34375 25.1875 C 30.417969 25.261719 30.496094 25.335938 30.570312 25.414062 C 30.644531 25.484375 30.714844 25.554688 30.789062 25.628906 C 30.851562 25.695312 30.917969 25.757812 30.984375 25.828125 C 31.125 26 31.125 26 31.125 26.25 C 30.9375 26.433594 30.9375 26.433594 30.679688 26.648438 C 30.175781 27.074219 29.710938 27.527344 29.25 28 C 28.746094 27.800781 28.414062 27.4375 28.046875 27.054688 C 27.628906 26.597656 27.628906 26.597656 27.125 26.25 C 27.289062 25.882812 27.46875 25.625 27.753906 25.34375 C 27.828125 25.273438 27.898438 25.203125 27.976562 25.128906 C 28.050781 25.054688 28.125 24.980469 28.203125 24.90625 C 28.28125 24.832031 28.355469 24.753906 28.433594 24.679688 C 28.621094 24.492188 28.8125 24.308594 29 24.125 Z M 29 24.125 "/>
<path style=" stroke:none;fill-rule:nonzero;fill:rgb(55.29412%,31.37255%,13.333334%);fill-opacity:1;" d="M 34.625 35.375 C 34.992188 35.539062 35.25 35.71875 35.53125 36.003906 C 35.601562 36.078125 35.671875 36.148438 35.746094 36.226562 C 35.820312 36.300781 35.894531 36.375 35.96875 36.453125 C 36.042969 36.53125 36.121094 36.605469 36.195312 36.683594 C 36.382812 36.871094 36.566406 37.0625 36.75 37.25 C 36.164062 37.957031 35.53125 38.605469 34.875 39.25 C 34.507812 39.085938 34.25 38.90625 33.96875 38.621094 C 33.898438 38.546875 33.828125 38.476562 33.753906 38.398438 C 33.679688 38.324219 33.605469 38.25 33.53125 38.171875 C 33.457031 38.09375 33.378906 38.019531 33.304688 37.941406 C 33.117188 37.753906 32.933594 37.5625 32.75 37.375 C 33.335938 36.667969 33.96875 36.019531 34.625 35.375 Z M 34.625 35.375 "/>
<path style=" stroke:none;fill-rule:nonzero;fill:rgb(55.29412%,31.37255%,13.333334%);fill-opacity:1;" d="M 29 35.375 C 29.367188 35.539062 29.625 35.71875 29.90625 36.003906 C 29.976562 36.078125 30.046875 36.148438 30.121094 36.226562 C 30.195312 36.300781 30.269531 36.375 30.34375 36.453125 C 30.417969 36.53125 30.496094 36.605469 30.570312 36.683594 C 30.757812 36.871094 30.941406 37.0625 31.125 37.25 C 30.539062 37.957031 29.90625 38.605469 29.25 39.25 C 28.882812 39.085938 28.625 38.90625 28.34375 38.621094 C 28.273438 38.546875 28.203125 38.476562 28.128906 38.398438 C 28.054688 38.324219 27.980469 38.25 27.90625 38.171875 C 27.832031 38.09375 27.753906 38.019531 27.679688 37.941406 C 27.492188 37.753906 27.308594 37.5625 27.125 37.375 C 27.710938 36.667969 28.34375 36.019531 29 35.375 Z M 29 35.375 "/>
<path style=" stroke:none;fill-rule:nonzero;fill:rgb(55.29412%,31.37255%,13.333334%);fill-opacity:1;" d="M 37.5 32.5 C 38.207031 33.085938 38.855469 33.71875 39.5 34.375 C 39.335938 34.742188 39.15625 35 38.871094 35.28125 C 38.796875 35.351562 38.726562 35.421875 38.648438 35.496094 C 38.574219 35.570312 38.5 35.644531 38.421875 35.71875 C 38.34375 35.792969 38.269531 35.871094 38.191406 35.945312 C 38.003906 36.132812 37.8125 36.316406 37.625 36.5 C 36.917969 35.914062 36.269531 35.28125 35.625 34.625 C 35.789062 34.257812 35.96875 34 36.253906 33.71875 C 36.328125 33.648438 36.398438 33.578125 36.476562 33.503906 C 36.550781 33.429688 36.625 33.355469 36.703125 33.28125 C 36.78125 33.207031 36.855469 33.128906 36.933594 33.054688 C 37.121094 32.867188 37.3125 32.683594 37.5 32.5 Z M 37.5 32.5 "/>
<path style=" stroke:none;fill-rule:nonzero;fill:rgb(55.29412%,31.37255%,13.333334%);fill-opacity:1;" d="M 31.875 32.5 C 32.582031 33.085938 33.230469 33.71875 33.875 34.375 C 33.710938 34.742188 33.53125 35 33.246094 35.28125 C 33.171875 35.351562 33.101562 35.421875 33.023438 35.496094 C 32.949219 35.570312 32.875 35.644531 32.796875 35.71875 C 32.71875 35.792969 32.644531 35.871094 32.566406 35.945312 C 32.378906 36.132812 32.1875 36.316406 32 36.5 C 31.292969 35.914062 30.644531 35.28125 30 34.625 C 30.164062 34.257812 30.34375 34 30.628906 33.71875 C 30.703125 33.648438 30.773438 33.578125 30.851562 33.503906 C 30.925781 33.429688 31 33.355469 31.078125 33.28125 C 31.15625 33.207031 31.230469 33.128906 31.308594 33.054688 C 31.496094 32.867188 31.6875 32.683594 31.875 32.5 Z M 31.875 32.5 "/>
<path style=" stroke:none;fill-rule:nonzero;fill:rgb(55.29412%,31.37255%,13.333334%);fill-opacity:1;" d="M 26.25 32.5 C 26.957031 33.085938 27.605469 33.71875 28.25 34.375 C 28.085938 34.742188 27.90625 35 27.621094 35.28125 C 27.546875 35.351562 27.476562 35.421875 27.398438 35.496094 C 27.324219 35.570312 27.25 35.644531 27.171875 35.71875 C 27.09375 35.792969 27.019531 35.871094 26.941406 35.945312 C 26.753906 36.132812 26.5625 36.316406 26.375 36.5 C 25.667969 35.914062 25.019531 35.28125 24.375 34.625 C 24.539062 34.257812 24.71875 34 25.003906 33.71875 C 25.078125 33.648438 25.148438 33.578125 25.226562 33.503906 C 25.300781 33.429688 25.375 33.355469 25.453125 33.28125 C 25.53125 33.207031 25.605469 33.128906 25.683594 33.054688 C 25.871094 32.867188 26.0625 32.683594 26.25 32.5 Z M 26.25 32.5 "/>
<path style=" stroke:none;fill-rule:nonzero;fill:rgb(55.29412%,31.37255%,13.333334%);fill-opacity:1;" d="M 34.625 29.75 C 34.992188 29.914062 35.25 30.09375 35.53125 30.378906 C 35.601562 30.453125 35.671875 30.523438 35.746094 30.601562 C 35.820312 30.675781 35.894531 30.75 35.96875 30.828125 C 36.042969 30.90625 36.121094 30.980469 36.195312 31.058594 C 36.382812 31.246094 36.566406 31.4375 36.75 31.625 C 36.164062 32.332031 35.53125 32.980469 34.875 33.625 C 34.507812 33.460938 34.25 33.28125 33.96875 32.996094 C 33.898438 32.921875 33.828125 32.851562 33.753906 32.773438 C 33.679688 32.699219 33.605469 32.625 33.53125 32.546875 C 33.457031 32.46875 33.378906 32.394531 33.304688 32.316406 C 33.117188 32.128906 32.933594 31.9375 32.75 31.75 C 33.335938 31.042969 33.96875 30.394531 34.625 29.75 Z M 34.625 29.75 "/>
<path style=" stroke:none;fill-rule:nonzero;fill:rgb(55.29412%,31.37255%,13.333334%);fill-opacity:1;" d="M 29 29.75 C 29.367188 29.914062 29.625 30.09375 29.90625 30.378906 C 29.976562 30.453125 30.046875 30.523438 30.121094 30.601562 C 30.195312 30.675781 30.269531 30.75 30.34375 30.828125 C 30.417969 30.90625 30.496094 30.980469 30.570312 31.058594 C 30.757812 31.246094 30.941406 31.4375 31.125 31.625 C 30.539062 32.332031 29.90625 32.980469 29.25 33.625 C 28.882812 33.460938 28.625 33.28125 28.34375 32.996094 C 28.273438 32.921875 28.203125 32.851562 28.128906 32.773438 C 28.054688 32.699219 27.980469 32.625 27.90625 32.546875 C 27.832031 32.46875 27.753906 32.394531 27.679688 32.316406 C 27.492188 32.128906 27.308594 31.9375 27.125 31.75 C 27.710938 31.042969 28.34375 30.394531 29 29.75 Z M 29 29.75 "/>
<path style=" stroke:none;fill-rule:nonzero;fill:rgb(54.901963%,31.37255%,13.333334%);fill-opacity:1;" d="M 37.621094 27.019531 C 37.910156 27.140625 38.0625 27.269531 38.28125 27.492188 C 38.351562 27.566406 38.421875 27.636719 38.496094 27.714844 C 38.570312 27.789062 38.644531 27.867188 38.71875 27.945312 C 38.792969 28.023438 38.871094 28.097656 38.945312 28.179688 C 39.132812 28.367188 39.316406 28.558594 39.5 28.75 C 39.335938 29.113281 39.160156 29.371094 38.878906 29.652344 C 38.808594 29.726562 38.734375 29.796875 38.664062 29.871094 C 38.589844 29.945312 38.515625 30.019531 38.4375 30.09375 C 38.363281 30.167969 38.289062 30.246094 38.210938 30.320312 C 38.140625 30.394531 38.070312 30.464844 37.996094 30.535156 C 37.929688 30.601562 37.867188 30.667969 37.796875 30.734375 C 37.625 30.875 37.625 30.875 37.375 30.875 C 37.191406 30.6875 37.191406 30.6875 36.976562 30.429688 C 36.550781 29.925781 36.097656 29.460938 35.625 29 C 35.835938 28.46875 36.214844 28.109375 36.609375 27.710938 C 36.675781 27.640625 36.742188 27.570312 36.808594 27.496094 C 37.308594 26.996094 37.308594 26.996094 37.621094 27.019531 Z M 37.621094 27.019531 "/>
<path style=" stroke:none;fill-rule:nonzero;fill:rgb(55.29412%,31.37255%,13.333334%);fill-opacity:1;" d="M 31.875 26.875 C 32.582031 27.460938 33.230469 28.09375 33.875 28.75 C 33.710938 29.117188 33.53125 29.375 33.246094 29.65625 C 33.171875 29.726562 33.101562 29.796875 33.023438 29.871094 C 32.949219 29.945312 32.875 30.019531 32.796875 30.09375 C 32.71875 30.167969 32.644531 30.246094 32.566406 30.320312 C 32.378906 30.507812 32.1875 30.691406 32 30.875 C 31.292969 30.289062 30.644531 29.65625 30 29 C 30.164062 28.632812 30.34375 28.375 30.628906 28.09375 C 30.703125 28.023438 30.773438 27.953125 30.851562 27.878906 C 30.925781 27.804688 31 27.730469 31.078125 27.65625 C 31.15625 27.582031 31.230469 27.503906 31.308594 27.429688 C 31.496094 27.242188 31.6875 27.058594 31.875 26.875 Z M 31.875 26.875 "/>
<path style=" stroke:none;fill-rule:nonzero;fill:rgb(54.901963%,31.37255%,13.333334%);fill-opacity:1;" d="M 34.625 24.125 C 35.15625 24.335938 35.515625 24.714844 35.914062 25.109375 C 35.984375 25.175781 36.054688 25.242188 36.128906 25.308594 C 36.328125 25.507812 36.328125 25.507812 36.625 25.875 C 36.589844 26.289062 36.425781 26.496094 36.132812 26.78125 C 36.058594 26.851562 35.988281 26.921875 35.910156 26.996094 C 35.835938 27.070312 35.757812 27.144531 35.679688 27.21875 C 35.601562 27.292969 35.527344 27.371094 35.445312 27.445312 C 35.257812 27.632812 35.066406 27.816406 34.875 28 C 34.378906 27.773438 34.046875 27.445312 33.671875 27.054688 C 33.253906 26.597656 33.253906 26.597656 32.75 26.25 C 32.914062 25.882812 33.09375 25.625 33.378906 25.34375 C 33.453125 25.273438 33.523438 25.203125 33.601562 25.128906 C 33.675781 25.054688 33.75 24.980469 33.828125 24.90625 C 33.90625 24.832031 33.980469 24.753906 34.058594 24.679688 C 34.246094 24.492188 34.4375 24.308594 34.625 24.125 Z M 34.625 24.125 "/>
<path style=" stroke:none;fill-rule:nonzero;fill:rgb(54.901963%,31.37255%,13.333334%);fill-opacity:1;" d="M 26.371094 27.019531 C 26.660156 27.140625 26.8125 27.269531 27.03125 27.492188 C 27.101562 27.566406 27.171875 27.636719 27.246094 27.714844 C 27.320312 27.789062 27.394531 27.867188 27.46875 27.945312 C 27.542969 28.023438 27.621094 28.097656 27.695312 28.179688 C 27.882812 28.367188 28.066406 28.558594 28.25 28.75 C 28.085938 29.117188 27.90625 29.375 27.621094 29.652344 C 27.546875 29.726562 27.476562 29.796875 27.402344 29.871094 C 27.324219 29.945312 27.25 30.019531 27.171875 30.09375 C 27.09375 30.167969 27.019531 30.246094 26.941406 30.320312 C 26.753906 30.507812 26.5625 30.691406 26.375 30.875 C 25.667969 30.289062 25.019531 29.65625 24.375 29 C 24.585938 28.46875 24.964844 28.109375 25.359375 27.710938 C 25.425781 27.640625 25.492188 27.570312 25.558594 27.496094 C 26.058594 26.996094 26.058594 26.996094 26.371094 27.019531 Z M 26.371094 27.019531 "/>
<path style=" stroke:none;fill-rule:nonzero;fill:rgb(97.647059%,94.901961%,58.823532%);fill-opacity:1;" d="M 17.5 14.75 C 20.261719 15.539062 22.679688 17.351562 24.84375 19.179688 C 24.921875 19.246094 25 19.308594 25.078125 19.375 C 25.265625 19.539062 25.445312 19.707031 25.625 19.875 C 25.625 19.957031 25.625 20.039062 25.625 20.125 C 25.199219 20.382812 25.199219 20.382812 24.886719 20.34375 C 24.566406 20.230469 24.40625 20.074219 24.164062 19.835938 C 22.703125 18.496094 20.960938 17.441406 19.246094 16.460938 C 19.117188 16.386719 19.117188 16.386719 18.988281 16.3125 C 18.824219 16.214844 18.65625 16.121094 18.492188 16.027344 C 18.011719 15.75 17.730469 15.507812 17.5 15 C 17.5 14.917969 17.5 14.835938 17.5 14.75 Z M 17.5 14.75 "/>
<path style=" stroke:none;fill-rule:nonzero;fill:rgb(0%,0%,0%);fill-opacity:1;" d="M 14.226562 5.210938 C 14.730469 5.261719 14.828125 5.382812 15.148438 5.765625 C 15.292969 5.9375 15.292969 5.9375 15.4375 6.109375 C 15.59375 6.304688 15.59375 6.304688 15.75 6.5 C 15.835938 6.605469 15.835938 6.605469 15.921875 6.710938 C 16.21875 7.082031 16.511719 7.457031 16.800781 7.832031 C 16.996094 8.089844 17.199219 8.335938 17.40625 8.585938 C 17.980469 9.273438 17.980469 9.273438 18.078125 9.804688 C 18 10.125 18 10.125 17.625 10.375 C 17.222656 10.355469 17.042969 10.285156 16.738281 10.023438 C 16.054688 9.226562 15.402344 8.414062 14.777344 7.578125 C 14.628906 7.378906 14.472656 7.183594 14.320312 6.988281 C 14.226562 6.867188 14.132812 6.75 14.039062 6.625 C 13.957031 6.519531 13.875 6.414062 13.789062 6.304688 C 13.625 6 13.625 6 13.652344 5.65625 C 13.789062 5.253906 13.792969 5.257812 14.226562 5.210938 Z M 14.226562 5.210938 "/>
<path style=" stroke:none;fill-rule:nonzero;fill:rgb(42.352942%,21.960784%,8.235294%);fill-opacity:1;" d="M 23.375 29.75 C 23.742188 29.914062 24 30.09375 24.28125 30.378906 C 24.351562 30.453125 24.421875 30.523438 24.496094 30.601562 C 24.570312 30.675781 24.644531 30.75 24.71875 30.828125 C 24.792969 30.90625 24.871094 30.980469 24.945312 31.058594 C 25.132812 31.246094 25.316406 31.4375 25.5 31.625 C 25.320312 31.835938 25.136719 32.046875 24.957031 32.257812 C 24.773438 32.472656 24.597656 32.6875 24.421875 32.90625 C 24.167969 33.199219 23.945312 33.414062 23.625 33.625 C 23.046875 33.355469 22.597656 33.042969 22.25 32.5 C 22.121094 31.972656 22.125 31.527344 22.25 31 C 22.492188 30.601562 22.777344 30.304688 23.125 30 C 23.207031 29.917969 23.289062 29.835938 23.375 29.75 Z M 23.375 29.75 "/>
<path style=" stroke:none;fill-rule:nonzero;fill:rgb(87.450981%,60.000002%,41.960785%);fill-opacity:1;" d="M 40.25 29.75 C 40.867188 30.023438 41.277344 30.421875 41.625 31 C 41.75 31.488281 41.75 31.886719 41.625 32.375 C 41.265625 32.976562 40.875 33.3125 40.25 33.625 C 39.632812 33.007812 39.011719 32.386719 38.375 31.75 C 38.824219 31.226562 39.246094 30.738281 39.734375 30.257812 C 39.832031 30.160156 39.929688 30.066406 40.03125 29.964844 C 40.101562 29.894531 40.175781 29.824219 40.25 29.75 Z M 40.25 29.75 "/>
<path style=" stroke:none;fill-rule:nonzero;fill:rgb(97.647059%,94.901961%,57.647061%);fill-opacity:1;" d="M 36.25 44.125 C 36.296875 45.894531 36.230469 47.589844 35.925781 49.335938 C 35.878906 49.59375 35.839844 49.855469 35.800781 50.113281 C 35.527344 51.765625 34.902344 53.394531 34.125 54.875 C 34.042969 54.875 33.960938 54.875 33.875 54.875 C 33.824219 54.378906 33.898438 54.035156 34.09375 53.585938 C 35.175781 50.996094 35.367188 47.917969 35.539062 45.148438 C 35.546875 45.03125 35.554688 44.914062 35.5625 44.796875 C 35.570312 44.691406 35.574219 44.589844 35.582031 44.484375 C 35.597656 44.40625 35.609375 44.328125 35.625 44.25 C 35.875 44.125 35.875 44.125 36.25 44.125 Z M 36.25 44.125 "/>
<path style=" stroke:none;fill-rule:nonzero;fill:rgb(55.29412%,31.37255%,13.333334%);fill-opacity:1;" d="M 31.929688 22.289062 C 32.035156 22.285156 32.136719 22.28125 32.246094 22.277344 C 32.828125 22.28125 33.15625 22.335938 33.574219 22.753906 C 33.722656 22.9375 33.722656 22.9375 33.875 23.125 C 33.710938 23.492188 33.53125 23.75 33.246094 24.03125 C 33.136719 24.136719 33.136719 24.136719 33.023438 24.246094 C 32.949219 24.320312 32.875 24.394531 32.796875 24.46875 C 32.71875 24.542969 32.644531 24.621094 32.566406 24.695312 C 32.378906 24.882812 32.1875 25.066406 32 25.25 C 31.449219 24.789062 30.933594 24.316406 30.433594 23.800781 C 30.253906 23.613281 30.253906 23.613281 30 23.5 C 30.039062 23.140625 30.148438 22.96875 30.371094 22.675781 C 30.894531 22.261719 31.28125 22.277344 31.929688 22.289062 Z M 31.929688 22.289062 "/>
<path style=" stroke:none;fill-rule:nonzero;fill:rgb(55.29412%,31.37255%,13.333334%);fill-opacity:1;" d="M 31.875 38.125 C 32.582031 38.710938 33.230469 39.34375 33.875 40 C 33.691406 40.429688 33.503906 40.722656 33.125 41 C 32.734375 41.082031 32.351562 41.082031 31.953125 41.078125 C 31.847656 41.082031 31.742188 41.085938 31.636719 41.089844 C 31.195312 41.089844 30.875 41.089844 30.507812 40.828125 C 30.300781 40.621094 30.300781 40.621094 30 40.25 C 30.164062 39.882812 30.34375 39.625 30.628906 39.34375 C 30.703125 39.273438 30.773438 39.203125 30.851562 39.128906 C 30.925781 39.054688 31 38.980469 31.078125 38.90625 C 31.15625 38.832031 31.230469 38.753906 31.308594 38.679688 C 31.496094 38.492188 31.6875 38.308594 31.875 38.125 Z M 31.875 38.125 "/>
<path style=" stroke:none;fill-rule:nonzero;fill:rgb(97.254902%,94.509804%,58.823532%);fill-opacity:1;" d="M 25.375 43.125 C 25.621094 43.25 25.871094 43.371094 26.125 43.5 C 24.203125 45.878906 21.488281 47.582031 18.75 48.875 C 18.707031 48.710938 18.667969 48.546875 18.625 48.375 C 19.191406 47.914062 19.761719 47.484375 20.382812 47.101562 C 22.171875 45.984375 23.898438 44.632812 25.375 43.125 Z M 25.375 43.125 "/>
<path style=" stroke:none;fill-rule:nonzero;fill:rgb(0%,0%,0%);fill-opacity:1;" d="M 49.46875 55.4375 C 50.035156 55.527344 50.257812 55.84375 50.59375 56.273438 C 50.65625 56.351562 50.722656 56.429688 50.789062 56.511719 C 50.984375 56.753906 51.179688 57.003906 51.375 57.25 C 51.5 57.402344 51.621094 57.558594 51.746094 57.710938 C 52.710938 58.925781 52.710938 58.925781 52.75 59.375 C 52.609375 59.65625 52.609375 59.65625 52.375 59.875 C 52.082031 59.921875 52.082031 59.921875 51.75 59.875 C 51.476562 59.644531 51.476562 59.644531 51.210938 59.328125 C 51.066406 59.15625 51.066406 59.15625 50.917969 58.984375 C 50.820312 58.863281 50.722656 58.746094 50.625 58.625 C 50.535156 58.515625 50.449219 58.410156 50.355469 58.296875 C 50.109375 57.992188 49.867188 57.683594 49.625 57.375 C 49.550781 57.28125 49.472656 57.191406 49.394531 57.097656 C 49.328125 57.011719 49.257812 56.925781 49.1875 56.835938 C 49.125 56.761719 49.066406 56.6875 49.003906 56.609375 C 48.835938 56.304688 48.835938 56.09375 48.875 55.75 C 49.125 55.5 49.125 55.5 49.46875 55.4375 Z M 49.46875 55.4375 "/>
<path style=" stroke:none;fill-rule:nonzero;fill:rgb(0%,0%,0%);fill-opacity:1;" d="M 49.46875 -0.0703125 C 49.875 0 49.875 0 50 0.125 C 50.050781 0.785156 49.960938 1.179688 49.628906 1.75 C 49.554688 1.886719 49.476562 2.023438 49.394531 2.164062 C 49.316406 2.304688 49.234375 2.441406 49.148438 2.585938 C 49.027344 2.796875 49.027344 2.796875 48.90625 3.011719 C 48.171875 4.289062 48.171875 4.289062 47.875 4.625 C 47.492188 4.671875 47.492188 4.671875 47.125 4.625 C 46.875 4.375 46.875 4.375 46.816406 4.066406 C 46.90625 3.398438 47.242188 2.898438 47.585938 2.328125 C 47.652344 2.214844 47.71875 2.101562 47.785156 1.984375 C 47.917969 1.761719 48.050781 1.539062 48.183594 1.316406 C 48.308594 1.109375 48.429688 0.90625 48.546875 0.695312 C 48.625 0.558594 48.625 0.558594 48.707031 0.421875 C 48.753906 0.339844 48.796875 0.261719 48.84375 0.179688 C 49 0 49 0 49.46875 -0.0703125 Z M 49.46875 -0.0703125 "/>
<path style=" stroke:none;fill-rule:nonzero;fill:rgb(0%,0%,0%);fill-opacity:1;" d="M 62.375 25 C 62.625 25.375 62.625 25.375 62.578125 25.773438 C 62.550781 25.890625 62.527344 26.003906 62.5 26.125 C 62.0625 26.265625 61.625 26.40625 61.1875 26.546875 C 61.066406 26.585938 60.941406 26.625 60.816406 26.667969 C 58.726562 27.335938 58.726562 27.335938 57.875 27.25 C 57.625 26.875 57.625 26.875 57.625 26.5625 C 57.769531 26.199219 57.894531 26.136719 58.238281 25.976562 C 58.832031 25.746094 59.449219 25.582031 60.0625 25.414062 C 60.203125 25.375 60.339844 25.332031 60.484375 25.292969 C 60.621094 25.253906 60.753906 25.21875 60.894531 25.179688 C 61.078125 25.125 61.078125 25.125 61.265625 25.074219 C 61.652344 24.996094 61.980469 24.960938 62.375 25 Z M 62.375 25 "/>
<path style=" stroke:none;fill-rule:nonzero;fill:rgb(0%,0%,0%);fill-opacity:1;" d="M 4.25 13 C 4.515625 13.226562 4.75 13.472656 4.992188 13.726562 C 5.234375 13.984375 5.488281 14.21875 5.757812 14.453125 C 5.839844 14.523438 5.921875 14.59375 6.003906 14.667969 C 6.167969 14.804688 6.335938 14.941406 6.507812 15.070312 C 7.109375 15.535156 7.109375 15.535156 7.195312 16.03125 C 7.125 16.375 7.125 16.375 6.875 16.625 C 6.542969 16.691406 6.542969 16.691406 6.125 16.625 C 5.78125 16.390625 5.496094 16.101562 5.203125 15.804688 C 5.039062 15.644531 4.871094 15.484375 4.707031 15.320312 C 4.628906 15.246094 4.550781 15.167969 4.46875 15.085938 C 4.128906 14.757812 3.773438 14.449219 3.414062 14.140625 C 3.25 14 3.25 14 3.125 13.875 C 3.164062 13.4375 3.164062 13.4375 3.25 13 C 3.644531 12.804688 3.828125 12.867188 4.25 13 Z M 4.25 13 "/>
<path style=" stroke:none;fill-rule:nonzero;fill:rgb(97.254902%,94.509804%,58.431375%);fill-opacity:1;" d="M 50.125 16.875 C 50.25 17.125 50.25 17.125 50.179688 17.363281 C 50.136719 17.460938 50.097656 17.558594 50.054688 17.65625 C 50.011719 17.765625 49.964844 17.875 49.917969 17.984375 C 49.867188 18.101562 49.816406 18.214844 49.765625 18.335938 C 49.714844 18.453125 49.664062 18.574219 49.609375 18.695312 C 48.359375 21.515625 46.441406 23.855469 44.25 26 C 44.125 25.875 44.003906 25.753906 43.875 25.625 C 44.066406 25.167969 44.339844 24.894531 44.695312 24.554688 C 46.726562 22.558594 48.269531 20.109375 49.554688 17.582031 C 49.847656 17.011719 49.847656 17.011719 50.125 16.875 Z M 50.125 16.875 "/>
<path style=" stroke:none;fill-rule:nonzero;fill:rgb(0%,0%,0%);fill-opacity:1;" d="M 59.75 47.5 C 60.117188 47.710938 60.441406 47.964844 60.773438 48.226562 C 60.859375 48.292969 60.949219 48.359375 61.039062 48.429688 C 61.921875 49.113281 61.921875 49.113281 62.25 49.5 C 62.230469 49.925781 62.175781 50.074219 61.875 50.375 C 61.078125 50.390625 60.511719 49.863281 59.90625 49.40625 C 59.796875 49.328125 59.691406 49.25 59.578125 49.171875 C 59.425781 49.054688 59.425781 49.054688 59.265625 48.9375 C 59.175781 48.871094 59.082031 48.800781 58.984375 48.730469 C 58.707031 48.460938 58.601562 48.246094 58.5 47.875 C 58.542969 47.75 58.582031 47.628906 58.625 47.5 C 59.035156 47.296875 59.3125 47.394531 59.75 47.5 Z M 59.75 47.5 "/>
<path style=" stroke:none;fill-rule:nonzero;fill:rgb(97.254902%,88.235295%,47.058824%);fill-opacity:1;" d="M 21.875 8 C 22.523438 8.175781 22.984375 8.46875 23.515625 8.859375 C 23.589844 8.914062 23.667969 8.96875 23.746094 9.023438 C 24.15625 9.320312 24.542969 9.617188 24.875 10 C 24.875 10.082031 24.875 10.164062 24.875 10.25 C 23.804688 10.5625 22.785156 10.402344 21.761719 10.019531 C 21.5 9.875 21.5 9.875 21.375 9.5 C 21.410156 9.230469 21.410156 9.230469 21.476562 8.9375 C 21.496094 8.839844 21.519531 8.742188 21.542969 8.644531 C 21.625 8.375 21.625 8.375 21.875 8 Z M 21.875 8 "/>
<path style=" stroke:none;fill-rule:nonzero;fill:rgb(0%,0%,0%);fill-opacity:1;" d="M 15.460938 59.84375 C 15.75 60 15.75 60 15.875 60.125 C 15.84375 60.933594 15.519531 61.492188 15.101562 62.171875 C 15.042969 62.273438 14.984375 62.375 14.921875 62.480469 C 14.476562 63.214844 14.476562 63.214844 13.96875 63.386719 C 13.625 63.375 13.625 63.375 13.382812 63.242188 C 13.179688 62.871094 13.269531 62.660156 13.375 62.25 C 13.550781 61.875 13.761719 61.519531 13.976562 61.164062 C 14.03125 61.070312 14.085938 60.972656 14.144531 60.875 C 14.855469 59.675781 14.855469 59.675781 15.460938 59.84375 Z M 15.460938 59.84375 "/>
<path style=" stroke:none;fill-rule:nonzero;fill:rgb(96.862745%,88.235295%,47.450981%);fill-opacity:1;" d="M 7.875 40.625 C 9.035156 40.679688 10.1875 41.3125 11 42.125 C 11.042969 42.25 11.082031 42.371094 11.125 42.5 C 10.148438 42.46875 9.222656 42.371094 8.273438 42.140625 C 8.1875 42.121094 8.097656 42.101562 8.007812 42.078125 C 7.761719 42.015625 7.761719 42.015625 7.375 41.875 C 7.332031 41.75 7.292969 41.628906 7.25 41.5 C 7.375 41.273438 7.375 41.273438 7.554688 41.039062 C 7.613281 40.960938 7.671875 40.882812 7.734375 40.804688 C 7.78125 40.746094 7.828125 40.6875 7.875 40.625 Z M 7.875 40.625 "/>
<path style=" stroke:none;fill-rule:nonzero;fill:rgb(96.862745%,87.843138%,46.666667%);fill-opacity:1;" d="M 54.5 39.375 C 55.109375 39.835938 55.503906 40.3125 55.914062 40.953125 C 55.96875 41.035156 56.023438 41.121094 56.082031 41.207031 C 56.304688 41.550781 56.496094 41.859375 56.625 42.25 C 56.40625 42.3125 56.1875 42.375 55.96875 42.4375 C 55.847656 42.472656 55.726562 42.507812 55.601562 42.542969 C 55.25 42.625 55.25 42.625 54.75 42.625 C 54.402344 41.550781 54.179688 40.484375 54.5 39.375 Z M 54.5 39.375 "/>
<path style=" stroke:none;fill-rule:nonzero;fill:rgb(97.647059%,89.019608%,47.843137%);fill-opacity:1;" d="M 42.375 8.125 C 43.171875 9.1875 43.144531 10.589844 43.125 11.875 C 42.082031 11.082031 41.535156 10.105469 41.125 8.875 C 41.539062 8.628906 41.949219 8.378906 42.375 8.125 Z M 42.375 8.125 "/>
<path style=" stroke:none;fill-rule:nonzero;fill:rgb(96.078432%,87.450981%,47.058824%);fill-opacity:1;" d="M 42.625 52.25 C 42.667969 52.25 42.707031 52.25 42.75 52.25 C 42.707031 53.421875 42.628906 54.503906 42.25 55.625 C 42.207031 55.75 42.167969 55.871094 42.125 56 C 41.636719 55.855469 41.265625 55.707031 40.875 55.375 C 41.070312 54.164062 41.578125 53.191406 42.5 52.375 C 42.542969 52.332031 42.582031 52.292969 42.625 52.25 Z M 42.625 52.25 "/>
<path style=" stroke:none;fill-rule:nonzero;fill:rgb(0%,0%,0%);fill-opacity:1;" d="M 17.273438 56.429688 C 17.625 56.5 17.625 56.5 17.875 56.75 C 17.972656 57.445312 17.730469 57.859375 17.367188 58.421875 C 17.320312 58.503906 17.273438 58.582031 17.226562 58.664062 C 17.082031 58.894531 17.082031 58.894531 16.75 59.25 C 16.273438 59.300781 16.273438 59.300781 15.875 59.25 C 15.597656 58.714844 15.597656 58.714844 15.714844 58.320312 C 15.890625 58.003906 16.066406 57.6875 16.25 57.375 C 16.300781 57.285156 16.351562 57.191406 16.40625 57.101562 C 16.660156 56.6875 16.789062 56.515625 17.273438 56.429688 Z M 17.273438 56.429688 "/>
<path style=" stroke:none;fill-rule:nonzero;fill:rgb(0%,0%,0%);fill-opacity:1;" d="M 4 38 C 4.226562 38.3125 4.226562 38.3125 4.375 38.625 C 4.019531 39.367188 3.523438 39.5 2.78125 39.765625 C 2.28125 39.898438 1.988281 39.898438 1.5 39.75 C 1.414062 39.398438 1.414062 39.398438 1.375 39 C 1.664062 38.589844 2.089844 38.464844 2.546875 38.289062 C 2.6875 38.234375 2.828125 38.179688 2.972656 38.125 C 3.347656 38.007812 3.613281 37.945312 4 38 Z M 4 38 "/>
<path style=" stroke:none;fill-rule:nonzero;fill:rgb(0%,0%,0%);fill-opacity:1;" d="M 40.375 58.75 C 40.945312 58.945312 40.945312 58.945312 41.125 59.125 C 41.175781 59.394531 41.175781 59.394531 41.125 59.75 C 40.902344 60.046875 40.691406 60.289062 40.429688 60.546875 C 40.367188 60.617188 40.300781 60.6875 40.234375 60.757812 C 40.039062 60.957031 39.867188 61.113281 39.625 61.25 C 39.136719 61.230469 39.136719 61.230469 38.75 61.125 C 38.632812 60.8125 38.632812 60.8125 38.625 60.375 C 39.046875 59.71875 39.675781 59.101562 40.375 58.75 Z M 40.375 58.75 "/>
<path style=" stroke:none;fill-rule:nonzero;fill:rgb(0%,0%,0%);fill-opacity:1;" d="M 27.25 2.75 C 27.832031 2.90625 28.175781 3.105469 28.601562 3.53125 C 28.699219 3.625 28.792969 3.71875 28.894531 3.8125 C 29.164062 4.175781 29.222656 4.425781 29.25 4.875 C 29.109375 5.109375 29.109375 5.109375 28.875 5.25 C 28.59375 5.300781 28.59375 5.300781 28.25 5.25 C 27.980469 5.039062 27.765625 4.84375 27.53125 4.601562 C 27.46875 4.542969 27.40625 4.480469 27.34375 4.417969 C 26.984375 4.050781 26.761719 3.773438 26.75 3.25 C 26.992188 2.960938 26.992188 2.960938 27.25 2.75 Z M 27.25 2.75 "/>
<path style=" stroke:none;fill-rule:nonzero;fill:rgb(0%,0%,0%);fill-opacity:1;" d="M 26.015625 2.867188 C 26.132812 2.910156 26.253906 2.953125 26.375 3 C 26.421875 3.519531 26.433594 3.789062 26.132812 4.230469 C 26.023438 4.335938 25.917969 4.4375 25.804688 4.546875 C 25.699219 4.652344 25.59375 4.761719 25.484375 4.871094 C 25.058594 5.171875 24.769531 5.238281 24.25 5.25 C 24 5 24 5 23.941406 4.65625 C 24.019531 4.117188 24.289062 3.875 24.671875 3.523438 C 24.734375 3.460938 24.800781 3.402344 24.863281 3.339844 C 25.515625 2.71875 25.515625 2.71875 26.015625 2.867188 Z M 26.015625 2.867188 "/>
<path style=" stroke:none;fill-rule:nonzero;fill:rgb(0%,0%,0%);fill-opacity:1;" d="M 28.734375 0.0234375 C 28.925781 0.0742188 28.925781 0.0742188 29.125 0.125 C 29.242188 0.4375 29.242188 0.4375 29.25 0.875 C 29 1.25 28.691406 1.554688 28.375 1.875 C 28.25 2.03125 28.25 2.03125 28.125 2.1875 C 27.746094 2.46875 27.457031 2.433594 27 2.375 C 26.75 2 26.75 2 26.757812 1.710938 C 26.914062 1.261719 27.1875 0.972656 27.515625 0.640625 C 27.574219 0.578125 27.632812 0.511719 27.691406 0.445312 C 28.058594 0.0742188 28.203125 -0.00390625 28.734375 0.0234375 Z M 28.734375 0.0234375 "/>
<path style=" stroke:none;fill-rule:nonzero;fill:rgb(0%,0%,0%);fill-opacity:1;" d="M 24.25 0 C 24.964844 0.0195312 25.308594 0.203125 25.804688 0.703125 C 25.96875 0.859375 25.96875 0.859375 26.132812 1.019531 C 26.433594 1.460938 26.429688 1.726562 26.375 2.25 C 26.25 2.375 26.25 2.375 25.851562 2.421875 C 25.269531 2.363281 25.015625 2.144531 24.632812 1.734375 C 24.570312 1.675781 24.507812 1.617188 24.445312 1.554688 C 24.136719 1.238281 24.003906 1.039062 23.945312 0.59375 C 24 0.25 24 0.25 24.25 0 Z M 24.25 0 "/>
<path style=" stroke:none;fill-rule:nonzero;fill:rgb(0%,0%,0%);fill-opacity:1;" d="M 38 61.625 C 38.25 61.875 38.25 61.875 38.304688 62.21875 C 38.234375 62.75 37.980469 63.003906 37.609375 63.359375 C 37.550781 63.421875 37.492188 63.484375 37.429688 63.546875 C 37.113281 63.859375 36.914062 63.996094 36.46875 64.054688 C 36.125 64 36.125 64 35.875 63.75 C 35.84375 63.214844 35.90625 62.988281 36.25 62.570312 C 37.246094 61.570312 37.246094 61.570312 38 61.625 Z M 38 61.625 "/>
<path style=" stroke:none;fill-rule:nonzero;fill:rgb(0%,0%,0%);fill-opacity:1;" d="M 39.625 61.625 C 39.917969 61.855469 40.160156 62.070312 40.414062 62.335938 C 40.515625 62.433594 40.515625 62.433594 40.621094 62.535156 C 40.921875 62.839844 41.113281 63.046875 41.183594 63.472656 C 41.125 63.75 41.125 63.75 40.875 64 C 40.503906 64.066406 40.246094 64.078125 39.921875 63.871094 C 39.707031 63.6875 39.515625 63.496094 39.320312 63.296875 C 39.25 63.230469 39.183594 63.167969 39.109375 63.097656 C 38.914062 62.902344 38.914062 62.902344 38.625 62.5 C 38.628906 62.082031 38.628906 62.082031 38.75 61.75 C 39.085938 61.582031 39.25 61.566406 39.625 61.625 Z M 39.625 61.625 "/>
<path style=" stroke:none;fill-rule:nonzero;fill:rgb(0%,0%,0%);fill-opacity:1;" d="M 36.664062 58.828125 C 37.066406 59.035156 37.339844 59.277344 37.664062 59.59375 C 37.773438 59.699219 37.886719 59.804688 38 59.914062 C 38.25 60.25 38.25 60.25 38.300781 60.648438 C 38.25 61 38.25 61 38 61.25 C 37.722656 61.308594 37.722656 61.308594 37.375 61.25 C 37.082031 61.019531 36.839844 60.804688 36.585938 60.539062 C 36.515625 60.472656 36.449219 60.40625 36.378906 60.339844 C 36.078125 60.035156 35.886719 59.828125 35.816406 59.402344 C 35.875 59.125 35.875 59.125 36.085938 58.882812 C 36.375 58.75 36.375 58.75 36.664062 58.828125 Z M 36.664062 58.828125 "/>
<path style=" stroke:none;fill-rule:nonzero;fill:rgb(0%,0%,0%);fill-opacity:1;" d="M 56.214844 45.203125 C 56.738281 45.261719 57 45.449219 57.421875 45.765625 C 57.554688 45.863281 57.6875 45.957031 57.824219 46.054688 C 58.125 46.375 58.125 46.375 58.183594 46.773438 C 58.125 47.125 58.125 47.125 57.875 47.375 C 57.074219 47.476562 56.652344 47.125 56.039062 46.65625 C 55.761719 46.386719 55.648438 46.265625 55.585938 45.890625 C 55.636719 45.390625 55.714844 45.273438 56.214844 45.203125 Z M 56.214844 45.203125 "/>
<path style=" stroke:none;fill-rule:nonzero;fill:rgb(0%,0%,0%);fill-opacity:1;" d="M 47.296875 52.628906 C 47.746094 52.792969 47.925781 53.042969 48.21875 53.414062 C 48.316406 53.535156 48.414062 53.65625 48.515625 53.78125 C 48.722656 54.082031 48.84375 54.265625 48.875 54.625 C 48.734375 54.90625 48.734375 54.90625 48.5 55.125 C 48.214844 55.179688 48.214844 55.179688 47.875 55.125 C 47.539062 54.855469 47.539062 54.855469 47.210938 54.492188 C 47.046875 54.316406 47.046875 54.316406 46.875 54.136719 C 46.574219 53.671875 46.542969 53.417969 46.625 52.875 C 47 52.625 47 52.625 47.296875 52.628906 Z M 47.296875 52.628906 "/>
<path style=" stroke:none;fill-rule:nonzero;fill:rgb(0%,0%,0%);fill-opacity:1;" d="M 46.65625 4.78125 C 47 4.875 47 4.875 47.25 5.125 C 47.390625 5.828125 47.046875 6.28125 46.6875 6.851562 C 46.5 7.125 46.5 7.125 46.25 7.375 C 45.945312 7.421875 45.945312 7.421875 45.625 7.375 C 45.382812 7.171875 45.382812 7.171875 45.25 6.875 C 45.375 6.113281 45.863281 4.964844 46.65625 4.78125 Z M 46.65625 4.78125 "/>
<path style=" stroke:none;fill-rule:nonzero;fill:rgb(96.470588%,87.450981%,46.666667%);fill-opacity:1;" d="M 55.5 21.875 C 56.46875 21.96875 56.46875 21.96875 56.75 22.25 C 56.207031 23.15625 55.660156 24.046875 55 24.875 C 54.875 24.832031 54.753906 24.792969 54.625 24.75 C 54.554688 23.640625 54.800781 22.753906 55.5 21.875 Z M 55.5 21.875 "/>
<path style=" stroke:none;fill-rule:nonzero;fill:rgb(0%,0%,0%);fill-opacity:1;" d="M 8.375 16.75 C 8.898438 17.085938 9.515625 17.527344 9.710938 18.140625 C 9.710938 18.375 9.710938 18.375 9.625 18.75 C 9.5 18.875 9.5 18.875 9.125 18.945312 C 8.511719 18.9375 8.152344 18.550781 7.730469 18.144531 C 7.5 17.875 7.5 17.875 7.34375 17.460938 C 7.375 17.125 7.375 17.125 7.515625 16.890625 C 7.832031 16.699219 8.007812 16.707031 8.375 16.75 Z M 8.375 16.75 "/>
<path style=" stroke:none;fill-rule:nonzero;fill:rgb(0%,0%,0%);fill-opacity:1;" d="M 12.300781 2.511719 C 12.722656 2.660156 12.886719 2.863281 13.164062 3.210938 C 13.25 3.316406 13.339844 3.421875 13.429688 3.53125 C 13.660156 3.9375 13.695312 4.167969 13.625 4.625 C 13.25 4.875 13.25 4.875 12.886719 4.867188 C 12.390625 4.714844 12.242188 4.515625 11.945312 4.09375 C 11.859375 3.972656 11.769531 3.855469 11.679688 3.734375 C 11.5 3.375 11.5 3.375 11.511719 3.03125 C 11.671875 2.628906 11.867188 2.496094 12.300781 2.511719 Z M 12.300781 2.511719 "/>
<path style=" stroke:none;fill-rule:nonzero;fill:rgb(0%,0.784314%,0.392157%);fill-opacity:1;" d="M 58 13.234375 C 58.375 13.25 58.375 13.25 58.5 13.375 C 58.617188 14.148438 58.339844 14.660156 57.988281 15.34375 C 57.75 15.625 57.75 15.625 57.347656 15.726562 C 57.234375 15.734375 57.117188 15.742188 57 15.75 C 57 15.667969 57 15.585938 57 15.5 C 56.917969 15.5 56.835938 15.5 56.75 15.5 C 56.707031 14.894531 56.8125 14.546875 57.117188 14.023438 C 57.183594 13.902344 57.253906 13.785156 57.324219 13.660156 C 57.574219 13.253906 57.574219 13.253906 58 13.234375 Z M 58 13.234375 "/>
<path style=" stroke:none;fill-rule:nonzero;fill:rgb(0%,0%,0%);fill-opacity:1;" d="M 7 37 C 7.167969 37.339844 7.132812 37.625 7.125 38 C 7.046875 38.035156 6.96875 38.070312 6.886719 38.105469 C 6.785156 38.148438 6.683594 38.195312 6.578125 38.242188 C 6.476562 38.289062 6.375 38.332031 6.269531 38.378906 C 6.09375 38.457031 5.921875 38.539062 5.75 38.625 C 5.375 38.648438 5.375 38.648438 5 38.625 C 4.75 38.375 4.75 38.375 4.734375 37.984375 C 4.738281 37.867188 4.746094 37.746094 4.75 37.625 C 5.53125 37.175781 6.09375 36.917969 7 37 Z M 7 37 "/>
<path style=" stroke:none;fill-rule:nonzero;fill:rgb(0%,0.784314%,0%);fill-opacity:1;" d="M 4.125 48.25 C 4.453125 48.320312 4.453125 48.320312 4.75 48.5 C 4.949219 49.050781 4.816406 49.433594 4.617188 49.96875 C 4.566406 50.113281 4.515625 50.257812 4.464844 50.40625 C 4.25 50.75 4.25 50.75 3.867188 50.875 C 3.5 50.875 3.5 50.875 3.25 50.625 C 3.152344 49.851562 3.378906 49.179688 3.75 48.5 C 3.875 48.417969 3.996094 48.335938 4.125 48.25 Z M 4.125 48.25 "/>
<path style=" stroke:none;fill-rule:nonzero;fill:rgb(41.176471%,21.176471%,7.843138%);fill-opacity:1;" d="M 24.75 25.375 C 24.996094 25.582031 25.246094 25.789062 25.5 26 C 25.335938 26.367188 25.15625 26.625 24.871094 26.90625 C 24.761719 27.011719 24.761719 27.011719 24.648438 27.121094 C 24.574219 27.195312 24.5 27.269531 24.421875 27.34375 C 24.34375 27.417969 24.269531 27.496094 24.191406 27.570312 C 24.003906 27.757812 23.8125 27.941406 23.625 28.125 C 23.5 28.042969 23.378906 27.960938 23.25 27.875 C 23.320312 27.347656 23.5 27 23.789062 26.554688 C 23.863281 26.4375 23.9375 26.324219 24.015625 26.203125 C 24.238281 25.890625 24.472656 25.636719 24.75 25.375 Z M 24.75 25.375 "/>
<path style=" stroke:none;fill-rule:nonzero;fill:rgb(85.09804%,58.823532%,41.176471%);fill-opacity:1;" d="M 39 25.375 C 39.730469 26.039062 40.488281 26.867188 40.625 27.875 C 40.5 27.957031 40.378906 28.039062 40.25 28.125 C 39.632812 27.507812 39.011719 26.886719 38.375 26.25 C 38.578125 25.84375 38.683594 25.660156 39 25.375 Z M 39 25.375 "/>
<path style=" stroke:none;fill-rule:nonzero;fill:rgb(57.254905%,32.941177%,14.509805%);fill-opacity:1;" d="M 39.625 30.375 C 39.707031 30.417969 39.789062 30.457031 39.875 30.5 C 39.875 31.324219 39.875 32.148438 39.875 33 C 39.417969 32.769531 39.191406 32.59375 38.84375 32.234375 C 38.753906 32.144531 38.667969 32.054688 38.578125 31.960938 C 38.511719 31.890625 38.445312 31.820312 38.375 31.75 C 38.777344 31.273438 39.175781 30.808594 39.625 30.375 Z M 39.625 30.375 "/>
<path style=" stroke:none;fill-rule:nonzero;fill:rgb(55.686277%,31.764707%,13.333334%);fill-opacity:1;" d="M 24 30.375 C 24.425781 30.574219 24.703125 30.800781 25.03125 31.140625 C 25.121094 31.230469 25.207031 31.320312 25.296875 31.414062 C 25.398438 31.519531 25.398438 31.519531 25.5 31.625 C 25.078125 32.140625 24.667969 32.601562 24.125 33 C 23.976562 32.707031 23.984375 32.53125 23.988281 32.207031 C 23.988281 32.101562 23.988281 31.992188 23.988281 31.882812 C 23.988281 31.773438 23.992188 31.660156 23.992188 31.546875 C 23.992188 31.433594 23.992188 31.324219 23.992188 31.207031 C 23.996094 30.929688 23.996094 30.652344 24 30.375 Z M 24 30.375 "/>
<path style=" stroke:none;fill-rule:nonzero;fill:rgb(42.745098%,21.960784%,8.235294%);fill-opacity:1;" d="M 23.375 35.375 C 23.742188 35.539062 24 35.71875 24.28125 36.003906 C 24.386719 36.113281 24.386719 36.113281 24.496094 36.226562 C 24.570312 36.300781 24.644531 36.375 24.71875 36.453125 C 24.792969 36.53125 24.871094 36.605469 24.945312 36.683594 C 25.132812 36.871094 25.316406 37.0625 25.5 37.25 C 25.273438 37.5625 25.273438 37.5625 25 37.875 C 24.875 37.875 24.753906 37.875 24.625 37.875 C 24.382812 37.597656 24.382812 37.597656 24.125 37.226562 C 24.039062 37.105469 23.953125 36.984375 23.867188 36.863281 C 23.242188 35.929688 23.242188 35.929688 23.289062 35.585938 C 23.316406 35.515625 23.347656 35.445312 23.375 35.375 Z M 23.375 35.375 "/>
<path style=" stroke:none;fill-rule:nonzero;fill:rgb(96.078432%,87.450981%,47.058824%);fill-opacity:1;" d="M 23.75 54.375 C 23.285156 54.890625 22.835938 55.183594 22.210938 55.476562 C 22.128906 55.515625 22.050781 55.554688 21.964844 55.59375 C 21.769531 55.6875 21.574219 55.78125 21.375 55.875 C 21.210938 55.421875 21.125 55.113281 21.125 54.625 C 21.984375 54.296875 22.839844 54.351562 23.75 54.375 Z M 23.75 54.375 "/>
<path style=" stroke:none;fill-rule:nonzero;fill:rgb(41.568628%,21.568628%,7.843138%);fill-opacity:1;" d="M 28.25 23.125 C 28.175781 23.539062 28.054688 23.738281 27.757812 24.03125 C 27.683594 24.101562 27.613281 24.171875 27.535156 24.246094 C 27.460938 24.320312 27.382812 24.394531 27.304688 24.46875 C 27.226562 24.542969 27.152344 24.621094 27.070312 24.695312 C 26.882812 24.882812 26.691406 25.066406 26.5 25.25 C 26.085938 25.058594 25.878906 24.882812 25.625 24.5 C 25.90625 24.316406 26.1875 24.136719 26.46875 23.953125 C 26.546875 23.902344 26.628906 23.851562 26.710938 23.796875 C 27.75 23.125 27.75 23.125 28.25 23.125 Z M 28.25 23.125 "/>
<path style=" stroke:none;fill-rule:nonzero;fill:rgb(84.705883%,58.431375%,40.784314%);fill-opacity:1;" d="M 35.625 23.125 C 36.164062 23.199219 36.546875 23.394531 37.015625 23.671875 C 37.144531 23.746094 37.273438 23.824219 37.40625 23.902344 C 37.6875 24.085938 37.902344 24.25 38.125 24.5 C 37.949219 24.933594 37.796875 25.058594 37.375 25.25 C 37.082031 24.96875 36.789062 24.683594 36.5 24.398438 C 36.417969 24.316406 36.332031 24.238281 36.246094 24.15625 C 36.167969 24.078125 36.089844 24 36.007812 23.917969 C 35.933594 23.847656 35.859375 23.777344 35.785156 23.703125 C 35.625 23.5 35.625 23.5 35.625 23.125 Z M 35.625 23.125 "/>
<path style=" stroke:none;fill-rule:nonzero;fill:rgb(88.627452%,61.176473%,42.745098%);fill-opacity:1;" d="M 40.25 35.375 C 40.375 35.417969 40.496094 35.457031 40.625 35.5 C 40.542969 35.964844 40.339844 36.292969 40.085938 36.6875 C 40.011719 36.804688 39.9375 36.921875 39.859375 37.042969 C 39.636719 37.355469 39.40625 37.613281 39.125 37.875 C 38.730469 37.703125 38.625 37.625 38.375 37.25 C 38.992188 36.632812 39.613281 36.011719 40.25 35.375 Z M 40.25 35.375 "/>
<path style=" stroke:none;fill-rule:nonzero;fill:rgb(97.254902%,88.235295%,47.058824%);fill-opacity:1;" d="M 10.476562 21.242188 C 10.625 21.242188 10.625 21.242188 10.773438 21.242188 C 11.015625 21.246094 11.257812 21.246094 11.5 21.25 C 11.34375 21.605469 11.265625 21.738281 10.9375 21.96875 C 10.308594 22.191406 9.628906 22.296875 9.003906 22.011719 C 8.796875 21.875 8.796875 21.875 8.5 21.625 C 9.015625 21.109375 9.792969 21.234375 10.476562 21.242188 Z M 10.476562 21.242188 "/>
<path style=" stroke:none;fill-rule:nonzero;fill:rgb(42.352942%,21.960784%,8.235294%);fill-opacity:1;" d="M 26.25 38.125 C 26.953125 38.707031 27.644531 39.3125 28.25 40 C 28.25 40.082031 28.25 40.164062 28.25 40.25 C 27.695312 40.082031 27.21875 39.867188 26.71875 39.578125 C 26.523438 39.46875 26.523438 39.46875 26.328125 39.355469 C 26.003906 39.125 25.882812 38.992188 25.75 38.625 C 25.914062 38.460938 26.078125 38.296875 26.25 38.125 Z M 26.25 38.125 "/>
<path style=" stroke:none;fill-rule:nonzero;fill:rgb(87.843138%,60.392159%,42.352942%);fill-opacity:1;" d="M 37.5 38.125 C 37.707031 38.289062 37.914062 38.453125 38.125 38.625 C 37.960938 39.121094 37.65625 39.253906 37.226562 39.507812 C 37.15625 39.550781 37.085938 39.59375 37.011719 39.640625 C 36.5625 39.914062 36.128906 40.101562 35.625 40.25 C 35.789062 39.882812 35.96875 39.625 36.253906 39.34375 C 36.328125 39.273438 36.398438 39.203125 36.476562 39.128906 C 36.550781 39.054688 36.625 38.980469 36.703125 38.90625 C 36.78125 38.832031 36.855469 38.753906 36.933594 38.679688 C 37.121094 38.492188 37.3125 38.308594 37.5 38.125 Z M 37.5 38.125 "/>
<path style=" stroke:none;fill-rule:nonzero;fill:rgb(48.627451%,27.058825%,11.372549%);fill-opacity:1;" d="M 38 41.625 C 38.082031 41.667969 38.164062 41.707031 38.25 41.75 C 38.125 42.125 38.125 42.125 37.820312 42.304688 C 37.695312 42.359375 37.574219 42.414062 37.445312 42.46875 C 37.320312 42.523438 37.199219 42.582031 37.070312 42.640625 C 36.964844 42.675781 36.859375 42.710938 36.75 42.75 C 36.667969 42.707031 36.585938 42.667969 36.5 42.625 C 36.597656 42.5625 36.695312 42.5 36.796875 42.4375 C 36.921875 42.359375 37.050781 42.277344 37.179688 42.195312 C 37.304688 42.117188 37.433594 42.035156 37.5625 41.953125 C 37.855469 41.777344 37.855469 41.777344 38 41.625 Z M 38 41.625 "/>
<path style=" stroke:none;fill-rule:nonzero;fill:rgb(50.196081%,27.843139%,11.764706%);fill-opacity:1;" d="M 34.625 20 C 35.332031 20.074219 35.957031 20.257812 36.625 20.5 C 36.5 20.625 36.378906 20.746094 36.25 20.875 C 36.183594 20.84375 36.121094 20.808594 36.054688 20.773438 C 35.582031 20.535156 35.117188 20.308594 34.625 20.125 C 34.625 20.082031 34.625 20.042969 34.625 20 Z M 34.625 20 "/>
<path style=" stroke:none;fill-rule:nonzero;fill:rgb(90.980393%,88.235295%,52.156866%);fill-opacity:1;" d="M 56.375 33.5 C 56.058594 33.886719 55.722656 33.988281 55.25 34.125 C 55.289062 33.882812 55.289062 33.882812 55.375 33.625 C 55.742188 33.503906 55.996094 33.488281 56.375 33.5 Z M 56.375 33.5 "/>
</g>
</svg>
