<?xml version="1.0" encoding="UTF-8"?>
<svg xmlns="http://www.w3.org/2000/svg" xmlns:xlink="http://www.w3.org/1999/xlink" width="32px" height="32px" viewBox="0 0 32 32" version="1.1">
<g id="surface1">
<path style=" stroke:none;fill-rule:nonzero;fill:rgb(1.176471%,1.176471%,0%);fill-opacity:1;" d="M 15.957031 2.207031 C 16.386719 2.316406 16.691406 2.839844 16.933594 3.1875 C 16.980469 3.257812 16.980469 3.257812 17.03125 3.328125 C 18.125 4.921875 18.125 4.921875 18.125 5.6875 C 18.402344 5.460938 18.664062 5.226562 18.90625 4.957031 C 19.460938 4.359375 20.179688 3.902344 20.890625 3.511719 C 20.949219 3.480469 20.949219 3.480469 21.003906 3.445312 C 21.171875 3.359375 21.296875 3.3125 21.484375 3.3125 C 21.675781 3.398438 21.714844 3.5 21.8125 3.6875 C 21.867188 3.867188 21.867188 3.867188 21.914062 4.058594 C 21.9375 4.164062 21.9375 4.164062 21.960938 4.269531 C 21.988281 4.378906 21.988281 4.378906 22.011719 4.488281 C 22.039062 4.597656 22.039062 4.597656 22.0625 4.710938 C 22.105469 4.890625 22.148438 5.070312 22.1875 5.25 C 22.242188 5.195312 22.292969 5.136719 22.347656 5.082031 C 23.425781 3.960938 24.695312 3.199219 26.1875 2.75 C 26.234375 2.734375 26.28125 2.722656 26.328125 2.707031 C 27.398438 2.386719 28.457031 2.234375 29.574219 2.230469 C 29.644531 2.230469 29.71875 2.230469 29.789062 2.230469 C 30.296875 2.234375 30.296875 2.234375 30.4375 2.375 C 30.460938 2.792969 30.410156 3.175781 30.332031 3.585938 C 30.320312 3.644531 30.308594 3.707031 30.296875 3.765625 C 30.183594 4.351562 30.046875 4.929688 29.875 5.5 C 29.863281 5.542969 29.851562 5.585938 29.835938 5.628906 C 29.683594 6.132812 29.683594 6.132812 29.5625 6.3125 C 29.363281 6.363281 29.363281 6.363281 29.1875 6.375 C 29.199219 6.417969 29.207031 6.460938 29.21875 6.503906 C 29.296875 6.972656 29.222656 7.253906 28.988281 7.664062 C 28.824219 7.878906 28.6875 7.917969 28.4375 8 C 28.335938 8.101562 28.335938 8.101562 28.3125 8.25 C 28.320312 8.324219 28.332031 8.398438 28.339844 8.472656 C 28.351562 8.878906 28.007812 9.15625 27.75 9.4375 C 27.683594 9.519531 27.613281 9.597656 27.546875 9.679688 C 27.394531 9.859375 27.230469 10.023438 27.0625 10.1875 C 27.132812 10.199219 27.207031 10.207031 27.28125 10.21875 C 28.511719 10.410156 28.511719 10.410156 29 10.625 C 29.125 10.8125 29.125 10.8125 29.109375 10.960938 C 28.769531 12.117188 27.703125 13.179688 26.8125 13.9375 C 26.847656 13.953125 26.886719 13.964844 26.921875 13.980469 C 28.074219 14.429688 29.234375 14.921875 30.125 15.8125 C 30.125 16.085938 30.101562 16.210938 29.90625 16.410156 C 29.839844 16.460938 29.773438 16.511719 29.703125 16.558594 C 29.667969 16.585938 29.628906 16.613281 29.59375 16.640625 C 29.480469 16.71875 29.363281 16.796875 29.25 16.875 C 29.1875 16.917969 29.121094 16.960938 29.058594 17.007812 C 28.660156 17.261719 28.253906 17.472656 27.828125 17.675781 C 27.753906 17.710938 27.753906 17.710938 27.679688 17.746094 C 27.355469 17.898438 27.027344 18.019531 26.6875 18.125 C 26.839844 18.277344 26.988281 18.425781 27.144531 18.574219 C 27.800781 19.207031 28.90625 20.3125 29.023438 21.253906 C 29 21.4375 29 21.4375 28.910156 21.53125 C 28.671875 21.667969 28.425781 21.726562 28.160156 21.789062 C 28.105469 21.800781 28.050781 21.816406 27.992188 21.828125 C 27.089844 22.042969 27.089844 22.042969 26.6875 22 C 26.585938 21.910156 26.585938 21.910156 26.5 21.8125 C 26.4375 21.792969 26.375 21.769531 26.3125 21.75 C 26.292969 21.789062 26.273438 21.828125 26.253906 21.871094 C 26.1875 22 26.1875 22 26.125 22.0625 C 25.980469 22.070312 25.835938 22.070312 25.691406 22.070312 C 25.613281 22.070312 25.53125 22.070312 25.453125 22.070312 C 25.25 22.0625 25.25 22.0625 25.125 22 C 25.15625 22.070312 25.191406 22.136719 25.222656 22.207031 C 25.628906 23.089844 25.914062 23.933594 26.058594 24.894531 C 26.066406 24.949219 26.078125 25.007812 26.085938 25.066406 C 26.09375 25.117188 26.101562 25.171875 26.105469 25.226562 C 26.113281 25.273438 26.121094 25.320312 26.125 25.367188 C 26.125 25.527344 26.089844 25.617188 26 25.75 C 25.710938 25.835938 25.433594 25.808594 25.136719 25.769531 C 25.066406 25.761719 25.066406 25.761719 24.996094 25.75 C 23.9375 25.609375 22.890625 25.304688 21.9375 24.8125 C 21.957031 24.855469 21.980469 24.894531 22 24.9375 C 22.09375 25.984375 22.089844 27.757812 21.453125 28.652344 C 21.3125 28.75 21.3125 28.75 21.140625 28.75 C 20.890625 28.671875 20.683594 28.566406 20.460938 28.4375 C 20.417969 28.414062 20.375 28.386719 20.328125 28.359375 C 19.496094 27.875 18.800781 27.242188 18.125 26.5625 C 18.101562 26.617188 18.101562 26.617188 18.078125 26.675781 C 17.742188 27.457031 17.390625 28.195312 16.875 28.875 C 16.847656 28.914062 16.816406 28.953125 16.785156 28.992188 C 16.699219 29.109375 16.605469 29.222656 16.515625 29.335938 C 16.488281 29.371094 16.460938 29.40625 16.433594 29.441406 C 16.296875 29.601562 16.195312 29.683594 15.996094 29.757812 C 15.8125 29.75 15.8125 29.75 15.675781 29.65625 C 14.851562 28.6875 14.277344 27.550781 13.8125 26.375 C 13.773438 26.417969 13.734375 26.457031 13.691406 26.5 C 12.964844 27.25 11.707031 28.507812 10.621094 28.640625 C 10.5 28.640625 10.5 28.640625 10.3125 28.625 C 10.15625 28.34375 10.066406 28.066406 9.996094 27.753906 C 9.980469 27.683594 9.980469 27.683594 9.964844 27.609375 C 9.832031 26.976562 9.792969 26.332031 9.75 25.6875 C 9.714844 25.722656 9.679688 25.753906 9.644531 25.789062 C 8.613281 26.746094 7.445312 27.394531 6.125 27.875 C 6.082031 27.890625 6.039062 27.90625 5.996094 27.921875 C 4.613281 28.417969 3.117188 28.621094 1.652344 28.644531 C 1.609375 28.644531 1.566406 28.648438 1.519531 28.648438 C 1.335938 28.648438 1.199219 28.632812 1.035156 28.550781 C 0.9375 28.4375 0.9375 28.4375 0.914062 28.28125 C 1.085938 26.402344 1.085938 26.402344 1.4375 25.6875 C 1.601562 25.636719 1.601562 25.636719 1.75 25.625 C 1.730469 25.582031 1.707031 25.539062 1.6875 25.496094 C 1.546875 25.085938 1.644531 24.773438 1.789062 24.382812 C 1.898438 24.210938 2 24.195312 2.1875 24.125 C 2.273438 23.9375 2.273438 23.9375 2.3125 23.75 C 2.292969 23.730469 2.269531 23.707031 2.25 23.6875 C 2.203125 23.277344 2.339844 23.019531 2.539062 22.667969 C 2.582031 22.589844 2.582031 22.589844 2.625 22.511719 C 2.824219 22.148438 3.027344 21.789062 3.25 21.4375 C 3.1875 21.410156 3.128906 21.386719 3.066406 21.359375 C 2.875 21.25 2.875 21.25 2.824219 21.136719 C 2.78125 20.582031 3.484375 19.820312 3.832031 19.398438 C 4.027344 19.175781 4.230469 18.960938 4.4375 18.75 C 4.492188 18.695312 4.546875 18.636719 4.601562 18.582031 C 4.976562 18.199219 4.976562 18.199219 5.125 18.125 C 5.019531 18.078125 5.019531 18.078125 4.910156 18.03125 C 4.832031 17.996094 4.832031 17.996094 4.753906 17.960938 C 4.652344 17.914062 4.550781 17.871094 4.449219 17.828125 C 3.90625 17.589844 3.398438 17.324219 2.902344 16.996094 C 2.855469 16.964844 2.8125 16.9375 2.765625 16.90625 C 2.535156 16.746094 2.3125 16.582031 2.097656 16.402344 C 2.054688 16.367188 2.015625 16.335938 1.972656 16.300781 C 1.851562 16.160156 1.824219 16.0625 1.8125 15.875 C 1.945312 15.714844 1.945312 15.714844 2.125 15.5625 C 2.199219 15.5 2.199219 15.5 2.273438 15.433594 C 3.179688 14.722656 4.234375 14.261719 5.3125 13.875 C 5.261719 13.828125 5.210938 13.785156 5.15625 13.738281 C 4.3125 12.980469 3.273438 11.929688 2.9375 10.8125 C 2.941406 10.652344 2.941406 10.652344 3 10.5 C 3.257812 10.28125 3.578125 10.242188 3.898438 10.179688 C 3.949219 10.167969 4 10.160156 4.054688 10.148438 C 4.496094 10.058594 4.925781 9.996094 5.375 9.980469 C 5.457031 9.976562 5.539062 9.976562 5.621094 9.972656 C 5.703125 9.96875 5.789062 9.96875 5.871094 9.964844 C 5.957031 9.960938 6.042969 9.960938 6.128906 9.957031 C 6.335938 9.949219 6.542969 9.945312 6.75 9.9375 C 6.722656 9.878906 6.695312 9.820312 6.667969 9.757812 C 6.632812 9.679688 6.597656 9.597656 6.5625 9.519531 C 6.542969 9.480469 6.527344 9.441406 6.507812 9.402344 C 6.410156 9.175781 6.339844 8.996094 6.375 8.75 C 6.4375 8.65625 6.4375 8.65625 6.5 8.5625 C 6.503906 8.433594 6.503906 8.433594 6.4375 8.3125 C 6.386719 8.285156 6.335938 8.261719 6.285156 8.234375 C 6.027344 8.058594 6.03125 7.839844 5.972656 7.546875 C 5.8125 6.472656 5.8125 6.472656 6 6.1875 C 7.199219 5.90625 8.882812 6.664062 9.9375 7.1875 C 9.9375 7.121094 9.9375 7.121094 9.933594 7.054688 C 9.910156 5.714844 10.019531 4.570312 10.5 3.3125 C 10.5625 3.25 10.5625 3.25 10.722656 3.230469 C 10.992188 3.253906 11.183594 3.359375 11.410156 3.492188 C 11.453125 3.515625 11.496094 3.542969 11.542969 3.570312 C 12.417969 4.089844 13.160156 4.777344 13.875 5.5 C 13.917969 5.390625 13.917969 5.390625 13.964844 5.273438 C 15.105469 2.460938 15.105469 2.460938 15.957031 2.207031 Z M 15.957031 2.207031 "/>
<path style=" stroke:none;fill-rule:nonzero;fill:rgb(1.176471%,0.392157%,0%);fill-opacity:1;" d="M 13.9375 10.125 C 14 10.15625 14 10.15625 14.0625 10.1875 C 13.984375 10.238281 13.984375 10.238281 13.90625 10.289062 C 13.058594 10.859375 12.285156 11.511719 11.8125 12.4375 C 11.84375 12.402344 11.875 12.371094 11.90625 12.335938 C 12.867188 11.324219 14.128906 10.65625 15.53125 10.605469 C 16.160156 10.597656 16.761719 10.601562 17.375 10.75 C 17.425781 10.761719 17.472656 10.773438 17.527344 10.785156 C 18.757812 11.078125 19.855469 11.980469 20.542969 13.019531 C 21.296875 14.265625 21.574219 15.539062 21.234375 16.96875 C 20.980469 17.972656 20.539062 18.761719 19.8125 19.5 C 19.765625 19.546875 19.71875 19.597656 19.667969 19.648438 C 19.074219 20.214844 18.335938 20.605469 17.5625 20.875 C 17.503906 20.894531 17.449219 20.914062 17.390625 20.9375 C 16.363281 21.230469 15.226562 21.132812 14.222656 20.820312 C 14.007812 20.742188 14.007812 20.742188 13.8125 20.75 C 14.421875 21.09375 15.003906 21.394531 15.6875 21.5625 C 15.738281 21.574219 15.789062 21.589844 15.84375 21.601562 C 16.164062 21.679688 16.484375 21.71875 16.8125 21.75 C 16.8125 21.769531 16.8125 21.792969 16.8125 21.8125 C 14.835938 21.855469 13.195312 21.542969 11.6875 20.1875 C 11.644531 20.148438 11.601562 20.109375 11.554688 20.070312 C 10.585938 19.164062 9.867188 17.773438 9.804688 16.441406 C 9.753906 14.726562 9.753906 14.726562 10.0625 13.9375 C 10.078125 13.898438 10.09375 13.859375 10.105469 13.816406 C 10.683594 12.273438 11.863281 11.046875 13.351562 10.359375 C 13.546875 10.273438 13.738281 10.195312 13.9375 10.125 Z M 13.9375 10.125 "/>
<path style=" stroke:none;fill-rule:nonzero;fill:rgb(0%,68.235296%,29.803923%);fill-opacity:1;" d="M 29.8125 2.8125 C 29.738281 3.667969 29.527344 4.472656 29.269531 5.289062 C 29.171875 5.617188 29.085938 5.90625 29.125 6.25 C 29.167969 6.292969 29.207031 6.332031 29.25 6.375 C 29.222656 6.503906 29.222656 6.503906 29.1875 6.625 C 29.207031 6.644531 29.230469 6.667969 29.25 6.6875 C 29.308594 7.070312 29.175781 7.332031 28.988281 7.664062 C 28.824219 7.878906 28.6875 7.914062 28.4375 8 C 28.40625 8.054688 28.375 8.109375 28.34375 8.164062 C 28.3125 8.214844 28.28125 8.261719 28.25 8.3125 C 28.183594 8.316406 28.113281 8.324219 28.042969 8.328125 C 27.792969 8.378906 27.730469 8.429688 27.589844 8.632812 C 27.566406 8.671875 27.542969 8.707031 27.519531 8.742188 C 27.207031 9.183594 26.851562 9.53125 26.4375 9.875 C 26.394531 9.910156 26.355469 9.949219 26.3125 9.988281 C 25.929688 10.28125 25.457031 10.214844 25 10.1875 C 25.019531 10.144531 25.035156 10.101562 25.054688 10.054688 C 25.136719 9.855469 25.21875 9.652344 25.300781 9.453125 C 25.328125 9.386719 25.355469 9.316406 25.386719 9.246094 C 25.597656 8.730469 25.769531 8.214844 25.839844 7.660156 C 25.9375 7.003906 26.238281 6.675781 26.707031 6.246094 C 26.773438 6.183594 26.835938 6.121094 26.902344 6.058594 C 27.140625 5.828125 27.382812 5.605469 27.644531 5.398438 C 27.835938 5.265625 27.835938 5.265625 27.835938 5.042969 C 27.824219 4.960938 27.824219 4.960938 27.8125 4.875 C 27.578125 4.851562 27.472656 4.847656 27.28125 4.996094 C 27.234375 5.050781 27.183594 5.105469 27.132812 5.160156 C 26.90625 5.402344 26.675781 5.628906 26.421875 5.839844 C 26.296875 5.945312 26.296875 5.945312 26.164062 6.121094 C 25.976562 6.269531 25.941406 6.261719 25.714844 6.25 C 25.382812 6.246094 25.078125 6.285156 24.75 6.351562 C 24.695312 6.363281 24.636719 6.375 24.578125 6.382812 C 23.808594 6.542969 23.085938 6.800781 22.375 7.125 C 22.3125 7.125 22.25 7.125 22.1875 7.125 C 22.136719 6.667969 22.132812 6.332031 22.410156 5.949219 C 22.5 5.839844 22.59375 5.730469 22.6875 5.625 C 22.738281 5.5625 22.738281 5.5625 22.789062 5.496094 C 24.171875 3.75 26.65625 3.089844 28.757812 2.832031 C 29.109375 2.792969 29.457031 2.789062 29.8125 2.8125 Z M 29.8125 2.8125 "/>
<path style=" stroke:none;fill-rule:nonzero;fill:rgb(0%,68.235296%,29.803923%);fill-opacity:1;" d="M 3.9375 21.5625 C 3.992188 21.574219 4.042969 21.589844 4.101562 21.601562 C 5.054688 21.800781 6.027344 21.796875 7 21.8125 C 6.71875 22.472656 6.421875 22.933594 5.863281 23.398438 C 5.585938 23.644531 5.332031 23.917969 5.070312 24.179688 C 4.789062 24.46875 4.496094 24.738281 4.1875 25 C 3.941406 25.199219 3.941406 25.199219 3.855469 25.488281 C 3.863281 25.554688 3.863281 25.554688 3.875 25.625 C 4.019531 25.671875 4.019531 25.671875 4.1875 25.6875 C 4.3125 25.621094 4.3125 25.621094 4.417969 25.511719 C 4.460938 25.472656 4.503906 25.429688 4.546875 25.390625 C 4.753906 25.1875 4.957031 24.980469 5.160156 24.777344 C 5.484375 24.457031 5.835938 24.167969 6.1875 23.875 C 6.175781 23.9375 6.160156 24 6.148438 24.066406 C 6.042969 24.605469 5.964844 25.136719 5.9375 25.6875 C 7.007812 25.765625 8.066406 25.5 9.058594 25.113281 C 9.164062 25.070312 9.269531 25.035156 9.375 25 C 9.417969 25.019531 9.457031 25.042969 9.5 25.0625 C 7.785156 26.917969 5.050781 27.875 2.5625 28 C 2.25 28.007812 1.9375 28.003906 1.625 28 C 1.613281 27.582031 1.65625 27.210938 1.75 26.804688 C 1.832031 26.445312 1.890625 26.117188 1.875 25.75 C 1.832031 25.730469 1.792969 25.707031 1.75 25.6875 C 1.546875 25.214844 1.617188 24.851562 1.789062 24.382812 C 1.898438 24.210938 2 24.191406 2.1875 24.125 C 2.21875 24.0625 2.246094 24 2.277344 23.9375 C 2.308594 23.875 2.34375 23.8125 2.375 23.75 C 2.460938 23.734375 2.460938 23.734375 2.546875 23.71875 C 2.878906 23.566406 2.96875 23.257812 3.121094 22.9375 C 3.359375 22.449219 3.613281 22 3.9375 21.5625 Z M 3.9375 21.5625 "/>
<path style=" stroke:none;fill-rule:nonzero;fill:rgb(99.215686%,92.941177%,0%);fill-opacity:1;" d="M 13.8125 22.0625 C 13.925781 22.089844 13.925781 22.089844 14.039062 22.117188 C 15.261719 22.390625 16.515625 22.449219 17.734375 22.117188 C 17.9375 22.0625 17.9375 22.0625 18.125 22.0625 C 18.148438 22.949219 18.117188 23.796875 17.960938 24.667969 C 17.941406 24.796875 17.921875 24.925781 17.902344 25.054688 C 17.652344 26.546875 16.921875 27.832031 16 29 C 15.746094 28.765625 15.5625 28.519531 15.382812 28.226562 C 15.355469 28.183594 15.328125 28.136719 15.300781 28.09375 C 14.214844 26.296875 13.75 24.148438 13.8125 22.0625 Z M 13.8125 22.0625 "/>
<path style=" stroke:none;fill-rule:nonzero;fill:rgb(99.215686%,92.54902%,0%);fill-opacity:1;" d="M 21.9375 18.875 C 22.558594 19.40625 23.070312 19.972656 23.5625 20.625 C 23.601562 20.675781 23.640625 20.730469 23.679688 20.78125 C 24.542969 21.96875 25.5 23.609375 25.4375 25.125 C 25.019531 25.140625 24.65625 25.105469 24.25 25 C 24.179688 24.984375 24.113281 24.96875 24.042969 24.953125 C 23.433594 24.800781 22.875 24.585938 22.3125 24.3125 C 22.253906 24.285156 22.253906 24.285156 22.195312 24.257812 C 21.019531 23.683594 19.777344 22.828125 18.9375 21.8125 C 18.9375 21.769531 18.9375 21.730469 18.9375 21.6875 C 19.019531 21.640625 19.019531 21.640625 19.105469 21.59375 C 20.039062 21.128906 20.039062 21.128906 20.625 20.347656 C 20.644531 20.273438 20.667969 20.199219 20.6875 20.125 C 20.730469 20.0625 20.769531 20 20.8125 19.9375 C 20.878906 19.933594 20.945312 19.929688 21.015625 19.925781 C 21.3125 19.859375 21.371094 19.757812 21.53125 19.515625 C 21.578125 19.441406 21.578125 19.441406 21.621094 19.371094 C 21.652344 19.324219 21.683594 19.277344 21.714844 19.226562 C 21.789062 19.109375 21.863281 18.992188 21.9375 18.875 Z M 21.9375 18.875 "/>
<path style=" stroke:none;fill-rule:nonzero;fill:rgb(99.215686%,92.941177%,0%);fill-opacity:1;" d="M 9.9375 18.875 C 10.117188 19.039062 10.242188 19.230469 10.375 19.433594 C 11.078125 20.46875 11.964844 21.160156 13.0625 21.75 C 12.074219 22.972656 10.664062 23.851562 9.25 24.5 C 9.210938 24.519531 9.171875 24.535156 9.132812 24.554688 C 8.300781 24.929688 7.410156 25.148438 6.5 25.1875 C 6.558594 22.800781 8.277344 20.460938 9.9375 18.875 Z M 9.9375 18.875 "/>
<path style=" stroke:none;fill-rule:nonzero;fill:rgb(99.215686%,92.941177%,0%);fill-opacity:1;" d="M 22.4375 13.9375 C 24.867188 13.890625 27.414062 14.414062 29.375 15.9375 C 28.671875 16.679688 27.753906 17.078125 26.8125 17.4375 C 26.75 17.460938 26.75 17.460938 26.683594 17.488281 C 25.296875 18.015625 23.785156 18.121094 22.3125 18.0625 C 22.328125 17.992188 22.347656 17.925781 22.363281 17.855469 C 22.386719 17.765625 22.410156 17.671875 22.433594 17.582031 C 22.449219 17.515625 22.449219 17.515625 22.46875 17.445312 C 22.480469 17.402344 22.492188 17.355469 22.5 17.3125 C 22.511719 17.273438 22.523438 17.230469 22.53125 17.191406 C 22.773438 16.164062 22.707031 14.953125 22.4375 13.9375 Z M 22.4375 13.9375 "/>
<path style=" stroke:none;fill-rule:nonzero;fill:rgb(99.215686%,92.54902%,0%);fill-opacity:1;" d="M 9.5 13.9375 C 9.480469 14.015625 9.480469 14.015625 9.460938 14.09375 C 9.328125 14.660156 9.285156 15.179688 9.292969 15.757812 C 9.292969 15.875 9.292969 15.875 9.292969 15.996094 C 9.292969 16.8125 9.292969 16.8125 9.503906 17.59375 C 9.566406 17.761719 9.574219 17.886719 9.5625 18.0625 C 8.605469 18.085938 7.691406 18.0625 6.75 17.875 C 6.703125 17.867188 6.660156 17.859375 6.613281 17.847656 C 5.175781 17.566406 3.769531 16.984375 2.625 16.0625 C 2.835938 15.488281 3.90625 15.117188 4.4375 14.871094 C 6.019531 14.152344 7.773438 13.890625 9.5 13.9375 Z M 9.5 13.9375 "/>
<path style=" stroke:none;fill-rule:nonzero;fill:rgb(99.215686%,92.941177%,0%);fill-opacity:1;" d="M 6.5 6.8125 C 8.46875 6.886719 10.445312 7.957031 11.9375 9.1875 C 11.976562 9.21875 12.015625 9.253906 12.058594 9.285156 C 12.179688 9.386719 12.304688 9.492188 12.425781 9.59375 C 12.484375 9.640625 12.484375 9.640625 12.542969 9.691406 C 12.636719 9.769531 12.722656 9.855469 12.8125 9.9375 C 12.8125 9.980469 12.8125 10.019531 12.8125 10.0625 C 12.703125 10.128906 12.59375 10.195312 12.480469 10.253906 C 11.320312 10.914062 10.558594 11.878906 9.875 13 C 8.640625 12.015625 7.730469 10.632812 7.09375 9.203125 C 7.011719 9.019531 6.925781 8.851562 6.8125 8.6875 C 6.757812 8.667969 6.703125 8.648438 6.648438 8.628906 C 6.574219 8.597656 6.574219 8.597656 6.5 8.5625 C 6.449219 8.367188 6.449219 8.367188 6.4375 8.1875 C 6.5 8.144531 6.5625 8.105469 6.625 8.0625 C 6.621094 8.003906 6.621094 8.003906 6.613281 7.949219 C 6.574219 7.570312 6.539062 7.191406 6.5 6.8125 Z M 6.5 6.8125 "/>
<path style=" stroke:none;fill-rule:nonzero;fill:rgb(99.215686%,92.941177%,0%);fill-opacity:1;" d="M 25.4375 6.8125 C 25.519531 8.785156 24.167969 10.828125 22.886719 12.222656 C 22.636719 12.488281 22.382812 12.746094 22.125 13 C 21.960938 12.851562 21.855469 12.691406 21.742188 12.5 C 21.078125 11.441406 20.210938 10.664062 19.125 10.0625 C 19.125 10.019531 19.125 9.980469 19.125 9.9375 C 19.222656 9.847656 19.324219 9.765625 19.425781 9.683594 C 19.703125 9.460938 19.703125 9.460938 19.976562 9.234375 C 21.390625 8.042969 23.519531 6.738281 25.4375 6.8125 Z M 25.4375 6.8125 "/>
<path style=" stroke:none;fill-rule:nonzero;fill:rgb(99.215686%,92.941177%,0%);fill-opacity:1;" d="M 15.9375 3 C 17.378906 4.40625 18.105469 6.671875 18.132812 8.652344 C 18.132812 8.957031 18.128906 9.257812 18.125 9.5625 C 17.785156 9.53125 17.460938 9.480469 17.128906 9.402344 C 16.160156 9.195312 15.214844 9.332031 14.25 9.5 C 14.125 9.519531 14 9.542969 13.875 9.5625 C 13.851562 8.726562 13.882812 7.941406 14.0625 7.125 C 14.078125 7.046875 14.078125 7.046875 14.097656 6.96875 C 14.414062 5.523438 14.988281 4.148438 15.9375 3 Z M 15.9375 3 "/>
<path style=" stroke:none;fill-rule:nonzero;fill:rgb(34.117648%,14.901961%,4.313726%);fill-opacity:1;" d="M 19.875 11.152344 C 20.515625 11.699219 21.019531 12.265625 21.4375 13 C 21.472656 13.0625 21.507812 13.125 21.546875 13.1875 C 21.976562 13.988281 22.136719 14.851562 22.136719 15.753906 C 22.136719 15.820312 22.136719 15.886719 22.140625 15.957031 C 22.140625 17.164062 21.773438 18.414062 20.984375 19.355469 C 20.851562 19.5 20.851562 19.5 20.878906 19.71875 C 20.875 19.9375 20.875 19.9375 20.738281 20.125 C 20.679688 20.167969 20.621094 20.207031 20.5625 20.25 C 20.515625 20.234375 20.46875 20.222656 20.421875 20.207031 C 20.234375 20.167969 20.234375 20.167969 20.0625 20.3125 C 19.992188 20.375 19.925781 20.433594 19.855469 20.496094 C 19.398438 20.878906 18.914062 21.132812 18.375 21.375 C 18.300781 21.410156 18.226562 21.441406 18.148438 21.476562 C 17.132812 21.890625 16.039062 21.84375 15.03125 21.4375 C 14.539062 21.222656 14.0625 20.996094 13.625 20.6875 C 13.902344 20.601562 14.105469 20.683594 14.371094 20.773438 C 14.457031 20.800781 14.546875 20.832031 14.632812 20.859375 C 14.671875 20.875 14.710938 20.886719 14.75 20.902344 C 15.976562 21.265625 17.390625 20.996094 18.503906 20.417969 C 18.910156 20.195312 19.28125 19.941406 19.625 19.625 C 19.671875 19.582031 19.71875 19.542969 19.769531 19.5 C 20.738281 18.597656 21.226562 17.3125 21.332031 16.007812 C 21.375 14.585938 20.828125 13.289062 19.875 12.25 C 18.960938 11.304688 17.703125 10.714844 16.390625 10.671875 C 14.683594 10.644531 13.371094 11.023438 12.101562 12.199219 C 12.003906 12.296875 11.90625 12.398438 11.8125 12.5 C 11.8125 11.976562 12.464844 11.417969 12.8125 11.0625 C 14.738281 9.164062 17.859375 9.566406 19.875 11.152344 Z M 19.875 11.152344 "/>
<path style=" stroke:none;fill-rule:nonzero;fill:rgb(99.215686%,75.294119%,19.215687%);fill-opacity:1;" d="M 26.09375 18.480469 C 26.992188 19.230469 27.742188 20.035156 28.3125 21.0625 C 28.097656 21.1875 27.886719 21.230469 27.644531 21.28125 C 27.566406 21.296875 27.492188 21.3125 27.410156 21.328125 C 27.335938 21.34375 27.261719 21.359375 27.1875 21.375 C 27.074219 21.398438 26.964844 21.425781 26.851562 21.449219 C 26.777344 21.464844 26.703125 21.484375 26.625 21.5 C 26.605469 21.582031 26.582031 21.664062 26.5625 21.75 C 26.414062 21.730469 26.414062 21.730469 26.25 21.6875 C 26.207031 21.625 26.167969 21.5625 26.125 21.5 C 25.9375 21.480469 25.765625 21.46875 25.578125 21.464844 C 24.894531 21.449219 24.894531 21.449219 24.625 21.3125 C 24.523438 21.179688 24.445312 21.066406 24.363281 20.921875 C 23.9375 20.21875 23.425781 19.601562 22.863281 19.003906 C 22.628906 18.761719 22.628906 18.761719 22.5625 18.625 C 22.609375 18.621094 22.660156 18.621094 22.710938 18.617188 C 23.980469 18.542969 23.980469 18.542969 25.246094 18.367188 C 25.585938 18.308594 25.800781 18.285156 26.09375 18.480469 Z M 26.09375 18.480469 "/>
<path style=" stroke:none;fill-rule:nonzero;fill:rgb(98.823529%,75.294119%,19.215687%);fill-opacity:1;" d="M 10.9375 4 C 11.238281 4.085938 11.472656 4.214844 11.722656 4.398438 C 11.761719 4.425781 11.796875 4.453125 11.835938 4.480469 C 12.253906 4.789062 12.628906 5.140625 13 5.5 C 13.046875 5.542969 13.09375 5.589844 13.140625 5.632812 C 13.242188 5.734375 13.339844 5.832031 13.4375 5.9375 C 13.484375 5.984375 13.527344 6.035156 13.578125 6.085938 C 13.6875 6.25 13.6875 6.25 13.691406 6.414062 C 13.679688 6.472656 13.664062 6.53125 13.652344 6.59375 C 13.640625 6.664062 13.625 6.738281 13.609375 6.808594 C 13.597656 6.871094 13.597656 6.871094 13.585938 6.929688 C 13.539062 7.183594 13.503906 7.441406 13.46875 7.695312 C 13.460938 7.75 13.453125 7.804688 13.445312 7.863281 C 13.363281 8.429688 13.304688 8.996094 13.25 9.5625 C 13.027344 9.417969 12.820312 9.273438 12.628906 9.089844 C 12.074219 8.589844 11.453125 8.160156 10.816406 7.769531 C 10.6875 7.6875 10.6875 7.6875 10.5625 7.5625 C 10.515625 7.316406 10.511719 7.0625 10.5 6.8125 C 10.496094 6.734375 10.492188 6.660156 10.484375 6.582031 C 10.457031 5.792969 10.492188 4.667969 10.9375 4 Z M 10.9375 4 "/>
<path style=" stroke:none;fill-rule:nonzero;fill:rgb(98.823529%,75.294119%,19.215687%);fill-opacity:1;" d="M 21.1875 4.0625 C 21.378906 4.300781 21.441406 4.519531 21.5 4.8125 C 21.511719 4.859375 21.523438 4.910156 21.535156 4.960938 C 21.632812 5.414062 21.636719 5.867188 21.636719 6.332031 C 21.636719 6.398438 21.636719 6.460938 21.636719 6.527344 C 21.636719 6.652344 21.632812 6.777344 21.628906 6.898438 C 21.625 7.03125 21.628906 7.167969 21.632812 7.300781 C 21.519531 7.628906 21.242188 7.75 20.953125 7.925781 C 20.832031 8.003906 20.710938 8.078125 20.589844 8.15625 C 20.53125 8.195312 20.472656 8.230469 20.414062 8.269531 C 19.859375 8.628906 19.359375 9.058594 18.878906 9.511719 C 18.75 9.625 18.75 9.625 18.6875 9.625 C 18.6875 9.574219 18.6875 9.574219 18.683594 9.519531 C 18.664062 8.746094 18.601562 7.996094 18.484375 7.230469 C 18.472656 7.15625 18.472656 7.15625 18.460938 7.082031 C 18.445312 6.984375 18.425781 6.886719 18.40625 6.789062 C 18.355469 6.507812 18.351562 6.414062 18.507812 6.164062 C 18.570312 6.097656 18.636719 6.035156 18.703125 5.972656 C 18.738281 5.9375 18.773438 5.902344 18.808594 5.867188 C 18.910156 5.765625 19.019531 5.664062 19.125 5.5625 C 19.183594 5.507812 19.238281 5.449219 19.300781 5.390625 C 19.863281 4.855469 20.496094 4.417969 21.1875 4.0625 Z M 21.1875 4.0625 "/>
<path style=" stroke:none;fill-rule:nonzero;fill:rgb(99.215686%,75.294119%,19.215687%);fill-opacity:1;" d="M 13.25 22.4375 C 13.253906 22.488281 13.257812 22.542969 13.265625 22.59375 C 13.367188 23.84375 13.367188 23.84375 13.589844 25.074219 C 13.628906 25.269531 13.652344 25.425781 13.625 25.625 C 13.527344 25.761719 13.441406 25.867188 13.324219 25.984375 C 13.292969 26.015625 13.261719 26.050781 13.230469 26.082031 C 13.132812 26.179688 13.035156 26.277344 12.9375 26.375 C 12.851562 26.457031 12.851562 26.457031 12.765625 26.542969 C 12.144531 27.128906 11.464844 27.582031 10.6875 27.9375 C 10.375 27.109375 10.324219 26.136719 10.367188 25.257812 C 10.375 25.160156 10.375 25.0625 10.371094 24.964844 C 10.382812 24.5625 10.382812 24.5625 10.527344 24.394531 C 10.65625 24.304688 10.785156 24.230469 10.921875 24.15625 C 11.019531 24.097656 11.117188 24.039062 11.214844 23.984375 C 11.261719 23.953125 11.3125 23.925781 11.359375 23.898438 C 11.886719 23.578125 12.355469 23.160156 12.804688 22.746094 C 13.144531 22.4375 13.144531 22.4375 13.25 22.4375 Z M 13.25 22.4375 "/>
<path style=" stroke:none;fill-rule:nonzero;fill:rgb(99.607843%,75.686276%,19.215687%);fill-opacity:1;" d="M 25.257812 10.742188 C 25.332031 10.742188 25.40625 10.742188 25.484375 10.742188 C 25.597656 10.742188 25.597656 10.742188 25.71875 10.742188 C 25.792969 10.742188 25.871094 10.742188 25.949219 10.742188 C 26.621094 10.742188 27.273438 10.761719 27.921875 10.941406 C 27.964844 10.953125 28.011719 10.964844 28.054688 10.976562 C 28.164062 11.003906 28.269531 11.035156 28.375 11.0625 C 27.941406 12.015625 27.191406 12.789062 26.4375 13.5 C 26.390625 13.546875 26.339844 13.59375 26.289062 13.644531 C 25.957031 13.859375 25.582031 13.738281 25.214844 13.664062 C 25.125 13.648438 25.035156 13.628906 24.949219 13.613281 C 24.902344 13.605469 24.859375 13.59375 24.816406 13.585938 C 24.066406 13.445312 23.320312 13.402344 22.5625 13.375 C 22.765625 13.132812 22.976562 12.894531 23.195312 12.667969 C 23.738281 12.101562 24.191406 11.464844 24.625 10.8125 C 24.828125 10.734375 25.039062 10.742188 25.257812 10.742188 Z M 25.257812 10.742188 "/>
<path style=" stroke:none;fill-rule:nonzero;fill:rgb(99.215686%,75.294119%,19.215687%);fill-opacity:1;" d="M 6.152344 10.542969 C 6.21875 10.542969 6.285156 10.542969 6.351562 10.542969 C 7 10.546875 7 10.546875 7.25 10.6875 C 7.386719 10.839844 7.496094 11.003906 7.605469 11.175781 C 7.9375 11.667969 8.292969 12.117188 8.6875 12.5625 C 8.742188 12.625 8.796875 12.6875 8.851562 12.75 C 9.082031 13.035156 9.082031 13.035156 9.375 13.25 C 9.375 13.292969 9.375 13.332031 9.375 13.375 C 9.300781 13.375 9.222656 13.378906 9.144531 13.378906 C 8.1875 13.410156 7.203125 13.492188 6.273438 13.730469 C 6.125 13.75 6.125 13.75 5.9375 13.628906 C 5.871094 13.570312 5.804688 13.507812 5.738281 13.449219 C 5.703125 13.417969 5.667969 13.386719 5.628906 13.351562 C 5.523438 13.257812 5.417969 13.160156 5.3125 13.0625 C 5.230469 12.988281 5.230469 12.988281 5.144531 12.910156 C 4.539062 12.335938 4.015625 11.644531 3.6875 10.875 C 4.417969 10.53125 5.363281 10.546875 6.152344 10.542969 Z M 6.152344 10.542969 "/>
<path style=" stroke:none;fill-rule:nonzero;fill:rgb(99.215686%,75.686276%,19.215687%);fill-opacity:1;" d="M 6.039062 18.246094 C 6.101562 18.257812 6.160156 18.273438 6.222656 18.285156 C 6.292969 18.296875 6.367188 18.3125 6.441406 18.328125 C 6.480469 18.335938 6.519531 18.34375 6.558594 18.351562 C 7.496094 18.53125 8.421875 18.601562 9.375 18.625 C 9.160156 18.921875 8.9375 19.199219 8.683594 19.460938 C 8.269531 19.898438 7.929688 20.386719 7.585938 20.878906 C 7.542969 20.941406 7.542969 20.941406 7.5 21 C 7.476562 21.046875 7.449219 21.089844 7.421875 21.136719 C 7.3125 21.25 7.3125 21.25 7.113281 21.28125 C 7.03125 21.28125 6.949219 21.28125 6.867188 21.28125 C 6.824219 21.28125 6.777344 21.28125 6.734375 21.28125 C 6.589844 21.28125 6.449219 21.28125 6.304688 21.277344 C 6.230469 21.277344 6.230469 21.277344 6.160156 21.277344 C 5.464844 21.269531 4.796875 21.242188 4.125 21.0625 C 4.046875 21.042969 3.964844 21.023438 3.882812 21.003906 C 3.820312 20.984375 3.753906 20.960938 3.6875 20.9375 C 3.65625 20.84375 3.65625 20.84375 3.625 20.75 C 4.054688 19.890625 4.828125 19.105469 5.5625 18.5 C 5.636719 18.429688 5.636719 18.429688 5.714844 18.359375 C 5.875 18.25 5.875 18.25 6.039062 18.246094 Z M 6.039062 18.246094 "/>
<path style=" stroke:none;fill-rule:nonzero;fill:rgb(99.607843%,75.686276%,19.215687%);fill-opacity:1;" d="M 18.6875 22.375 C 18.894531 22.550781 19.101562 22.730469 19.308594 22.910156 C 19.886719 23.410156 20.503906 23.929688 21.183594 24.28125 C 21.3125 24.375 21.3125 24.375 21.351562 24.511719 C 21.394531 24.828125 21.386719 25.148438 21.386719 25.46875 C 21.386719 25.589844 21.386719 25.714844 21.390625 25.839844 C 21.390625 26.589844 21.304688 27.289062 21.0625 28 C 20.371094 27.796875 19.78125 27.285156 19.25 26.8125 C 19.210938 26.777344 19.167969 26.742188 19.128906 26.707031 C 18.996094 26.585938 18.863281 26.464844 18.734375 26.34375 C 18.691406 26.304688 18.648438 26.269531 18.605469 26.230469 C 18.324219 25.957031 18.324219 25.957031 18.296875 25.746094 C 18.3125 25.597656 18.339844 25.457031 18.375 25.3125 C 18.394531 25.195312 18.414062 25.082031 18.433594 24.964844 C 18.445312 24.902344 18.457031 24.839844 18.464844 24.777344 C 18.605469 23.976562 18.671875 23.1875 18.6875 22.375 Z M 18.6875 22.375 "/>
<path style=" stroke:none;fill-rule:nonzero;fill:rgb(29.019609%,12.156863%,3.921569%);fill-opacity:1;" d="M 13.9375 10.125 C 14 10.15625 14 10.15625 14.0625 10.1875 C 13.984375 10.238281 13.984375 10.238281 13.90625 10.289062 C 12.578125 11.179688 12.578125 11.179688 11.789062 12.492188 C 11.738281 12.660156 11.65625 12.765625 11.550781 12.90625 C 11.097656 13.542969 10.859375 14.183594 10.6875 14.9375 C 10.667969 15.011719 10.667969 15.011719 10.652344 15.085938 C 10.417969 16.542969 10.921875 17.886719 11.75 19.0625 C 12.257812 19.757812 12.996094 20.183594 13.75 20.5625 C 13.730469 20.605469 13.707031 20.644531 13.6875 20.6875 C 14.339844 21.050781 14.960938 21.386719 15.6875 21.5625 C 15.765625 21.582031 15.765625 21.582031 15.84375 21.601562 C 16.164062 21.679688 16.484375 21.71875 16.8125 21.75 C 16.8125 21.769531 16.8125 21.792969 16.8125 21.8125 C 14.835938 21.855469 13.195312 21.542969 11.6875 20.1875 C 11.644531 20.148438 11.601562 20.109375 11.554688 20.070312 C 10.585938 19.164062 9.867188 17.773438 9.804688 16.441406 C 9.753906 14.726562 9.753906 14.726562 10.0625 13.9375 C 10.078125 13.898438 10.09375 13.859375 10.105469 13.816406 C 10.683594 12.273438 11.863281 11.046875 13.351562 10.359375 C 13.546875 10.273438 13.738281 10.195312 13.9375 10.125 Z M 13.9375 10.125 "/>
<path style=" stroke:none;fill-rule:nonzero;fill:rgb(0%,49.019608%,19.607843%);fill-opacity:1;" d="M 3.9375 21.5625 C 3.992188 21.574219 4.042969 21.589844 4.101562 21.601562 C 5.054688 21.800781 6.027344 21.796875 7 21.8125 C 6.921875 21.976562 6.839844 22.140625 6.761719 22.304688 C 6.738281 22.351562 6.71875 22.398438 6.695312 22.445312 C 6.671875 22.492188 6.648438 22.535156 6.628906 22.582031 C 6.597656 22.644531 6.597656 22.644531 6.566406 22.707031 C 6.5 22.8125 6.5 22.8125 6.3125 22.9375 C 6.148438 22.929688 6.148438 22.929688 5.953125 22.898438 C 5.199219 22.773438 5.199219 22.773438 4.484375 22.957031 C 4.238281 23.207031 4.097656 23.511719 3.953125 23.824219 C 3.871094 24.007812 3.777344 24.179688 3.679688 24.355469 C 3.050781 25.492188 2.644531 26.605469 2.375 27.875 C 2.4375 27.917969 2.5 27.957031 2.5625 28 C 2.253906 28 1.945312 28 1.625 28 C 1.613281 27.582031 1.65625 27.210938 1.75 26.804688 C 1.832031 26.445312 1.890625 26.117188 1.875 25.75 C 1.832031 25.730469 1.792969 25.707031 1.75 25.6875 C 1.546875 25.214844 1.617188 24.851562 1.789062 24.382812 C 1.898438 24.210938 2 24.191406 2.1875 24.125 C 2.21875 24.0625 2.246094 24 2.277344 23.9375 C 2.308594 23.875 2.34375 23.8125 2.375 23.75 C 2.460938 23.734375 2.460938 23.734375 2.546875 23.71875 C 2.878906 23.566406 2.96875 23.257812 3.121094 22.9375 C 3.359375 22.449219 3.613281 22 3.9375 21.5625 Z M 3.9375 21.5625 "/>
<path style=" stroke:none;fill-rule:nonzero;fill:rgb(0%,49.019608%,19.607843%);fill-opacity:1;" d="M 29.8125 2.8125 C 29.8125 2.914062 29.8125 3.019531 29.8125 3.125 C 29.742188 3.121094 29.671875 3.121094 29.597656 3.117188 C 29.359375 3.117188 29.148438 3.148438 28.917969 3.207031 C 28.792969 3.238281 28.664062 3.269531 28.539062 3.292969 C 27.1875 3.59375 25.746094 4.238281 24.765625 5.234375 C 24.625 5.375 24.625 5.375 24.5 5.375 C 24.484375 5.410156 24.46875 5.449219 24.449219 5.484375 C 24.371094 5.632812 24.28125 5.738281 24.164062 5.863281 C 24.019531 6.023438 23.902344 6.175781 23.800781 6.367188 C 23.679688 6.574219 23.644531 6.597656 23.4375 6.6875 C 23.398438 6.707031 23.355469 6.722656 23.316406 6.742188 C 23.175781 6.800781 23.039062 6.855469 22.902344 6.914062 C 22.832031 6.945312 22.832031 6.945312 22.757812 6.976562 C 22.710938 6.996094 22.664062 7.015625 22.617188 7.035156 C 22.554688 7.058594 22.554688 7.058594 22.488281 7.085938 C 22.375 7.125 22.375 7.125 22.1875 7.125 C 22.136719 6.667969 22.132812 6.332031 22.410156 5.949219 C 22.5 5.839844 22.59375 5.730469 22.6875 5.625 C 22.738281 5.5625 22.738281 5.5625 22.789062 5.496094 C 24.171875 3.75 26.65625 3.089844 28.757812 2.832031 C 29.109375 2.792969 29.457031 2.789062 29.8125 2.8125 Z M 29.8125 2.8125 "/>
<path style=" stroke:none;fill-rule:nonzero;fill:rgb(55.29412%,31.37255%,13.333334%);fill-opacity:1;" d="M 17.3125 10 C 18.542969 10.140625 19.578125 10.839844 20.4375 11.6875 C 20.476562 11.722656 20.519531 11.761719 20.5625 11.796875 C 21.4375 12.59375 22.070312 13.988281 22.132812 15.167969 C 22.136719 15.363281 22.136719 15.558594 22.136719 15.753906 C 22.136719 15.820312 22.136719 15.886719 22.140625 15.957031 C 22.140625 17.164062 21.773438 18.414062 20.984375 19.355469 C 20.851562 19.5 20.851562 19.5 20.878906 19.71875 C 20.875 19.9375 20.875 19.9375 20.738281 20.125 C 20.652344 20.1875 20.652344 20.1875 20.5625 20.25 C 20.515625 20.234375 20.46875 20.222656 20.421875 20.207031 C 20.234375 20.167969 20.234375 20.167969 20.0625 20.3125 C 19.992188 20.375 19.925781 20.433594 19.855469 20.496094 C 19.53125 20.769531 19.207031 20.984375 18.828125 21.171875 C 18.761719 21.203125 18.761719 21.203125 18.695312 21.238281 C 18.59375 21.289062 18.484375 21.332031 18.375 21.375 C 18.332031 21.355469 18.292969 21.332031 18.25 21.3125 C 18.289062 21.289062 18.332031 21.265625 18.371094 21.242188 C 19.910156 20.304688 20.910156 18.9375 21.339844 17.183594 C 21.640625 15.636719 21.40625 14.171875 20.625 12.8125 C 20.589844 12.75 20.558594 12.691406 20.523438 12.625 C 19.808594 11.421875 18.621094 10.527344 17.3125 10.0625 C 17.3125 10.042969 17.3125 10.019531 17.3125 10 Z M 17.3125 10 "/>
<path style=" stroke:none;fill-rule:nonzero;fill:rgb(97.254902%,69.01961%,0.784314%);fill-opacity:1;" d="M 9.5 13.9375 C 9.480469 14 9.457031 14.0625 9.4375 14.125 C 9.394531 14.128906 9.351562 14.136719 9.308594 14.140625 C 7.4375 14.398438 5.335938 14.84375 3.78125 16 C 3.6875 16.0625 3.6875 16.0625 3.5625 16.0625 C 3.5625 16.105469 3.5625 16.144531 3.5625 16.1875 C 3.625 16.210938 3.625 16.210938 3.691406 16.234375 C 3.867188 16.308594 4.039062 16.394531 4.210938 16.480469 C 5.617188 17.207031 7 17.535156 8.5625 17.75 C 8.617188 17.757812 8.671875 17.765625 8.726562 17.773438 C 8.984375 17.808594 9.242188 17.84375 9.5 17.875 C 9.53125 17.8125 9.53125 17.8125 9.5625 17.75 C 9.5625 17.851562 9.5625 17.957031 9.5625 18.0625 C 8.605469 18.085938 7.691406 18.0625 6.75 17.875 C 6.703125 17.867188 6.660156 17.859375 6.613281 17.847656 C 5.175781 17.566406 3.769531 16.984375 2.625 16.0625 C 2.835938 15.488281 3.90625 15.117188 4.4375 14.871094 C 6.019531 14.152344 7.773438 13.890625 9.5 13.9375 Z M 9.5 13.9375 "/>
<path style=" stroke:none;fill-rule:nonzero;fill:rgb(2.352941%,88.235295%,37.254903%);fill-opacity:1;" d="M 29.0625 5.75 C 29.074219 5.875 29.085938 6.003906 29.097656 6.128906 C 29.117188 6.265625 29.117188 6.265625 29.25 6.375 C 29.222656 6.503906 29.222656 6.503906 29.1875 6.625 C 29.21875 6.65625 29.21875 6.65625 29.25 6.6875 C 29.308594 7.070312 29.175781 7.332031 28.988281 7.664062 C 28.824219 7.878906 28.6875 7.914062 28.4375 8 C 28.40625 8.054688 28.375 8.109375 28.34375 8.164062 C 28.3125 8.214844 28.28125 8.261719 28.25 8.3125 C 28.183594 8.316406 28.113281 8.324219 28.042969 8.328125 C 27.792969 8.378906 27.730469 8.429688 27.589844 8.632812 C 27.566406 8.671875 27.542969 8.707031 27.519531 8.742188 C 27.207031 9.183594 26.851562 9.53125 26.4375 9.875 C 26.394531 9.910156 26.355469 9.949219 26.3125 9.988281 C 25.929688 10.28125 25.457031 10.214844 25 10.1875 C 25.183594 9.734375 25.417969 9.53125 25.8125 9.25 C 26.320312 8.851562 26.707031 8.363281 27.082031 7.84375 C 27.117188 7.796875 27.152344 7.746094 27.1875 7.699219 C 27.445312 7.335938 27.683594 6.964844 27.90625 6.582031 C 28.164062 6.148438 28.535156 5.75 29.0625 5.75 Z M 29.0625 5.75 "/>
<path style=" stroke:none;fill-rule:nonzero;fill:rgb(98.039216%,69.411767%,0.784314%);fill-opacity:1;" d="M 15.9375 3 C 16.082031 3.144531 16.230469 3.292969 16.375 3.4375 C 16.355469 3.671875 16.21875 3.84375 16.09375 4.035156 C 15.082031 5.644531 14.5625 7.539062 14.5625 9.4375 C 14.222656 9.5 14.222656 9.5 13.875 9.5625 C 13.851562 8.726562 13.882812 7.941406 14.0625 7.125 C 14.078125 7.046875 14.078125 7.046875 14.097656 6.96875 C 14.414062 5.523438 14.988281 4.148438 15.9375 3 Z M 15.9375 3 "/>
<path style=" stroke:none;fill-rule:nonzero;fill:rgb(92.54902%,55.29412%,1.176471%);fill-opacity:1;" d="M 13.25 22.4375 C 13.253906 22.488281 13.257812 22.542969 13.265625 22.59375 C 13.367188 23.84375 13.367188 23.84375 13.589844 25.074219 C 13.628906 25.269531 13.648438 25.425781 13.625 25.625 C 13.503906 25.796875 13.503906 25.796875 13.347656 25.960938 C 13.296875 26.015625 13.246094 26.070312 13.191406 26.125 C 13.0625 26.25 13.0625 26.25 13 26.25 C 12.992188 26.175781 12.992188 26.175781 12.980469 26.101562 C 12.910156 25.609375 12.835938 25.199219 12.464844 24.847656 C 12.113281 24.621094 11.714844 24.636719 11.3125 24.6875 C 11.097656 24.769531 10.910156 24.867188 10.710938 24.980469 C 10.5625 25.0625 10.5625 25.0625 10.4375 25.0625 C 10.40625 24.867188 10.398438 24.695312 10.4375 24.5 C 10.570312 24.34375 10.738281 24.257812 10.917969 24.160156 C 11.015625 24.101562 11.113281 24.042969 11.210938 23.984375 C 11.261719 23.957031 11.308594 23.925781 11.359375 23.898438 C 11.886719 23.578125 12.355469 23.164062 12.804688 22.746094 C 13.144531 22.4375 13.144531 22.4375 13.25 22.4375 Z M 13.25 22.4375 "/>
<path style=" stroke:none;fill-rule:nonzero;fill:rgb(97.647059%,69.411767%,0.784314%);fill-opacity:1;" d="M 9.9375 18.875 C 10.117188 19.042969 10.207031 19.214844 10.3125 19.4375 C 10.289062 19.460938 10.269531 19.488281 10.246094 19.511719 C 8.90625 21.015625 7.253906 22.96875 7.0625 25.0625 C 7.105469 25.082031 7.144531 25.105469 7.1875 25.125 C 6.847656 25.15625 6.847656 25.15625 6.5 25.1875 C 6.601562 22.78125 8.25 20.484375 9.9375 18.875 Z M 9.9375 18.875 "/>
<path style=" stroke:none;fill-rule:nonzero;fill:rgb(92.941177%,55.29412%,1.176471%);fill-opacity:1;" d="M 13.25 5.8125 C 13.394531 5.957031 13.542969 6.105469 13.6875 6.25 C 13.679688 6.394531 13.679688 6.394531 13.644531 6.582031 C 13.632812 6.65625 13.621094 6.726562 13.605469 6.804688 C 13.597656 6.84375 13.59375 6.886719 13.585938 6.929688 C 13.542969 7.183594 13.503906 7.4375 13.46875 7.695312 C 13.457031 7.777344 13.457031 7.777344 13.445312 7.863281 C 13.363281 8.429688 13.304688 8.996094 13.25 9.5625 C 13.027344 9.417969 12.820312 9.273438 12.628906 9.089844 C 12.074219 8.589844 11.453125 8.160156 10.816406 7.769531 C 10.6875 7.6875 10.6875 7.6875 10.5625 7.5625 C 10.550781 7.398438 10.550781 7.398438 10.554688 7.210938 C 10.554688 7.148438 10.558594 7.085938 10.558594 7.019531 C 10.558594 6.972656 10.5625 6.925781 10.5625 6.875 C 10.695312 6.941406 10.824219 7.007812 10.953125 7.082031 C 11.433594 7.332031 11.902344 7.398438 12.4375 7.3125 C 12.808594 7.113281 12.972656 6.882812 13.125 6.5 C 13.183594 6.273438 13.222656 6.046875 13.25 5.8125 Z M 13.25 5.8125 "/>
<path style=" stroke:none;fill-rule:nonzero;fill:rgb(98.431373%,69.803923%,0.784314%);fill-opacity:1;" d="M 19.5 21.375 C 19.542969 21.417969 19.582031 21.457031 19.625 21.5 C 19.667969 21.542969 19.667969 21.542969 19.714844 21.585938 C 19.78125 21.65625 19.84375 21.722656 19.90625 21.789062 C 21.285156 23.253906 23.433594 24.4375 25.4375 24.6875 C 25.4375 24.832031 25.4375 24.976562 25.4375 25.125 C 25.019531 25.140625 24.65625 25.105469 24.25 25 C 24.148438 24.976562 24.148438 24.976562 24.042969 24.953125 C 23.433594 24.800781 22.875 24.585938 22.3125 24.3125 C 22.273438 24.292969 22.234375 24.273438 22.195312 24.257812 C 21.019531 23.683594 19.777344 22.828125 18.9375 21.8125 C 18.9375 21.769531 18.9375 21.730469 18.9375 21.6875 C 19.125 21.585938 19.308594 21.480469 19.5 21.375 Z M 19.5 21.375 "/>
<path style=" stroke:none;fill-rule:nonzero;fill:rgb(98.039216%,69.803923%,0.784314%);fill-opacity:1;" d="M 6.5 6.8125 C 6.746094 6.832031 6.996094 6.855469 7.25 6.875 C 7.207031 6.917969 7.167969 6.957031 7.125 7 C 7.257812 9.042969 8.769531 11.121094 10.1875 12.5 C 10.085938 12.664062 9.980469 12.828125 9.875 13 C 8.640625 12.015625 7.730469 10.632812 7.09375 9.203125 C 7.011719 9.019531 6.925781 8.851562 6.8125 8.6875 C 6.757812 8.667969 6.703125 8.648438 6.648438 8.628906 C 6.574219 8.597656 6.574219 8.597656 6.5 8.5625 C 6.449219 8.367188 6.449219 8.367188 6.4375 8.1875 C 6.5 8.144531 6.5625 8.105469 6.625 8.0625 C 6.621094 8.003906 6.621094 8.003906 6.613281 7.949219 C 6.574219 7.570312 6.539062 7.191406 6.5 6.8125 Z M 6.5 6.8125 "/>
<path style=" stroke:none;fill-rule:nonzero;fill:rgb(92.941177%,55.29412%,1.176471%);fill-opacity:1;" d="M 5.875 18.25 C 5.984375 18.261719 6.097656 18.277344 6.207031 18.296875 C 6.316406 18.316406 6.316406 18.316406 6.429688 18.332031 C 6.5625 18.355469 6.695312 18.375 6.824219 18.398438 C 7.675781 18.542969 8.511719 18.605469 9.375 18.625 C 9.160156 18.921875 8.9375 19.199219 8.683594 19.460938 C 8.269531 19.898438 7.929688 20.386719 7.585938 20.878906 C 7.542969 20.941406 7.542969 20.941406 7.5 21 C 7.46875 21.046875 7.4375 21.089844 7.40625 21.140625 C 7.3125 21.25 7.3125 21.25 7.171875 21.273438 C 7.121094 21.273438 7.070312 21.269531 7.019531 21.265625 C 6.96875 21.261719 6.917969 21.261719 6.867188 21.257812 C 6.828125 21.257812 6.789062 21.253906 6.75 21.25 C 6.765625 21.210938 6.785156 21.171875 6.800781 21.128906 C 6.824219 21.066406 6.851562 21.003906 6.875 20.9375 C 6.890625 20.898438 6.90625 20.863281 6.925781 20.824219 C 7.101562 20.382812 7.128906 19.90625 7.0625 19.4375 C 6.867188 19.09375 6.671875 18.875 6.296875 18.738281 C 6.03125 18.679688 5.769531 18.648438 5.5 18.625 C 5.625 18.5 5.75 18.375 5.875 18.25 Z M 5.875 18.25 "/>
<path style=" stroke:none;fill-rule:nonzero;fill:rgb(92.54902%,55.29412%,1.176471%);fill-opacity:1;" d="M 18.75 6 C 18.765625 6.0625 18.765625 6.0625 18.78125 6.125 C 18.925781 6.644531 19.113281 6.988281 19.5625 7.3125 C 19.96875 7.515625 20.472656 7.507812 20.898438 7.367188 C 21.027344 7.3125 21.160156 7.253906 21.289062 7.195312 C 21.4375 7.125 21.4375 7.125 21.5625 7.125 C 21.601562 7.285156 21.601562 7.285156 21.5625 7.5 C 21.378906 7.671875 21.167969 7.792969 20.957031 7.921875 C 20.835938 8 20.714844 8.078125 20.59375 8.15625 C 20.535156 8.191406 20.476562 8.230469 20.414062 8.269531 C 19.859375 8.628906 19.359375 9.058594 18.878906 9.511719 C 18.75 9.625 18.75 9.625 18.6875 9.625 C 18.6875 9.574219 18.6875 9.574219 18.683594 9.519531 C 18.664062 8.746094 18.601562 7.996094 18.484375 7.230469 C 18.46875 7.132812 18.453125 7.035156 18.4375 6.9375 C 18.429688 6.886719 18.421875 6.835938 18.414062 6.78125 C 18.40625 6.734375 18.398438 6.683594 18.390625 6.632812 C 18.382812 6.589844 18.378906 6.542969 18.371094 6.5 C 18.375 6.339844 18.425781 6.273438 18.523438 6.152344 C 18.6875 6 18.6875 6 18.75 6 Z M 18.75 6 "/>
<path style=" stroke:none;fill-rule:nonzero;fill:rgb(98.039216%,69.411767%,0.784314%);fill-opacity:1;" d="M 25.4375 6.8125 C 25.457031 7.277344 25.457031 7.277344 25.3125 7.5 C 25.25 7.496094 25.191406 7.496094 25.128906 7.492188 C 24.84375 7.492188 24.585938 7.558594 24.3125 7.632812 C 24.261719 7.648438 24.207031 7.660156 24.152344 7.675781 C 22.605469 8.109375 21.273438 8.914062 20.074219 9.96875 C 19.742188 10.257812 19.742188 10.257812 19.5625 10.3125 C 19.398438 10.253906 19.273438 10.160156 19.125 10.0625 C 19.125 10.019531 19.125 9.980469 19.125 9.9375 C 19.222656 9.847656 19.324219 9.765625 19.425781 9.683594 C 19.703125 9.460938 19.703125 9.460938 19.976562 9.234375 C 21.390625 8.042969 23.519531 6.738281 25.4375 6.8125 Z M 25.4375 6.8125 "/>
<path style=" stroke:none;fill-rule:nonzero;fill:rgb(91.764706%,55.29412%,1.568628%);fill-opacity:1;" d="M 5.3125 10.5625 C 5.566406 10.558594 5.816406 10.558594 6.070312 10.554688 C 6.175781 10.554688 6.175781 10.554688 6.285156 10.550781 C 6.355469 10.550781 6.425781 10.550781 6.496094 10.550781 C 6.59375 10.550781 6.59375 10.550781 6.6875 10.546875 C 6.941406 10.566406 7.164062 10.601562 7.351562 10.785156 C 7.375 10.824219 7.402344 10.863281 7.425781 10.902344 C 7.457031 10.945312 7.484375 10.992188 7.515625 11.035156 C 7.542969 11.082031 7.574219 11.128906 7.605469 11.175781 C 7.9375 11.667969 8.292969 12.117188 8.6875 12.5625 C 8.742188 12.625 8.796875 12.6875 8.851562 12.75 C 9.082031 13.035156 9.082031 13.035156 9.375 13.25 C 9.375 13.292969 9.375 13.332031 9.375 13.375 C 9.300781 13.375 9.222656 13.378906 9.144531 13.378906 C 8.191406 13.410156 7.199219 13.484375 6.269531 13.730469 C 6.222656 13.738281 6.175781 13.742188 6.125 13.75 C 5.949219 13.597656 5.949219 13.597656 5.8125 13.4375 C 5.851562 13.429688 5.894531 13.417969 5.933594 13.410156 C 6.417969 13.285156 6.753906 13.09375 7.027344 12.667969 C 7.144531 12.40625 7.152344 12.136719 7.160156 11.851562 C 7.164062 11.785156 7.164062 11.785156 7.164062 11.71875 C 7.160156 11.28125 7.035156 11.132812 6.8125 10.6875 C 6.316406 10.667969 5.824219 10.644531 5.3125 10.625 C 5.3125 10.605469 5.3125 10.582031 5.3125 10.5625 Z M 5.3125 10.5625 "/>
<path style=" stroke:none;fill-rule:nonzero;fill:rgb(97.647059%,69.411767%,0.784314%);fill-opacity:1;" d="M 13.8125 22.0625 C 14.039062 22.105469 14.265625 22.144531 14.5 22.1875 C 14.5 22.277344 14.496094 22.363281 14.496094 22.457031 C 14.488281 23.152344 14.503906 23.8125 14.625 24.5 C 14.632812 24.546875 14.640625 24.59375 14.648438 24.640625 C 14.875 26.003906 15.304688 27.617188 16.3125 28.625 C 16.210938 28.75 16.105469 28.871094 16 29 C 15.746094 28.765625 15.5625 28.519531 15.382812 28.226562 C 15.355469 28.183594 15.328125 28.136719 15.300781 28.09375 C 14.214844 26.296875 13.75 24.148438 13.8125 22.0625 Z M 13.8125 22.0625 "/>
<path style=" stroke:none;fill-rule:nonzero;fill:rgb(92.54902%,54.901963%,1.176471%);fill-opacity:1;" d="M 18.6875 22.375 C 18.894531 22.550781 19.101562 22.730469 19.308594 22.910156 C 19.886719 23.414062 20.503906 23.921875 21.183594 24.285156 C 21.3125 24.375 21.3125 24.375 21.355469 24.503906 C 21.363281 24.625 21.367188 24.75 21.375 24.875 C 21.167969 24.808594 20.972656 24.738281 20.777344 24.648438 C 20.351562 24.488281 19.824219 24.472656 19.40625 24.664062 C 19 24.910156 18.839844 25.230469 18.679688 25.664062 C 18.628906 25.804688 18.570312 25.933594 18.5 26.0625 C 18.40625 25.984375 18.40625 25.984375 18.3125 25.875 C 18.320312 25.679688 18.34375 25.503906 18.375 25.3125 C 18.390625 25.226562 18.390625 25.226562 18.402344 25.140625 C 18.425781 25.019531 18.445312 24.898438 18.464844 24.777344 C 18.605469 23.976562 18.671875 23.1875 18.6875 22.375 Z M 18.6875 22.375 "/>
<path style=" stroke:none;fill-rule:nonzero;fill:rgb(92.156863%,54.901963%,1.176471%);fill-opacity:1;" d="M 25.9375 18.375 C 26.113281 18.535156 26.113281 18.535156 26.25 18.6875 C 26.175781 18.703125 26.175781 18.703125 26.101562 18.71875 C 25.542969 18.84375 25.078125 19 24.75 19.5 C 24.554688 20.085938 24.765625 20.582031 25 21.125 C 25.042969 21.230469 25.082031 21.332031 25.125 21.4375 C 24.925781 21.433594 24.925781 21.433594 24.6875 21.375 C 24.566406 21.234375 24.480469 21.117188 24.390625 20.957031 C 24.335938 20.871094 24.28125 20.785156 24.230469 20.699219 C 24.203125 20.65625 24.175781 20.613281 24.144531 20.566406 C 23.777344 20 23.324219 19.492188 22.863281 19.003906 C 22.628906 18.761719 22.628906 18.761719 22.5625 18.625 C 22.609375 18.621094 22.660156 18.621094 22.710938 18.617188 C 23.980469 18.542969 23.980469 18.542969 25.246094 18.367188 C 25.492188 18.324219 25.695312 18.292969 25.9375 18.375 Z M 25.9375 18.375 "/>
<path style=" stroke:none;fill-rule:nonzero;fill:rgb(92.156863%,54.901963%,1.176471%);fill-opacity:1;" d="M 25.3125 10.75 C 25.3125 10.769531 25.3125 10.792969 25.3125 10.8125 C 25.265625 10.816406 25.214844 10.824219 25.164062 10.828125 C 24.996094 10.859375 24.996094 10.859375 24.914062 10.984375 C 24.683594 11.558594 24.621094 12.207031 24.867188 12.785156 C 25.148438 13.265625 25.679688 13.457031 26.1875 13.625 C 26.15625 13.6875 26.15625 13.6875 26.125 13.75 C 25.808594 13.757812 25.523438 13.726562 25.214844 13.664062 C 25.125 13.648438 25.035156 13.628906 24.949219 13.613281 C 24.902344 13.605469 24.859375 13.59375 24.816406 13.585938 C 24.066406 13.445312 23.320312 13.402344 22.5625 13.375 C 22.765625 13.132812 22.976562 12.894531 23.195312 12.667969 C 23.738281 12.101562 24.191406 11.464844 24.625 10.8125 C 24.84375 10.722656 25.078125 10.746094 25.3125 10.75 Z M 25.3125 10.75 "/>
<path style=" stroke:none;fill-rule:nonzero;fill:rgb(97.647059%,69.411767%,0.784314%);fill-opacity:1;" d="M 22.4375 13.9375 C 24.867188 13.890625 27.414062 14.414062 29.375 15.9375 C 29.3125 16 29.25 16.0625 29.1875 16.125 C 29.1875 16.082031 29.1875 16.042969 29.1875 16 C 29.144531 15.984375 29.101562 15.96875 29.058594 15.949219 C 28.890625 15.882812 28.726562 15.804688 28.566406 15.726562 C 26.640625 14.804688 24.675781 14.570312 22.5625 14.625 C 22.519531 14.398438 22.480469 14.171875 22.4375 13.9375 Z M 22.4375 13.9375 "/>
<path style=" stroke:none;fill-rule:nonzero;fill:rgb(2.352941%,87.058824%,36.862746%);fill-opacity:1;" d="M 9.5 25.0625 C 8.535156 26.105469 7.335938 26.773438 6.015625 27.261719 C 5.921875 27.296875 5.828125 27.332031 5.734375 27.367188 C 5.542969 27.441406 5.394531 27.5 5.1875 27.5 C 5.15625 27.164062 5.226562 27.011719 5.4375 26.75 C 5.585938 26.648438 5.746094 26.578125 5.910156 26.503906 C 6 26.460938 6.089844 26.417969 6.179688 26.375 C 6.246094 26.34375 6.246094 26.34375 6.3125 26.3125 C 6.660156 26.136719 6.984375 25.917969 7.296875 25.683594 C 7.546875 25.535156 7.789062 25.472656 8.074219 25.40625 C 8.480469 25.308594 8.867188 25.195312 9.253906 25.039062 C 9.375 25 9.375 25 9.5 25.0625 Z M 9.5 25.0625 "/>
<path style=" stroke:none;fill-rule:nonzero;fill:rgb(97.647059%,94.901961%,58.823532%);fill-opacity:1;" d="M 22.75 15.9375 C 23.214844 16.351562 23.25 17.042969 23.3125 17.625 C 24.785156 17.535156 26.234375 17.3125 27.628906 16.828125 C 27.820312 16.761719 27.980469 16.730469 28.1875 16.75 C 28.054688 16.894531 27.9375 16.976562 27.757812 17.054688 C 27.710938 17.074219 27.660156 17.09375 27.613281 17.117188 C 27.535156 17.148438 27.535156 17.148438 27.457031 17.179688 C 27.402344 17.203125 27.351562 17.222656 27.292969 17.246094 C 27.132812 17.3125 26.972656 17.375 26.8125 17.4375 C 26.769531 17.453125 26.730469 17.46875 26.6875 17.484375 C 25.292969 18.011719 23.785156 18.121094 22.3125 18.0625 C 22.328125 18 22.34375 17.941406 22.363281 17.875 C 22.5 17.355469 22.601562 16.847656 22.664062 16.3125 C 22.6875 16.125 22.6875 16.125 22.75 15.9375 Z M 22.75 15.9375 "/>
<path style=" stroke:none;fill-rule:nonzero;fill:rgb(97.647059%,94.901961%,58.823532%);fill-opacity:1;" d="M 21.9375 18.875 C 22.566406 19.398438 23.074219 19.972656 23.5625 20.625 C 23.621094 20.703125 23.621094 20.703125 23.679688 20.78125 C 25 22.601562 25 22.601562 25 23.3125 C 24.800781 23.296875 24.710938 23.273438 24.570312 23.125 C 24.402344 22.886719 24.277344 22.636719 24.148438 22.378906 C 23.871094 21.839844 23.558594 21.355469 23.1875 20.875 C 23.144531 20.816406 23.097656 20.761719 23.054688 20.703125 C 22.648438 20.191406 22.199219 19.722656 21.75 19.25 C 21.867188 18.945312 21.867188 18.945312 21.9375 18.875 Z M 21.9375 18.875 "/>
<path style=" stroke:none;fill-rule:nonzero;fill:rgb(96.862745%,94.117647%,58.431375%);fill-opacity:1;" d="M 17.125 4.9375 C 17.167969 4.9375 17.207031 4.9375 17.25 4.9375 C 17.894531 6.441406 18.171875 7.925781 18.125 9.5625 C 17.980469 9.542969 17.835938 9.519531 17.6875 9.5 C 17.640625 9.28125 17.613281 9.070312 17.601562 8.847656 C 17.558594 8.171875 17.507812 7.503906 17.378906 6.839844 C 17.367188 6.789062 17.359375 6.738281 17.347656 6.683594 C 17.296875 6.433594 17.234375 6.195312 17.148438 5.953125 C 17.078125 5.746094 17.039062 5.570312 17.046875 5.347656 C 17.046875 5.296875 17.046875 5.246094 17.050781 5.191406 C 17.0625 5.0625 17.0625 5.0625 17.125 4.9375 Z M 17.125 4.9375 "/>
<path style=" stroke:none;fill-rule:nonzero;fill:rgb(54.901963%,30.980393%,13.333334%);fill-opacity:1;" d="M 14.5 12.0625 C 14.679688 12.144531 14.8125 12.234375 14.953125 12.375 C 14.988281 12.410156 15.023438 12.445312 15.0625 12.480469 C 15.097656 12.519531 15.132812 12.554688 15.171875 12.59375 C 15.210938 12.632812 15.246094 12.667969 15.285156 12.707031 C 15.320312 12.742188 15.355469 12.777344 15.394531 12.8125 C 15.425781 12.847656 15.457031 12.878906 15.492188 12.914062 C 15.5625 13 15.5625 13 15.5625 13.125 C 15.46875 13.21875 15.46875 13.21875 15.339844 13.324219 C 15.089844 13.539062 14.855469 13.761719 14.625 14 C 14.371094 13.898438 14.207031 13.71875 14.023438 13.527344 C 13.816406 13.296875 13.816406 13.296875 13.5625 13.125 C 13.644531 12.941406 13.734375 12.8125 13.878906 12.671875 C 13.914062 12.636719 13.949219 12.601562 13.988281 12.5625 C 14.023438 12.527344 14.0625 12.492188 14.101562 12.453125 C 14.140625 12.414062 14.179688 12.378906 14.21875 12.339844 C 14.3125 12.246094 14.40625 12.15625 14.5 12.0625 Z M 14.5 12.0625 "/>
<path style=" stroke:none;fill-rule:nonzero;fill:rgb(55.29412%,31.37255%,13.333334%);fill-opacity:1;" d="M 17.3125 17.6875 C 17.496094 17.769531 17.625 17.859375 17.765625 18.003906 C 17.800781 18.039062 17.835938 18.074219 17.875 18.113281 C 17.910156 18.148438 17.945312 18.1875 17.984375 18.226562 C 18.023438 18.265625 18.058594 18.304688 18.097656 18.34375 C 18.191406 18.4375 18.28125 18.53125 18.375 18.625 C 18.082031 18.980469 17.765625 19.304688 17.4375 19.625 C 17.253906 19.542969 17.125 19.453125 16.984375 19.308594 C 16.949219 19.273438 16.914062 19.238281 16.875 19.199219 C 16.839844 19.164062 16.804688 19.125 16.765625 19.085938 C 16.726562 19.046875 16.691406 19.007812 16.652344 18.96875 C 16.558594 18.875 16.46875 18.78125 16.375 18.6875 C 16.667969 18.332031 16.984375 18.007812 17.3125 17.6875 Z M 17.3125 17.6875 "/>
<path style=" stroke:none;fill-rule:nonzero;fill:rgb(55.29412%,31.37255%,13.333334%);fill-opacity:1;" d="M 14.5 17.6875 C 14.683594 17.769531 14.8125 17.859375 14.953125 18.003906 C 14.988281 18.039062 15.023438 18.074219 15.0625 18.113281 C 15.097656 18.148438 15.132812 18.1875 15.171875 18.226562 C 15.210938 18.265625 15.246094 18.304688 15.285156 18.34375 C 15.378906 18.4375 15.46875 18.53125 15.5625 18.625 C 15.269531 18.980469 14.953125 19.304688 14.625 19.625 C 14.441406 19.542969 14.3125 19.453125 14.171875 19.308594 C 14.136719 19.273438 14.101562 19.238281 14.0625 19.199219 C 14.027344 19.164062 13.992188 19.125 13.953125 19.085938 C 13.914062 19.046875 13.878906 19.007812 13.839844 18.96875 C 13.746094 18.875 13.65625 18.78125 13.5625 18.6875 C 13.855469 18.332031 14.171875 18.007812 14.5 17.6875 Z M 14.5 17.6875 "/>
<path style=" stroke:none;fill-rule:nonzero;fill:rgb(55.29412%,31.37255%,13.333334%);fill-opacity:1;" d="M 18.75 16.25 C 19.105469 16.542969 19.429688 16.859375 19.75 17.1875 C 19.667969 17.371094 19.578125 17.5 19.433594 17.640625 C 19.398438 17.675781 19.363281 17.710938 19.324219 17.75 C 19.289062 17.785156 19.25 17.820312 19.210938 17.859375 C 19.171875 17.898438 19.132812 17.933594 19.09375 17.972656 C 19 18.066406 18.90625 18.15625 18.8125 18.25 C 18.457031 17.957031 18.132812 17.640625 17.8125 17.3125 C 17.894531 17.128906 17.984375 17 18.128906 16.859375 C 18.164062 16.824219 18.199219 16.789062 18.238281 16.75 C 18.273438 16.714844 18.3125 16.679688 18.351562 16.640625 C 18.390625 16.601562 18.429688 16.566406 18.46875 16.527344 C 18.5625 16.433594 18.65625 16.34375 18.75 16.25 Z M 18.75 16.25 "/>
<path style=" stroke:none;fill-rule:nonzero;fill:rgb(55.29412%,31.37255%,13.333334%);fill-opacity:1;" d="M 15.9375 16.25 C 16.292969 16.542969 16.617188 16.859375 16.9375 17.1875 C 16.855469 17.371094 16.765625 17.5 16.621094 17.640625 C 16.585938 17.675781 16.550781 17.710938 16.511719 17.75 C 16.476562 17.785156 16.4375 17.820312 16.398438 17.859375 C 16.359375 17.898438 16.320312 17.933594 16.28125 17.972656 C 16.1875 18.066406 16.09375 18.15625 16 18.25 C 15.644531 17.957031 15.320312 17.640625 15 17.3125 C 15.082031 17.128906 15.171875 17 15.316406 16.859375 C 15.351562 16.824219 15.386719 16.789062 15.425781 16.75 C 15.460938 16.714844 15.5 16.679688 15.539062 16.640625 C 15.578125 16.601562 15.617188 16.566406 15.65625 16.527344 C 15.75 16.433594 15.84375 16.34375 15.9375 16.25 Z M 15.9375 16.25 "/>
<path style=" stroke:none;fill-rule:nonzero;fill:rgb(55.29412%,31.37255%,13.333334%);fill-opacity:1;" d="M 13.125 16.25 C 13.480469 16.542969 13.804688 16.859375 14.125 17.1875 C 14.042969 17.371094 13.953125 17.5 13.808594 17.640625 C 13.773438 17.675781 13.738281 17.710938 13.699219 17.75 C 13.664062 17.785156 13.625 17.820312 13.585938 17.859375 C 13.546875 17.898438 13.507812 17.933594 13.46875 17.972656 C 13.375 18.066406 13.28125 18.15625 13.1875 18.25 C 12.832031 17.957031 12.507812 17.640625 12.1875 17.3125 C 12.269531 17.128906 12.359375 17 12.503906 16.859375 C 12.539062 16.824219 12.574219 16.789062 12.613281 16.75 C 12.648438 16.714844 12.6875 16.679688 12.726562 16.640625 C 12.765625 16.601562 12.804688 16.566406 12.84375 16.527344 C 12.9375 16.433594 13.03125 16.34375 13.125 16.25 Z M 13.125 16.25 "/>
<path style=" stroke:none;fill-rule:nonzero;fill:rgb(55.29412%,31.37255%,13.333334%);fill-opacity:1;" d="M 17.3125 14.875 C 17.496094 14.957031 17.625 15.046875 17.765625 15.191406 C 17.800781 15.226562 17.835938 15.261719 17.875 15.300781 C 17.910156 15.335938 17.945312 15.375 17.984375 15.414062 C 18.023438 15.453125 18.058594 15.492188 18.097656 15.53125 C 18.191406 15.625 18.28125 15.71875 18.375 15.8125 C 18.082031 16.167969 17.765625 16.492188 17.4375 16.8125 C 17.253906 16.730469 17.125 16.640625 16.984375 16.496094 C 16.949219 16.460938 16.914062 16.425781 16.875 16.386719 C 16.839844 16.351562 16.804688 16.3125 16.765625 16.273438 C 16.726562 16.234375 16.691406 16.195312 16.652344 16.15625 C 16.558594 16.0625 16.46875 15.96875 16.375 15.875 C 16.667969 15.519531 16.984375 15.195312 17.3125 14.875 Z M 17.3125 14.875 "/>
<path style=" stroke:none;fill-rule:nonzero;fill:rgb(55.29412%,31.37255%,13.333334%);fill-opacity:1;" d="M 14.5 14.875 C 14.683594 14.957031 14.8125 15.046875 14.953125 15.191406 C 14.988281 15.226562 15.023438 15.261719 15.0625 15.300781 C 15.097656 15.335938 15.132812 15.375 15.171875 15.414062 C 15.210938 15.453125 15.246094 15.492188 15.285156 15.53125 C 15.378906 15.625 15.46875 15.71875 15.5625 15.8125 C 15.269531 16.167969 14.953125 16.492188 14.625 16.8125 C 14.441406 16.730469 14.3125 16.640625 14.171875 16.496094 C 14.136719 16.460938 14.101562 16.425781 14.0625 16.386719 C 14.027344 16.351562 13.992188 16.3125 13.953125 16.273438 C 13.914062 16.234375 13.878906 16.195312 13.839844 16.15625 C 13.746094 16.0625 13.65625 15.96875 13.5625 15.875 C 13.855469 15.519531 14.171875 15.195312 14.5 14.875 Z M 14.5 14.875 "/>
<path style=" stroke:none;fill-rule:nonzero;fill:rgb(54.901963%,31.37255%,13.333334%);fill-opacity:1;" d="M 18.8125 13.511719 C 18.953125 13.570312 19.03125 13.636719 19.140625 13.746094 C 19.175781 13.78125 19.210938 13.820312 19.25 13.855469 C 19.285156 13.894531 19.320312 13.933594 19.359375 13.972656 C 19.398438 14.011719 19.433594 14.050781 19.472656 14.089844 C 19.566406 14.183594 19.65625 14.28125 19.75 14.375 C 19.667969 14.554688 19.578125 14.6875 19.441406 14.828125 C 19.402344 14.863281 19.367188 14.898438 19.332031 14.9375 C 19.292969 14.972656 19.257812 15.007812 19.21875 15.046875 C 19.179688 15.085938 19.144531 15.121094 19.105469 15.160156 C 19.070312 15.195312 19.035156 15.230469 19 15.269531 C 18.964844 15.300781 18.933594 15.332031 18.898438 15.367188 C 18.8125 15.4375 18.8125 15.4375 18.6875 15.4375 C 18.59375 15.34375 18.59375 15.34375 18.488281 15.214844 C 18.273438 14.964844 18.050781 14.730469 17.8125 14.5 C 17.917969 14.234375 18.105469 14.054688 18.304688 13.855469 C 18.335938 13.820312 18.371094 13.785156 18.40625 13.75 C 18.652344 13.496094 18.652344 13.496094 18.8125 13.511719 Z M 18.8125 13.511719 "/>
<path style=" stroke:none;fill-rule:nonzero;fill:rgb(55.29412%,31.37255%,13.333334%);fill-opacity:1;" d="M 15.9375 13.4375 C 16.292969 13.730469 16.617188 14.046875 16.9375 14.375 C 16.855469 14.558594 16.765625 14.6875 16.621094 14.828125 C 16.585938 14.863281 16.550781 14.898438 16.511719 14.9375 C 16.476562 14.972656 16.4375 15.007812 16.398438 15.046875 C 16.359375 15.085938 16.320312 15.121094 16.28125 15.160156 C 16.1875 15.253906 16.09375 15.34375 16 15.4375 C 15.644531 15.144531 15.320312 14.828125 15 14.5 C 15.082031 14.316406 15.171875 14.1875 15.316406 14.046875 C 15.351562 14.011719 15.386719 13.976562 15.425781 13.9375 C 15.460938 13.902344 15.5 13.867188 15.539062 13.828125 C 15.578125 13.789062 15.617188 13.753906 15.65625 13.714844 C 15.75 13.621094 15.84375 13.53125 15.9375 13.4375 Z M 15.9375 13.4375 "/>
<path style=" stroke:none;fill-rule:nonzero;fill:rgb(54.901963%,31.37255%,13.333334%);fill-opacity:1;" d="M 17.3125 12.0625 C 17.578125 12.167969 17.757812 12.355469 17.957031 12.554688 C 17.992188 12.585938 18.027344 12.621094 18.0625 12.65625 C 18.164062 12.753906 18.164062 12.753906 18.3125 12.9375 C 18.296875 13.144531 18.210938 13.246094 18.066406 13.390625 C 18.03125 13.425781 17.992188 13.460938 17.957031 13.5 C 17.917969 13.535156 17.878906 13.570312 17.839844 13.609375 C 17.800781 13.648438 17.761719 13.683594 17.722656 13.722656 C 17.628906 13.816406 17.53125 13.90625 17.4375 14 C 17.1875 13.886719 17.023438 13.722656 16.835938 13.527344 C 16.628906 13.296875 16.628906 13.296875 16.375 13.125 C 16.457031 12.941406 16.546875 12.8125 16.691406 12.671875 C 16.726562 12.636719 16.761719 12.601562 16.800781 12.5625 C 16.835938 12.527344 16.875 12.492188 16.914062 12.453125 C 16.953125 12.414062 16.992188 12.378906 17.03125 12.339844 C 17.125 12.246094 17.21875 12.15625 17.3125 12.0625 Z M 17.3125 12.0625 "/>
<path style=" stroke:none;fill-rule:nonzero;fill:rgb(54.901963%,31.37255%,13.333334%);fill-opacity:1;" d="M 13.1875 13.511719 C 13.328125 13.570312 13.40625 13.636719 13.515625 13.746094 C 13.550781 13.78125 13.585938 13.820312 13.625 13.855469 C 13.660156 13.894531 13.695312 13.933594 13.734375 13.972656 C 13.773438 14.011719 13.808594 14.050781 13.847656 14.089844 C 13.941406 14.183594 14.03125 14.28125 14.125 14.375 C 14.042969 14.558594 13.953125 14.6875 13.808594 14.828125 C 13.773438 14.863281 13.738281 14.898438 13.699219 14.9375 C 13.664062 14.972656 13.625 15.007812 13.585938 15.046875 C 13.546875 15.085938 13.507812 15.121094 13.46875 15.160156 C 13.375 15.253906 13.28125 15.34375 13.1875 15.4375 C 12.832031 15.144531 12.507812 14.828125 12.1875 14.5 C 12.292969 14.234375 12.480469 14.054688 12.679688 13.855469 C 12.710938 13.820312 12.746094 13.785156 12.78125 13.75 C 13.027344 13.496094 13.027344 13.496094 13.1875 13.511719 Z M 13.1875 13.511719 "/>
<path style=" stroke:none;fill-rule:nonzero;fill:rgb(97.647059%,94.901961%,58.823532%);fill-opacity:1;" d="M 8.75 7.375 C 10.132812 7.769531 11.339844 8.675781 12.421875 9.589844 C 12.460938 9.621094 12.5 9.65625 12.539062 9.6875 C 12.632812 9.769531 12.722656 9.851562 12.8125 9.9375 C 12.8125 9.980469 12.8125 10.019531 12.8125 10.0625 C 12.597656 10.191406 12.597656 10.191406 12.441406 10.171875 C 12.285156 10.113281 12.203125 10.035156 12.082031 9.917969 C 11.351562 9.25 10.480469 8.722656 9.625 8.230469 C 9.558594 8.195312 9.558594 8.195312 9.492188 8.15625 C 9.410156 8.109375 9.328125 8.0625 9.246094 8.015625 C 9.007812 7.875 8.867188 7.753906 8.75 7.5 C 8.75 7.457031 8.75 7.417969 8.75 7.375 Z M 8.75 7.375 "/>
<path style=" stroke:none;fill-rule:nonzero;fill:rgb(0%,0%,0%);fill-opacity:1;" d="M 7.113281 2.605469 C 7.363281 2.628906 7.414062 2.691406 7.574219 2.882812 C 7.644531 2.96875 7.644531 2.96875 7.71875 3.054688 C 7.796875 3.152344 7.796875 3.152344 7.875 3.25 C 7.917969 3.300781 7.917969 3.300781 7.960938 3.355469 C 8.109375 3.542969 8.253906 3.726562 8.398438 3.917969 C 8.5 4.042969 8.597656 4.167969 8.703125 4.292969 C 8.992188 4.636719 8.992188 4.636719 9.039062 4.902344 C 9 5.0625 9 5.0625 8.8125 5.1875 C 8.613281 5.179688 8.519531 5.144531 8.367188 5.011719 C 8.027344 4.613281 7.703125 4.207031 7.390625 3.789062 C 7.3125 3.6875 7.238281 3.589844 7.160156 3.492188 C 7.113281 3.433594 7.066406 3.375 7.019531 3.3125 C 6.976562 3.257812 6.9375 3.207031 6.894531 3.152344 C 6.8125 3 6.8125 3 6.828125 2.828125 C 6.894531 2.628906 6.894531 2.628906 7.113281 2.605469 Z M 7.113281 2.605469 "/>
<path style=" stroke:none;fill-rule:nonzero;fill:rgb(42.352942%,21.960784%,8.235294%);fill-opacity:1;" d="M 11.6875 14.875 C 11.871094 14.957031 12 15.046875 12.140625 15.191406 C 12.175781 15.226562 12.210938 15.261719 12.25 15.300781 C 12.285156 15.335938 12.320312 15.375 12.359375 15.414062 C 12.398438 15.453125 12.433594 15.492188 12.472656 15.53125 C 12.566406 15.625 12.65625 15.71875 12.75 15.8125 C 12.660156 15.917969 12.570312 16.023438 12.476562 16.128906 C 12.386719 16.234375 12.300781 16.34375 12.210938 16.453125 C 12.085938 16.597656 11.972656 16.707031 11.8125 16.8125 C 11.523438 16.679688 11.300781 16.523438 11.125 16.25 C 11.0625 15.988281 11.0625 15.761719 11.125 15.5 C 11.246094 15.300781 11.390625 15.152344 11.5625 15 C 11.605469 14.957031 11.644531 14.917969 11.6875 14.875 Z M 11.6875 14.875 "/>
<path style=" stroke:none;fill-rule:nonzero;fill:rgb(87.450981%,60.000002%,41.960785%);fill-opacity:1;" d="M 20.125 14.875 C 20.433594 15.011719 20.640625 15.210938 20.8125 15.5 C 20.875 15.742188 20.875 15.945312 20.8125 16.1875 C 20.632812 16.488281 20.4375 16.65625 20.125 16.8125 C 19.816406 16.503906 19.507812 16.195312 19.1875 15.875 C 19.410156 15.613281 19.625 15.367188 19.867188 15.128906 C 19.914062 15.082031 19.964844 15.03125 20.015625 14.984375 C 20.050781 14.945312 20.085938 14.910156 20.125 14.875 Z M 20.125 14.875 "/>
<path style=" stroke:none;fill-rule:nonzero;fill:rgb(97.647059%,94.901961%,57.647061%);fill-opacity:1;" d="M 18.125 22.0625 C 18.148438 22.949219 18.117188 23.796875 17.960938 24.667969 C 17.941406 24.796875 17.921875 24.925781 17.902344 25.054688 C 17.761719 25.882812 17.453125 26.699219 17.0625 27.4375 C 17.019531 27.4375 16.980469 27.4375 16.9375 27.4375 C 16.910156 27.1875 16.949219 27.015625 17.046875 26.792969 C 17.589844 25.496094 17.683594 23.960938 17.769531 22.574219 C 17.773438 22.515625 17.777344 22.457031 17.78125 22.398438 C 17.785156 22.347656 17.789062 22.296875 17.789062 22.242188 C 17.796875 22.203125 17.804688 22.164062 17.8125 22.125 C 17.9375 22.0625 17.9375 22.0625 18.125 22.0625 Z M 18.125 22.0625 "/>
<path style=" stroke:none;fill-rule:nonzero;fill:rgb(55.29412%,31.37255%,13.333334%);fill-opacity:1;" d="M 15.964844 11.144531 C 16.015625 11.144531 16.070312 11.140625 16.121094 11.140625 C 16.414062 11.140625 16.578125 11.167969 16.789062 11.378906 C 16.863281 11.46875 16.863281 11.46875 16.9375 11.5625 C 16.855469 11.746094 16.765625 11.875 16.621094 12.015625 C 16.566406 12.070312 16.566406 12.070312 16.511719 12.125 C 16.476562 12.160156 16.4375 12.195312 16.398438 12.234375 C 16.359375 12.273438 16.320312 12.308594 16.28125 12.347656 C 16.1875 12.441406 16.09375 12.53125 16 12.625 C 15.726562 12.394531 15.464844 12.160156 15.21875 11.902344 C 15.128906 11.804688 15.128906 11.804688 15 11.75 C 15.019531 11.570312 15.074219 11.484375 15.183594 11.335938 C 15.445312 11.132812 15.640625 11.140625 15.964844 11.144531 Z M 15.964844 11.144531 "/>
<path style=" stroke:none;fill-rule:nonzero;fill:rgb(55.29412%,31.37255%,13.333334%);fill-opacity:1;" d="M 15.9375 19.0625 C 16.292969 19.355469 16.617188 19.671875 16.9375 20 C 16.847656 20.214844 16.753906 20.363281 16.5625 20.5 C 16.367188 20.539062 16.175781 20.539062 15.976562 20.539062 C 15.925781 20.542969 15.871094 20.542969 15.816406 20.546875 C 15.597656 20.546875 15.4375 20.542969 15.253906 20.414062 C 15.148438 20.308594 15.148438 20.308594 15 20.125 C 15.082031 19.941406 15.171875 19.8125 15.316406 19.671875 C 15.351562 19.636719 15.386719 19.601562 15.425781 19.5625 C 15.460938 19.527344 15.5 19.492188 15.539062 19.453125 C 15.578125 19.414062 15.617188 19.378906 15.65625 19.339844 C 15.75 19.246094 15.84375 19.15625 15.9375 19.0625 Z M 15.9375 19.0625 "/>
<path style=" stroke:none;fill-rule:nonzero;fill:rgb(97.254902%,94.509804%,58.823532%);fill-opacity:1;" d="M 12.6875 21.5625 C 12.8125 21.625 12.933594 21.6875 13.0625 21.75 C 12.101562 22.941406 10.746094 23.792969 9.375 24.4375 C 9.355469 24.355469 9.332031 24.273438 9.3125 24.1875 C 9.59375 23.957031 9.878906 23.742188 10.191406 23.550781 C 11.085938 22.992188 11.949219 22.316406 12.6875 21.5625 Z M 12.6875 21.5625 "/>
<path style=" stroke:none;fill-rule:nonzero;fill:rgb(0%,0%,0%);fill-opacity:1;" d="M 24.734375 27.71875 C 25.019531 27.761719 25.128906 27.921875 25.296875 28.136719 C 25.328125 28.175781 25.359375 28.214844 25.394531 28.253906 C 25.492188 28.378906 25.589844 28.5 25.6875 28.625 C 25.75 28.703125 25.8125 28.777344 25.871094 28.855469 C 26.355469 29.460938 26.355469 29.460938 26.375 29.6875 C 26.304688 29.828125 26.304688 29.828125 26.1875 29.9375 C 26.039062 29.960938 26.039062 29.960938 25.875 29.9375 C 25.738281 29.824219 25.738281 29.824219 25.605469 29.664062 C 25.53125 29.578125 25.53125 29.578125 25.457031 29.492188 C 25.410156 29.433594 25.363281 29.375 25.3125 29.3125 C 25.269531 29.257812 25.222656 29.203125 25.179688 29.148438 C 25.054688 28.996094 24.933594 28.84375 24.8125 28.6875 C 24.773438 28.640625 24.738281 28.59375 24.699219 28.546875 C 24.664062 28.503906 24.628906 28.460938 24.59375 28.417969 C 24.5625 28.378906 24.53125 28.34375 24.5 28.304688 C 24.417969 28.152344 24.417969 28.046875 24.4375 27.875 C 24.5625 27.75 24.5625 27.75 24.734375 27.71875 Z M 24.734375 27.71875 "/>
<path style=" stroke:none;fill-rule:nonzero;fill:rgb(0%,0%,0%);fill-opacity:1;" d="M 24.734375 -0.0351562 C 24.9375 0 24.9375 0 25 0.0625 C 25.027344 0.394531 24.980469 0.589844 24.816406 0.875 C 24.777344 0.945312 24.738281 1.011719 24.699219 1.082031 C 24.65625 1.152344 24.617188 1.222656 24.574219 1.292969 C 24.515625 1.398438 24.515625 1.398438 24.453125 1.507812 C 24.085938 2.144531 24.085938 2.144531 23.9375 2.3125 C 23.746094 2.335938 23.746094 2.335938 23.5625 2.3125 C 23.4375 2.1875 23.4375 2.1875 23.40625 2.03125 C 23.453125 1.699219 23.621094 1.449219 23.792969 1.164062 C 23.824219 1.105469 23.859375 1.050781 23.894531 0.992188 C 23.960938 0.878906 24.023438 0.769531 24.09375 0.65625 C 24.152344 0.554688 24.214844 0.453125 24.273438 0.347656 C 24.3125 0.28125 24.3125 0.28125 24.355469 0.210938 C 24.375 0.171875 24.398438 0.128906 24.421875 0.0898438 C 24.5 0 24.5 0 24.734375 -0.0351562 Z M 24.734375 -0.0351562 "/>
<path style=" stroke:none;fill-rule:nonzero;fill:rgb(0%,0%,0%);fill-opacity:1;" d="M 31.1875 12.5 C 31.3125 12.6875 31.3125 12.6875 31.289062 12.886719 C 31.277344 12.945312 31.261719 13.003906 31.25 13.0625 C 31.03125 13.132812 30.8125 13.203125 30.59375 13.273438 C 30.53125 13.292969 30.472656 13.3125 30.40625 13.332031 C 29.363281 13.667969 29.363281 13.667969 28.9375 13.625 C 28.8125 13.4375 28.8125 13.4375 28.8125 13.28125 C 28.886719 13.101562 28.949219 13.066406 29.121094 12.988281 C 29.417969 12.871094 29.726562 12.792969 30.03125 12.707031 C 30.101562 12.6875 30.171875 12.667969 30.242188 12.644531 C 30.308594 12.628906 30.378906 12.609375 30.445312 12.589844 C 30.539062 12.5625 30.539062 12.5625 30.632812 12.539062 C 30.824219 12.496094 30.992188 12.480469 31.1875 12.5 Z M 31.1875 12.5 "/>
<path style=" stroke:none;fill-rule:nonzero;fill:rgb(0%,0%,0%);fill-opacity:1;" d="M 2.125 6.5 C 2.257812 6.613281 2.375 6.734375 2.496094 6.863281 C 2.617188 6.992188 2.746094 7.109375 2.878906 7.226562 C 2.917969 7.261719 2.960938 7.296875 3.003906 7.335938 C 3.085938 7.402344 3.167969 7.46875 3.253906 7.535156 C 3.554688 7.769531 3.554688 7.769531 3.597656 8.015625 C 3.5625 8.1875 3.5625 8.1875 3.4375 8.3125 C 3.269531 8.347656 3.269531 8.347656 3.0625 8.3125 C 2.890625 8.195312 2.75 8.050781 2.601562 7.902344 C 2.519531 7.820312 2.4375 7.742188 2.351562 7.660156 C 2.3125 7.621094 2.273438 7.582031 2.234375 7.542969 C 2.066406 7.378906 1.886719 7.226562 1.707031 7.070312 C 1.625 7 1.625 7 1.5625 6.9375 C 1.582031 6.71875 1.582031 6.71875 1.625 6.5 C 1.820312 6.402344 1.914062 6.433594 2.125 6.5 Z M 2.125 6.5 "/>
<path style=" stroke:none;fill-rule:nonzero;fill:rgb(97.254902%,94.509804%,58.431375%);fill-opacity:1;" d="M 25.0625 8.4375 C 25.125 8.5625 25.125 8.5625 25.089844 8.683594 C 25.070312 8.730469 25.046875 8.777344 25.027344 8.828125 C 25.003906 8.882812 24.984375 8.9375 24.960938 8.992188 C 24.933594 9.050781 24.910156 9.109375 24.882812 9.167969 C 24.855469 9.226562 24.832031 9.285156 24.804688 9.347656 C 24.179688 10.757812 23.222656 11.929688 22.125 13 C 22.0625 12.9375 22 12.875 21.9375 12.8125 C 22.03125 12.582031 22.167969 12.445312 22.347656 12.277344 C 23.363281 11.277344 24.132812 10.054688 24.777344 8.792969 C 24.925781 8.507812 24.925781 8.507812 25.0625 8.4375 Z M 25.0625 8.4375 "/>
<path style=" stroke:none;fill-rule:nonzero;fill:rgb(0%,0%,0%);fill-opacity:1;" d="M 29.875 23.75 C 30.058594 23.855469 30.222656 23.980469 30.386719 24.113281 C 30.429688 24.148438 30.472656 24.179688 30.519531 24.214844 C 30.960938 24.558594 30.960938 24.558594 31.125 24.75 C 31.113281 24.960938 31.089844 25.035156 30.9375 25.1875 C 30.539062 25.195312 30.257812 24.929688 29.953125 24.703125 C 29.898438 24.664062 29.84375 24.625 29.789062 24.585938 C 29.710938 24.527344 29.710938 24.527344 29.632812 24.46875 C 29.585938 24.433594 29.539062 24.402344 29.492188 24.363281 C 29.355469 24.230469 29.300781 24.121094 29.25 23.9375 C 29.269531 23.875 29.292969 23.8125 29.3125 23.75 C 29.515625 23.648438 29.65625 23.699219 29.875 23.75 Z M 29.875 23.75 "/>
<path style=" stroke:none;fill-rule:nonzero;fill:rgb(97.254902%,88.235295%,47.058824%);fill-opacity:1;" d="M 10.9375 4 C 11.261719 4.089844 11.492188 4.234375 11.757812 4.429688 C 11.796875 4.457031 11.832031 4.484375 11.871094 4.511719 C 12.078125 4.660156 12.269531 4.808594 12.4375 5 C 12.4375 5.042969 12.4375 5.082031 12.4375 5.125 C 11.902344 5.28125 11.390625 5.203125 10.878906 5.011719 C 10.75 4.9375 10.75 4.9375 10.6875 4.75 C 10.703125 4.617188 10.703125 4.617188 10.738281 4.46875 C 10.75 4.421875 10.757812 4.371094 10.769531 4.320312 C 10.8125 4.1875 10.8125 4.1875 10.9375 4 Z M 10.9375 4 "/>
<path style=" stroke:none;fill-rule:nonzero;fill:rgb(0%,0%,0%);fill-opacity:1;" d="M 7.730469 29.921875 C 7.875 30 7.875 30 7.9375 30.0625 C 7.921875 30.464844 7.757812 30.746094 7.550781 31.085938 C 7.519531 31.136719 7.492188 31.1875 7.460938 31.242188 C 7.238281 31.605469 7.238281 31.605469 6.984375 31.695312 C 6.8125 31.6875 6.8125 31.6875 6.691406 31.621094 C 6.589844 31.433594 6.636719 31.328125 6.6875 31.125 C 6.777344 30.9375 6.882812 30.761719 6.988281 30.582031 C 7.015625 30.535156 7.042969 30.488281 7.070312 30.4375 C 7.429688 29.835938 7.429688 29.835938 7.730469 29.921875 Z M 7.730469 29.921875 "/>
<path style=" stroke:none;fill-rule:nonzero;fill:rgb(96.862745%,88.235295%,47.450981%);fill-opacity:1;" d="M 3.9375 20.3125 C 4.519531 20.339844 5.09375 20.65625 5.5 21.0625 C 5.519531 21.125 5.542969 21.1875 5.5625 21.25 C 5.074219 21.234375 4.613281 21.183594 4.136719 21.070312 C 4.09375 21.058594 4.050781 21.050781 4.003906 21.039062 C 3.882812 21.007812 3.882812 21.007812 3.6875 20.9375 C 3.667969 20.875 3.644531 20.8125 3.625 20.75 C 3.6875 20.636719 3.6875 20.636719 3.777344 20.519531 C 3.808594 20.480469 3.835938 20.441406 3.867188 20.402344 C 3.890625 20.371094 3.914062 20.34375 3.9375 20.3125 Z M 3.9375 20.3125 "/>
<path style=" stroke:none;fill-rule:nonzero;fill:rgb(96.862745%,87.843138%,46.666667%);fill-opacity:1;" d="M 27.25 19.6875 C 27.554688 19.917969 27.753906 20.15625 27.957031 20.476562 C 27.984375 20.519531 28.011719 20.558594 28.039062 20.601562 C 28.152344 20.773438 28.246094 20.929688 28.3125 21.125 C 28.203125 21.15625 28.09375 21.1875 27.984375 21.21875 C 27.921875 21.234375 27.863281 21.253906 27.800781 21.273438 C 27.625 21.3125 27.625 21.3125 27.375 21.3125 C 27.199219 20.777344 27.089844 20.242188 27.25 19.6875 Z M 27.25 19.6875 "/>
<path style=" stroke:none;fill-rule:nonzero;fill:rgb(97.647059%,89.019608%,47.843137%);fill-opacity:1;" d="M 21.1875 4.0625 C 21.585938 4.59375 21.574219 5.296875 21.5625 5.9375 C 21.039062 5.542969 20.769531 5.054688 20.5625 4.4375 C 20.769531 4.3125 20.976562 4.191406 21.1875 4.0625 Z M 21.1875 4.0625 "/>
<path style=" stroke:none;fill-rule:nonzero;fill:rgb(96.078432%,87.450981%,47.058824%);fill-opacity:1;" d="M 21.3125 26.125 C 21.332031 26.125 21.355469 26.125 21.375 26.125 C 21.355469 26.710938 21.3125 27.25 21.125 27.8125 C 21.105469 27.875 21.082031 27.9375 21.0625 28 C 20.816406 27.929688 20.632812 27.851562 20.4375 27.6875 C 20.535156 27.082031 20.789062 26.59375 21.25 26.1875 C 21.269531 26.167969 21.292969 26.144531 21.3125 26.125 Z M 21.3125 26.125 "/>
<path style=" stroke:none;fill-rule:nonzero;fill:rgb(0%,0%,0%);fill-opacity:1;" d="M 8.636719 28.214844 C 8.8125 28.25 8.8125 28.25 8.9375 28.375 C 8.988281 28.722656 8.863281 28.929688 8.683594 29.210938 C 8.660156 29.25 8.636719 29.292969 8.613281 29.332031 C 8.539062 29.445312 8.539062 29.445312 8.375 29.625 C 8.136719 29.652344 8.136719 29.652344 7.9375 29.625 C 7.800781 29.355469 7.800781 29.355469 7.859375 29.160156 C 7.945312 29 8.03125 28.84375 8.125 28.6875 C 8.152344 28.640625 8.175781 28.597656 8.203125 28.550781 C 8.332031 28.34375 8.394531 28.257812 8.636719 28.214844 Z M 8.636719 28.214844 "/>
<path style=" stroke:none;fill-rule:nonzero;fill:rgb(0%,0%,0%);fill-opacity:1;" d="M 2 19 C 2.113281 19.15625 2.113281 19.15625 2.1875 19.3125 C 2.011719 19.683594 1.761719 19.75 1.390625 19.882812 C 1.140625 19.949219 0.996094 19.949219 0.75 19.875 C 0.707031 19.699219 0.707031 19.699219 0.6875 19.5 C 0.832031 19.292969 1.042969 19.230469 1.273438 19.144531 C 1.34375 19.117188 1.414062 19.089844 1.484375 19.0625 C 1.675781 19.003906 1.804688 18.972656 2 19 Z M 2 19 "/>
<path style=" stroke:none;fill-rule:nonzero;fill:rgb(0%,0%,0%);fill-opacity:1;" d="M 20.1875 29.375 C 20.472656 29.472656 20.472656 29.472656 20.5625 29.5625 C 20.589844 29.699219 20.589844 29.699219 20.5625 29.875 C 20.449219 30.023438 20.34375 30.144531 20.214844 30.273438 C 20.183594 30.308594 20.152344 30.34375 20.117188 30.378906 C 20.019531 30.476562 19.933594 30.554688 19.8125 30.625 C 19.570312 30.617188 19.570312 30.617188 19.375 30.5625 C 19.316406 30.40625 19.316406 30.40625 19.3125 30.1875 C 19.523438 29.859375 19.835938 29.550781 20.1875 29.375 Z M 20.1875 29.375 "/>
<path style=" stroke:none;fill-rule:nonzero;fill:rgb(0%,0%,0%);fill-opacity:1;" d="M 13.625 1.375 C 13.914062 1.453125 14.089844 1.554688 14.300781 1.765625 C 14.347656 1.8125 14.398438 1.859375 14.445312 1.90625 C 14.582031 2.089844 14.613281 2.214844 14.625 2.4375 C 14.554688 2.554688 14.554688 2.554688 14.4375 2.625 C 14.296875 2.648438 14.296875 2.648438 14.125 2.625 C 13.992188 2.519531 13.882812 2.421875 13.765625 2.300781 C 13.734375 2.269531 13.703125 2.242188 13.671875 2.210938 C 13.492188 2.027344 13.378906 1.886719 13.375 1.625 C 13.496094 1.480469 13.496094 1.480469 13.625 1.375 Z M 13.625 1.375 "/>
<path style=" stroke:none;fill-rule:nonzero;fill:rgb(0%,0%,0%);fill-opacity:1;" d="M 13.007812 1.433594 C 13.066406 1.457031 13.125 1.476562 13.1875 1.5 C 13.210938 1.761719 13.214844 1.894531 13.066406 2.113281 C 13.011719 2.167969 12.957031 2.21875 12.902344 2.273438 C 12.847656 2.328125 12.796875 2.378906 12.742188 2.433594 C 12.53125 2.585938 12.382812 2.617188 12.125 2.625 C 12 2.5 12 2.5 11.972656 2.328125 C 12.007812 2.058594 12.144531 1.9375 12.335938 1.761719 C 12.367188 1.730469 12.398438 1.699219 12.433594 1.667969 C 12.757812 1.359375 12.757812 1.359375 13.007812 1.433594 Z M 13.007812 1.433594 "/>
<path style=" stroke:none;fill-rule:nonzero;fill:rgb(0%,0%,0%);fill-opacity:1;" d="M 14.367188 0.0117188 C 14.464844 0.0351562 14.464844 0.0351562 14.5625 0.0625 C 14.621094 0.21875 14.621094 0.21875 14.625 0.4375 C 14.5 0.625 14.347656 0.777344 14.1875 0.9375 C 14.125 1.015625 14.125 1.015625 14.0625 1.09375 C 13.875 1.234375 13.726562 1.21875 13.5 1.1875 C 13.375 1 13.375 1 13.378906 0.855469 C 13.457031 0.628906 13.59375 0.484375 13.757812 0.320312 C 13.785156 0.289062 13.816406 0.257812 13.84375 0.222656 C 14.027344 0.0390625 14.101562 0 14.367188 0.0117188 Z M 14.367188 0.0117188 "/>
<path style=" stroke:none;fill-rule:nonzero;fill:rgb(0%,0%,0%);fill-opacity:1;" d="M 12.125 0 C 12.480469 0.0078125 12.652344 0.101562 12.902344 0.351562 C 12.984375 0.429688 12.984375 0.429688 13.066406 0.511719 C 13.21875 0.730469 13.214844 0.863281 13.1875 1.125 C 13.125 1.1875 13.125 1.1875 12.925781 1.210938 C 12.632812 1.183594 12.507812 1.070312 12.316406 0.867188 C 12.285156 0.835938 12.253906 0.808594 12.222656 0.777344 C 12.066406 0.617188 12.003906 0.519531 11.972656 0.296875 C 12 0.125 12 0.125 12.125 0 Z M 12.125 0 "/>
<path style=" stroke:none;fill-rule:nonzero;fill:rgb(0%,0%,0%);fill-opacity:1;" d="M 19 30.8125 C 19.125 30.9375 19.125 30.9375 19.152344 31.109375 C 19.117188 31.375 18.992188 31.503906 18.804688 31.679688 C 18.773438 31.710938 18.746094 31.742188 18.714844 31.773438 C 18.554688 31.929688 18.457031 31.996094 18.234375 32.027344 C 18.0625 32 18.0625 32 17.9375 31.875 C 17.921875 31.605469 17.953125 31.496094 18.125 31.285156 C 18.625 30.785156 18.625 30.785156 19 30.8125 Z M 19 30.8125 "/>
<path style=" stroke:none;fill-rule:nonzero;fill:rgb(0%,0%,0%);fill-opacity:1;" d="M 19.8125 30.8125 C 19.957031 30.925781 20.078125 31.035156 20.207031 31.167969 C 20.257812 31.21875 20.257812 31.21875 20.3125 31.269531 C 20.460938 31.417969 20.554688 31.523438 20.59375 31.734375 C 20.5625 31.875 20.5625 31.875 20.4375 32 C 20.253906 32.03125 20.125 32.039062 19.960938 31.933594 C 19.855469 31.84375 19.757812 31.75 19.660156 31.648438 C 19.625 31.617188 19.589844 31.582031 19.554688 31.550781 C 19.457031 31.449219 19.457031 31.449219 19.3125 31.25 C 19.3125 31.042969 19.3125 31.042969 19.375 30.875 C 19.542969 30.789062 19.625 30.785156 19.8125 30.8125 Z M 19.8125 30.8125 "/>
<path style=" stroke:none;fill-rule:nonzero;fill:rgb(0%,0%,0%);fill-opacity:1;" d="M 18.332031 29.414062 C 18.535156 29.515625 18.671875 29.640625 18.832031 29.796875 C 18.886719 29.847656 18.941406 29.902344 19 29.957031 C 19.125 30.125 19.125 30.125 19.152344 30.324219 C 19.125 30.5 19.125 30.5 19 30.625 C 18.859375 30.65625 18.859375 30.65625 18.6875 30.625 C 18.542969 30.511719 18.421875 30.402344 18.292969 30.269531 C 18.257812 30.238281 18.222656 30.203125 18.1875 30.167969 C 18.039062 30.019531 17.945312 29.914062 17.910156 29.703125 C 17.9375 29.5625 17.9375 29.5625 18.042969 29.441406 C 18.1875 29.375 18.1875 29.375 18.332031 29.414062 Z M 18.332031 29.414062 "/>
<path style=" stroke:none;fill-rule:nonzero;fill:rgb(0%,0%,0%);fill-opacity:1;" d="M 28.109375 22.601562 C 28.371094 22.632812 28.5 22.726562 28.710938 22.882812 C 28.777344 22.929688 28.84375 22.980469 28.910156 23.027344 C 29.0625 23.1875 29.0625 23.1875 29.09375 23.386719 C 29.0625 23.5625 29.0625 23.5625 28.9375 23.6875 C 28.535156 23.738281 28.328125 23.5625 28.019531 23.328125 C 27.882812 23.191406 27.824219 23.132812 27.792969 22.945312 C 27.816406 22.695312 27.855469 22.636719 28.109375 22.601562 Z M 28.109375 22.601562 "/>
<path style=" stroke:none;fill-rule:nonzero;fill:rgb(0%,0%,0%);fill-opacity:1;" d="M 23.648438 26.316406 C 23.871094 26.398438 23.960938 26.519531 24.109375 26.707031 C 24.15625 26.765625 24.207031 26.828125 24.257812 26.890625 C 24.359375 27.042969 24.421875 27.132812 24.4375 27.3125 C 24.367188 27.453125 24.367188 27.453125 24.25 27.5625 C 24.105469 27.589844 24.105469 27.589844 23.9375 27.5625 C 23.769531 27.425781 23.769531 27.425781 23.605469 27.246094 C 23.523438 27.15625 23.523438 27.15625 23.4375 27.066406 C 23.289062 26.835938 23.273438 26.710938 23.3125 26.4375 C 23.5 26.3125 23.5 26.3125 23.648438 26.316406 Z M 23.648438 26.316406 "/>
<path style=" stroke:none;fill-rule:nonzero;fill:rgb(0%,0%,0%);fill-opacity:1;" d="M 23.328125 2.390625 C 23.5 2.4375 23.5 2.4375 23.625 2.5625 C 23.695312 2.914062 23.523438 3.140625 23.34375 3.425781 C 23.25 3.5625 23.25 3.5625 23.125 3.6875 C 22.972656 3.710938 22.972656 3.710938 22.8125 3.6875 C 22.691406 3.585938 22.691406 3.585938 22.625 3.4375 C 22.6875 3.058594 22.933594 2.480469 23.328125 2.390625 Z M 23.328125 2.390625 "/>
<path style=" stroke:none;fill-rule:nonzero;fill:rgb(96.470588%,87.450981%,46.666667%);fill-opacity:1;" d="M 27.75 10.9375 C 28.234375 10.984375 28.234375 10.984375 28.375 11.125 C 28.101562 11.578125 27.832031 12.023438 27.5 12.4375 C 27.4375 12.417969 27.375 12.394531 27.3125 12.375 C 27.277344 11.820312 27.398438 11.375 27.75 10.9375 Z M 27.75 10.9375 "/>
<path style=" stroke:none;fill-rule:nonzero;fill:rgb(0%,0%,0%);fill-opacity:1;" d="M 4.1875 8.375 C 4.449219 8.542969 4.757812 8.765625 4.855469 9.070312 C 4.855469 9.1875 4.855469 9.1875 4.8125 9.375 C 4.75 9.4375 4.75 9.4375 4.5625 9.472656 C 4.257812 9.46875 4.074219 9.277344 3.863281 9.074219 C 3.75 8.9375 3.75 8.9375 3.671875 8.730469 C 3.6875 8.5625 3.6875 8.5625 3.757812 8.445312 C 3.917969 8.351562 4.003906 8.351562 4.1875 8.375 Z M 4.1875 8.375 "/>
<path style=" stroke:none;fill-rule:nonzero;fill:rgb(0%,0%,0%);fill-opacity:1;" d="M 6.152344 1.253906 C 6.363281 1.328125 6.445312 1.429688 6.582031 1.605469 C 6.625 1.660156 6.667969 1.710938 6.714844 1.765625 C 6.832031 1.96875 6.847656 2.082031 6.8125 2.3125 C 6.625 2.4375 6.625 2.4375 6.441406 2.433594 C 6.195312 2.359375 6.121094 2.257812 5.972656 2.046875 C 5.929688 1.988281 5.886719 1.925781 5.839844 1.867188 C 5.75 1.6875 5.75 1.6875 5.753906 1.515625 C 5.835938 1.316406 5.933594 1.246094 6.152344 1.253906 Z M 6.152344 1.253906 "/>
<path style=" stroke:none;fill-rule:nonzero;fill:rgb(0%,0.784314%,0.392157%);fill-opacity:1;" d="M 29 6.617188 C 29.1875 6.625 29.1875 6.625 29.25 6.6875 C 29.308594 7.074219 29.167969 7.332031 28.992188 7.671875 C 28.875 7.8125 28.875 7.8125 28.675781 7.863281 C 28.617188 7.867188 28.558594 7.871094 28.5 7.875 C 28.5 7.832031 28.5 7.792969 28.5 7.75 C 28.457031 7.75 28.417969 7.75 28.375 7.75 C 28.355469 7.445312 28.40625 7.273438 28.558594 7.011719 C 28.59375 6.953125 28.625 6.890625 28.660156 6.832031 C 28.789062 6.625 28.789062 6.625 29 6.617188 Z M 29 6.617188 "/>
<path style=" stroke:none;fill-rule:nonzero;fill:rgb(0%,0%,0%);fill-opacity:1;" d="M 3.5 18.5 C 3.585938 18.667969 3.566406 18.8125 3.5625 19 C 3.523438 19.015625 3.484375 19.035156 3.445312 19.050781 C 3.394531 19.074219 3.339844 19.097656 3.289062 19.121094 C 3.238281 19.144531 3.1875 19.167969 3.136719 19.1875 C 3.046875 19.230469 2.960938 19.269531 2.875 19.3125 C 2.6875 19.324219 2.6875 19.324219 2.5 19.3125 C 2.375 19.1875 2.375 19.1875 2.367188 18.992188 C 2.371094 18.933594 2.371094 18.875 2.375 18.8125 C 2.765625 18.589844 3.046875 18.457031 3.5 18.5 Z M 3.5 18.5 "/>
<path style=" stroke:none;fill-rule:nonzero;fill:rgb(0%,0.784314%,0%);fill-opacity:1;" d="M 2.0625 24.125 C 2.226562 24.160156 2.226562 24.160156 2.375 24.25 C 2.472656 24.527344 2.40625 24.714844 2.308594 24.984375 C 2.285156 25.054688 2.257812 25.128906 2.230469 25.203125 C 2.125 25.375 2.125 25.375 1.933594 25.4375 C 1.75 25.4375 1.75 25.4375 1.625 25.3125 C 1.578125 24.925781 1.6875 24.589844 1.875 24.25 C 1.9375 24.207031 2 24.167969 2.0625 24.125 Z M 2.0625 24.125 "/>
<path style=" stroke:none;fill-rule:nonzero;fill:rgb(41.176471%,21.176471%,7.843138%);fill-opacity:1;" d="M 12.375 12.6875 C 12.5 12.789062 12.621094 12.894531 12.75 13 C 12.667969 13.183594 12.578125 13.3125 12.433594 13.453125 C 12.378906 13.507812 12.378906 13.507812 12.324219 13.5625 C 12.289062 13.597656 12.25 13.632812 12.210938 13.671875 C 12.171875 13.710938 12.132812 13.746094 12.09375 13.785156 C 12 13.878906 11.90625 13.96875 11.8125 14.0625 C 11.75 14.019531 11.6875 13.980469 11.625 13.9375 C 11.660156 13.675781 11.75 13.5 11.894531 13.277344 C 11.933594 13.21875 11.96875 13.160156 12.007812 13.101562 C 12.117188 12.945312 12.234375 12.816406 12.375 12.6875 Z M 12.375 12.6875 "/>
<path style=" stroke:none;fill-rule:nonzero;fill:rgb(85.09804%,58.823532%,41.176471%);fill-opacity:1;" d="M 19.5 12.6875 C 19.867188 13.019531 20.246094 13.433594 20.3125 13.9375 C 20.25 13.980469 20.1875 14.019531 20.125 14.0625 C 19.816406 13.753906 19.507812 13.445312 19.1875 13.125 C 19.289062 12.921875 19.34375 12.832031 19.5 12.6875 Z M 19.5 12.6875 "/>
<path style=" stroke:none;fill-rule:nonzero;fill:rgb(57.254905%,32.941177%,14.509805%);fill-opacity:1;" d="M 19.8125 15.1875 C 19.855469 15.207031 19.894531 15.230469 19.9375 15.25 C 19.9375 15.664062 19.9375 16.074219 19.9375 16.5 C 19.707031 16.386719 19.597656 16.296875 19.421875 16.117188 C 19.378906 16.070312 19.332031 16.027344 19.289062 15.980469 C 19.253906 15.945312 19.222656 15.910156 19.1875 15.875 C 19.386719 15.636719 19.589844 15.402344 19.8125 15.1875 Z M 19.8125 15.1875 "/>
<path style=" stroke:none;fill-rule:nonzero;fill:rgb(55.686277%,31.764707%,13.333334%);fill-opacity:1;" d="M 12 15.1875 C 12.214844 15.289062 12.351562 15.398438 12.515625 15.570312 C 12.558594 15.617188 12.605469 15.660156 12.648438 15.707031 C 12.699219 15.757812 12.699219 15.757812 12.75 15.8125 C 12.539062 16.070312 12.332031 16.300781 12.0625 16.5 C 11.988281 16.351562 11.992188 16.265625 11.992188 16.101562 C 11.992188 16.050781 11.996094 15.996094 11.996094 15.941406 C 11.996094 15.886719 11.996094 15.832031 11.996094 15.773438 C 11.996094 15.71875 11.996094 15.660156 11.996094 15.601562 C 11.996094 15.464844 12 15.324219 12 15.1875 Z M 12 15.1875 "/>
<path style=" stroke:none;fill-rule:nonzero;fill:rgb(42.745098%,21.960784%,8.235294%);fill-opacity:1;" d="M 11.6875 17.6875 C 11.871094 17.769531 12 17.859375 12.140625 18.003906 C 12.195312 18.058594 12.195312 18.058594 12.25 18.113281 C 12.285156 18.148438 12.320312 18.1875 12.359375 18.226562 C 12.398438 18.265625 12.433594 18.304688 12.472656 18.34375 C 12.566406 18.4375 12.65625 18.53125 12.75 18.625 C 12.636719 18.78125 12.636719 18.78125 12.5 18.9375 C 12.4375 18.9375 12.375 18.9375 12.3125 18.9375 C 12.191406 18.796875 12.191406 18.796875 12.0625 18.613281 C 12.019531 18.554688 11.976562 18.492188 11.933594 18.429688 C 11.621094 17.964844 11.621094 17.964844 11.644531 17.792969 C 11.660156 17.757812 11.671875 17.722656 11.6875 17.6875 Z M 11.6875 17.6875 "/>
<path style=" stroke:none;fill-rule:nonzero;fill:rgb(96.078432%,87.450981%,47.058824%);fill-opacity:1;" d="M 11.875 27.1875 C 11.640625 27.445312 11.417969 27.59375 11.105469 27.738281 C 11.066406 27.757812 11.023438 27.777344 10.984375 27.796875 C 10.886719 27.84375 10.785156 27.890625 10.6875 27.9375 C 10.605469 27.710938 10.5625 27.554688 10.5625 27.3125 C 10.992188 27.148438 11.421875 27.175781 11.875 27.1875 Z M 11.875 27.1875 "/>
<path style=" stroke:none;fill-rule:nonzero;fill:rgb(41.568628%,21.568628%,7.843138%);fill-opacity:1;" d="M 14.125 11.5625 C 14.089844 11.769531 14.027344 11.871094 13.878906 12.015625 C 13.84375 12.050781 13.804688 12.085938 13.769531 12.125 C 13.730469 12.160156 13.691406 12.195312 13.652344 12.234375 C 13.613281 12.273438 13.574219 12.308594 13.535156 12.347656 C 13.441406 12.441406 13.34375 12.53125 13.25 12.625 C 13.042969 12.53125 12.941406 12.441406 12.8125 12.25 C 12.953125 12.160156 13.09375 12.066406 13.234375 11.976562 C 13.273438 11.949219 13.3125 11.925781 13.355469 11.898438 C 13.875 11.5625 13.875 11.5625 14.125 11.5625 Z M 14.125 11.5625 "/>
<path style=" stroke:none;fill-rule:nonzero;fill:rgb(84.705883%,58.431375%,40.784314%);fill-opacity:1;" d="M 17.8125 11.5625 C 18.082031 11.597656 18.273438 11.699219 18.507812 11.835938 C 18.574219 11.875 18.636719 11.910156 18.703125 11.949219 C 18.84375 12.042969 18.953125 12.125 19.0625 12.25 C 18.976562 12.46875 18.898438 12.53125 18.6875 12.625 C 18.539062 12.484375 18.394531 12.339844 18.25 12.199219 C 18.207031 12.160156 18.167969 12.117188 18.125 12.078125 C 18.085938 12.039062 18.042969 12 18.003906 11.960938 C 17.96875 11.925781 17.929688 11.886719 17.894531 11.851562 C 17.8125 11.75 17.8125 11.75 17.8125 11.5625 Z M 17.8125 11.5625 "/>
<path style=" stroke:none;fill-rule:nonzero;fill:rgb(88.627452%,61.176473%,42.745098%);fill-opacity:1;" d="M 20.125 17.6875 C 20.1875 17.707031 20.25 17.730469 20.3125 17.75 C 20.273438 17.980469 20.167969 18.148438 20.042969 18.34375 C 20.003906 18.402344 19.96875 18.460938 19.929688 18.523438 C 19.820312 18.679688 19.703125 18.804688 19.5625 18.9375 C 19.363281 18.851562 19.3125 18.8125 19.1875 18.625 C 19.496094 18.316406 19.804688 18.007812 20.125 17.6875 Z M 20.125 17.6875 "/>
<path style=" stroke:none;fill-rule:nonzero;fill:rgb(97.254902%,88.235295%,47.058824%);fill-opacity:1;" d="M 5.238281 10.621094 C 5.3125 10.621094 5.3125 10.621094 5.386719 10.621094 C 5.507812 10.621094 5.628906 10.625 5.75 10.625 C 5.671875 10.800781 5.632812 10.871094 5.46875 10.984375 C 5.15625 11.097656 4.816406 11.148438 4.5 11.007812 C 4.398438 10.9375 4.398438 10.9375 4.25 10.8125 C 4.507812 10.554688 4.894531 10.617188 5.238281 10.621094 Z M 5.238281 10.621094 "/>
<path style=" stroke:none;fill-rule:nonzero;fill:rgb(42.352942%,21.960784%,8.235294%);fill-opacity:1;" d="M 13.125 19.0625 C 13.476562 19.355469 13.824219 19.65625 14.125 20 C 14.125 20.042969 14.125 20.082031 14.125 20.125 C 13.847656 20.042969 13.609375 19.933594 13.359375 19.789062 C 13.261719 19.734375 13.261719 19.734375 13.164062 19.679688 C 13 19.5625 12.941406 19.496094 12.875 19.3125 C 12.957031 19.230469 13.039062 19.148438 13.125 19.0625 Z M 13.125 19.0625 "/>
<path style=" stroke:none;fill-rule:nonzero;fill:rgb(87.843138%,60.392159%,42.352942%);fill-opacity:1;" d="M 18.75 19.0625 C 18.851562 19.144531 18.957031 19.226562 19.0625 19.3125 C 18.980469 19.558594 18.828125 19.625 18.613281 19.753906 C 18.578125 19.777344 18.542969 19.796875 18.507812 19.820312 C 18.28125 19.957031 18.0625 20.050781 17.8125 20.125 C 17.894531 19.941406 17.984375 19.8125 18.128906 19.671875 C 18.164062 19.636719 18.199219 19.601562 18.238281 19.5625 C 18.273438 19.527344 18.3125 19.492188 18.351562 19.453125 C 18.390625 19.414062 18.429688 19.378906 18.46875 19.339844 C 18.5625 19.246094 18.65625 19.15625 18.75 19.0625 Z M 18.75 19.0625 "/>
<path style=" stroke:none;fill-rule:nonzero;fill:rgb(48.627451%,27.058825%,11.372549%);fill-opacity:1;" d="M 19 20.8125 C 19.042969 20.832031 19.082031 20.855469 19.125 20.875 C 19.0625 21.0625 19.0625 21.0625 18.910156 21.152344 C 18.847656 21.179688 18.785156 21.207031 18.722656 21.234375 C 18.660156 21.261719 18.597656 21.289062 18.535156 21.320312 C 18.484375 21.335938 18.429688 21.355469 18.375 21.375 C 18.332031 21.355469 18.292969 21.332031 18.25 21.3125 C 18.300781 21.28125 18.347656 21.25 18.398438 21.21875 C 18.460938 21.179688 18.523438 21.140625 18.589844 21.097656 C 18.652344 21.058594 18.714844 21.019531 18.78125 20.976562 C 18.929688 20.890625 18.929688 20.890625 19 20.8125 Z M 19 20.8125 "/>
<path style=" stroke:none;fill-rule:nonzero;fill:rgb(50.196081%,27.843139%,11.764706%);fill-opacity:1;" d="M 17.3125 10 C 17.664062 10.039062 17.980469 10.128906 18.3125 10.25 C 18.25 10.3125 18.1875 10.375 18.125 10.4375 C 18.09375 10.421875 18.058594 10.40625 18.027344 10.386719 C 17.792969 10.269531 17.558594 10.15625 17.3125 10.0625 C 17.3125 10.042969 17.3125 10.019531 17.3125 10 Z M 17.3125 10 "/>
<path style=" stroke:none;fill-rule:nonzero;fill:rgb(90.980393%,88.235295%,52.156866%);fill-opacity:1;" d="M 28.1875 16.75 C 28.03125 16.941406 27.859375 16.996094 27.625 17.0625 C 27.644531 16.941406 27.644531 16.941406 27.6875 16.8125 C 27.871094 16.75 27.996094 16.746094 28.1875 16.75 Z M 28.1875 16.75 "/>
</g>
</svg>
