<?xml version="1.0" encoding="UTF-8"?>
<svg xmlns="http://www.w3.org/2000/svg" xmlns:xlink="http://www.w3.org/1999/xlink" width="120px" height="48px" viewBox="0 0 120 48" version="1.1">
<g id="surface1">
<path style=" stroke:none;fill-rule:nonzero;fill:rgb(0%,0%,0%);fill-opacity:1;" d="M 42.625 13.824219 C 42.550781 14.039062 42.480469 14.519531 42.480469 14.902344 C 42.480469 15.71875 42.625 15.695312 38.59375 15.335938 C 35.472656 15.070312 34.703125 15.238281 34.847656 16.128906 C 34.894531 16.414062 35.230469 16.847656 35.59375 17.136719 C 36.167969 17.566406 36.71875 17.664062 39.433594 17.761719 L 42.601562 17.878906 L 42.769531 19.199219 C 42.863281 19.921875 43.054688 22.296875 43.222656 24.457031 C 43.558594 28.511719 43.726562 29.039062 44.640625 29.039062 C 45.527344 29.039062 45.625 28.320312 45.238281 24.3125 C 45.046875 22.222656 44.878906 19.96875 44.832031 19.320312 L 44.785156 18.121094 L 52.199219 18.121094 L 52.273438 17.328125 C 52.367188 16.320312 51.769531 16.078125 48.886719 16.054688 C 45.601562 16.054688 44.832031 15.863281 44.617188 15.023438 C 44.257812 13.703125 42.984375 12.910156 42.625 13.824219 Z M 42.625 13.824219 "/>
<path style=" stroke:none;fill-rule:nonzero;fill:rgb(0%,0%,0%);fill-opacity:1;" d="M 73.296875 14.6875 C 72.886719 15.601562 72.839844 16.320312 72.839844 21.984375 C 72.839844 28.558594 72.910156 29.039062 73.921875 29.039062 C 74.304688 29.039062 74.328125 28.871094 74.230469 27.648438 C 74.089844 25.992188 74.566406 17.351562 74.902344 15.863281 C 75.097656 15.023438 75.070312 14.710938 74.761719 14.257812 C 74.230469 13.414062 73.824219 13.535156 73.296875 14.6875 Z M 73.296875 14.6875 "/>
<path style=" stroke:none;fill-rule:nonzero;fill:rgb(0%,0%,0%);fill-opacity:1;" d="M 80.617188 14.902344 L 79.753906 15.144531 L 78.121094 20.472656 C 77.230469 23.398438 76.441406 25.847656 76.414062 25.894531 C 76.367188 25.945312 76.175781 25.847656 75.960938 25.679688 C 75.335938 25.175781 75.214844 25.65625 75.71875 26.59375 C 77.28125 29.472656 82.390625 30.71875 86.207031 29.183594 C 88.078125 28.414062 89.375 27.335938 89.855469 26.160156 C 90.167969 25.390625 90.167969 25.199219 89.785156 24.335938 C 89.230469 23.136719 87.910156 21.816406 86.640625 21.238281 C 85.753906 20.832031 85.726562 20.785156 86.039062 20.304688 C 86.929688 19.03125 86.113281 16.296875 84.574219 15.335938 C 83.640625 14.761719 81.816406 14.566406 80.617188 14.902344 Z M 83.976562 16.777344 C 85.152344 17.617188 85.222656 18.480469 84.214844 19.753906 C 83.761719 20.351562 83.566406 20.398438 82.054688 20.398438 C 80.160156 20.398438 80.207031 20.496094 80.785156 18 C 81.023438 16.871094 81.289062 16.320312 81.550781 16.246094 C 82.199219 16.054688 83.351562 16.320312 83.976562 16.777344 Z M 86.855469 22.894531 C 87.265625 23.113281 87.769531 23.566406 88.007812 23.902344 C 88.390625 24.480469 88.367188 24.574219 87.984375 25.296875 C 87.144531 26.855469 84.214844 28.320312 81.9375 28.320312 C 80.617188 28.320312 78 27.503906 78 27.097656 C 78 26.953125 78.289062 25.921875 78.625 24.769531 L 79.246094 22.679688 L 80.855469 22.632812 C 81.71875 22.609375 82.871094 22.441406 83.398438 22.246094 C 84.433594 21.886719 85.152344 22.03125 86.855469 22.894531 Z M 86.855469 22.894531 "/>
<path style=" stroke:none;fill-rule:nonzero;fill:rgb(0%,0%,0%);fill-opacity:1;" d="M 11.113281 15.167969 C 10.992188 15.335938 10.753906 16.128906 10.585938 16.921875 C 10.222656 18.574219 9.40625 20.136719 6.433594 24.886719 C 4.632812 27.792969 4.34375 28.390625 4.558594 28.800781 C 4.992188 29.617188 5.664062 29.375 6.503906 28.054688 L 7.296875 26.832031 L 9.816406 27 C 12.3125 27.167969 12.335938 27.167969 13.414062 28.128906 C 14.902344 29.425781 15.695312 29.808594 16.753906 29.710938 C 18.144531 29.59375 17.855469 29.039062 15.839844 27.960938 C 14.160156 27.070312 13.992188 26.902344 13.367188 25.558594 C 12.457031 23.664062 12.238281 22.152344 12.40625 18.769531 C 12.503906 16.800781 12.457031 15.769531 12.265625 15.40625 C 11.953125 14.832031 11.449219 14.710938 11.113281 15.167969 Z M 11.015625 23.449219 C 11.160156 24.191406 11.28125 24.886719 11.28125 25.007812 C 11.28125 25.105469 10.679688 25.199219 9.960938 25.199219 C 9.238281 25.199219 8.640625 25.152344 8.640625 25.078125 C 8.640625 24.839844 10.441406 22.078125 10.585938 22.078125 C 10.65625 22.078125 10.847656 22.703125 11.015625 23.449219 Z M 11.015625 23.449219 "/>
<path style=" stroke:none;fill-rule:nonzero;fill:rgb(0%,0%,0%);fill-opacity:1;" d="M 19.679688 15.625 C 19.246094 16.414062 19.921875 16.945312 21.574219 17.136719 L 22.945312 17.304688 L 22.847656 22.03125 C 22.800781 24.625 22.703125 26.808594 22.65625 26.855469 C 22.609375 26.929688 21.671875 27.097656 20.59375 27.265625 C 18.238281 27.648438 17.664062 28.199219 18.695312 29.136719 C 19.152344 29.542969 19.320312 29.542969 22.128906 29.160156 C 23.761719 28.945312 25.945312 28.726562 27 28.703125 C 28.632812 28.65625 28.921875 28.585938 28.992188 28.222656 C 29.160156 27.359375 28.390625 26.929688 26.375 26.734375 L 24.457031 26.566406 L 24.601562 22.945312 C 24.671875 20.953125 24.792969 18.863281 24.863281 18.289062 C 25.007812 17.183594 24.863281 17.207031 27.121094 17.785156 C 29.183594 18.3125 29.855469 17.832031 28.703125 16.703125 C 28.078125 16.078125 26.785156 15.742188 23.398438 15.359375 C 20.304688 15.023438 19.96875 15.046875 19.679688 15.625 Z M 19.679688 15.625 "/>
<path style=" stroke:none;fill-rule:nonzero;fill:rgb(0%,0%,0%);fill-opacity:1;" d="M 55.632812 21.574219 C 53.761719 22.175781 52.65625 23.808594 52.894531 25.609375 C 53.089844 27.070312 53.617188 27.863281 54.9375 28.703125 C 57.121094 30.097656 59.953125 29.328125 60.984375 27.046875 C 61.585938 25.726562 61.558594 24.816406 60.910156 23.519531 C 60.046875 21.863281 57.574219 20.953125 55.632812 21.574219 Z M 58.992188 23.351562 C 59.136719 23.519531 59.328125 24.121094 59.425781 24.671875 L 59.59375 25.679688 L 58.296875 26.28125 C 56.640625 27.046875 55.65625 27.046875 54.792969 26.304688 C 54.214844 25.800781 54.167969 25.65625 54.359375 25.054688 C 54.648438 24.265625 55.726562 23.59375 57.167969 23.304688 C 58.65625 23.015625 58.703125 23.015625 58.992188 23.351562 Z M 58.992188 23.351562 "/>
<path style=" stroke:none;fill-rule:nonzero;fill:rgb(0%,0%,0%);fill-opacity:1;" d="M 65.230469 21.574219 C 63.359375 22.175781 62.257812 23.808594 62.496094 25.609375 C 62.6875 27.070312 63.214844 27.863281 64.535156 28.703125 C 66.71875 30.097656 69.550781 29.328125 70.585938 27.046875 C 71.183594 25.726562 71.160156 24.816406 70.511719 23.519531 C 69.648438 21.863281 67.175781 20.953125 65.230469 21.574219 Z M 68.59375 23.351562 C 68.734375 23.519531 68.929688 24.121094 69.023438 24.671875 L 69.191406 25.679688 L 67.894531 26.28125 C 66.238281 27.046875 65.257812 27.046875 64.390625 26.304688 C 63.816406 25.800781 63.769531 25.65625 63.960938 25.054688 C 64.246094 24.265625 65.328125 23.59375 66.769531 23.304688 C 68.257812 23.015625 68.304688 23.015625 68.59375 23.351562 Z M 68.59375 23.351562 "/>
<path style=" stroke:none;fill-rule:nonzero;fill:rgb(0%,0%,0%);fill-opacity:1;" d="M 93.550781 21.574219 C 91.679688 22.175781 90.574219 23.808594 90.816406 25.609375 C 91.007812 27.070312 91.535156 27.863281 92.855469 28.703125 C 95.039062 30.097656 97.871094 29.328125 98.902344 27.046875 C 99.503906 25.726562 99.480469 24.816406 98.832031 23.519531 C 97.96875 21.863281 95.496094 20.953125 93.550781 21.574219 Z M 96.910156 23.351562 C 97.054688 23.519531 97.246094 24.121094 97.34375 24.671875 L 97.511719 25.679688 L 96.214844 26.28125 C 94.558594 27.046875 93.574219 27.046875 92.710938 26.304688 C 92.136719 25.800781 92.089844 25.65625 92.28125 25.054688 C 92.566406 24.265625 93.648438 23.59375 95.089844 23.304688 C 96.574219 23.015625 96.625 23.015625 96.910156 23.351562 Z M 96.910156 23.351562 "/>
<path style=" stroke:none;fill-rule:nonzero;fill:rgb(0%,0%,0%);fill-opacity:1;" d="M 101.902344 22.726562 C 101.808594 22.96875 102 23.496094 102.382812 24.046875 C 102.769531 24.574219 102.9375 25.054688 102.816406 25.175781 C 102.695312 25.273438 102.023438 25.824219 101.351562 26.375 C 100.65625 26.953125 100.078125 27.503906 100.078125 27.625 C 100.078125 27.9375 101.207031 29.039062 101.519531 29.039062 C 101.664062 29.039062 102.023438 28.800781 102.335938 28.488281 C 103.34375 27.480469 104.207031 26.878906 104.664062 26.878906 C 104.929688 26.878906 105.742188 27.3125 106.511719 27.816406 C 108.046875 28.871094 109.128906 29.351562 109.464844 29.136719 C 109.992188 28.824219 109.609375 27.910156 108.457031 26.832031 L 107.230469 25.679688 L 107.878906 25.441406 C 108.214844 25.320312 108.863281 25.199219 109.320312 25.199219 C 110.472656 25.199219 110.878906 24.984375 110.878906 24.359375 C 110.878906 22.96875 109.152344 22.609375 106.777344 23.496094 C 105.070312 24.144531 104.976562 24.144531 103.894531 23.160156 C 102.886719 22.246094 102.144531 22.078125 101.902344 22.726562 Z M 101.902344 22.726562 "/>
</g>
</svg>
