<svg t="1741363290286" class="icon" viewBox="0 0 1024 1024" version="1.1" xmlns="http://www.w3.org/2000/svg" p-id="2607" data-darkreader-inline-fill="" width="16" height="16"><path d="M288 768c-19.2 0-32 12.8-32 32s12.8 32 32 32h448c19.2 0 32-12.8 32-32s-12.8-32-32-32h-448z" fill="#1296db" p-id="2608" data-darkreader-inline-fill="" style="--darkreader-inline-fill: var(--darkreader-background-1296db, #0e78af);"></path><path d="M928 128c-19.2 0-32 12.8-32 32v710.4c0 51.2-38.4 89.6-89.6 89.6H192c-32 0-64-25.6-64-64v-192c0-38.4 32-64 64-64h512c38.4 0 64-25.6 64-64V128c0-70.4-57.6-128-128-128H192C121.6 0 64 57.6 64 128v768c0 70.4 57.6 128 128 128h640c70.4 0 128-57.6 128-128V160c0-19.2-12.8-32-32-32z" fill="#1296db" p-id="2609" data-darkreader-inline-fill="" style="--darkreader-inline-fill: var(--darkreader-background-1296db, #0e78af);"></path></svg>